%TF.GenerationSoftware,KiCad,Pcbnew,6.0.0*%
%TF.CreationDate,2022-01-15T13:24:47-05:00*%
%TF.ProjectId,wled-driver-nodemcu-v2,776c6564-2d64-4726-9976-65722d6e6f64,rev?*%
%TF.SameCoordinates,Original*%
%TF.FileFunction,Legend,Top*%
%TF.FilePolarity,Positive*%
%FSLAX46Y46*%
G04 Gerber Fmt 4.6, Leading zero omitted, Abs format (unit mm)*
G04 Created by KiCad (PCBNEW 6.0.0) date 2022-01-15 13:24:47*
%MOMM*%
%LPD*%
G01*
G04 APERTURE LIST*
G04 Aperture macros list*
%AMRoundRect*
0 Rectangle with rounded corners*
0 $1 Rounding radius*
0 $2 $3 $4 $5 $6 $7 $8 $9 X,Y pos of 4 corners*
0 Add a 4 corners polygon primitive as box body*
4,1,4,$2,$3,$4,$5,$6,$7,$8,$9,$2,$3,0*
0 Add four circle primitives for the rounded corners*
1,1,$1+$1,$2,$3*
1,1,$1+$1,$4,$5*
1,1,$1+$1,$6,$7*
1,1,$1+$1,$8,$9*
0 Add four rect primitives between the rounded corners*
20,1,$1+$1,$2,$3,$4,$5,0*
20,1,$1+$1,$4,$5,$6,$7,0*
20,1,$1+$1,$6,$7,$8,$9,0*
20,1,$1+$1,$8,$9,$2,$3,0*%
G04 Aperture macros list end*
%ADD10C,0.150000*%
%ADD11C,0.120000*%
%ADD12C,0.127000*%
%ADD13O,2.032000X1.727200*%
%ADD14C,0.100000*%
%ADD15C,0.250000*%
%ADD16C,2.601600*%
%ADD17C,2.101600*%
%ADD18O,1.501600X1.501600*%
%ADD19C,1.501600*%
%ADD20O,3.601600X3.601600*%
%ADD21RoundRect,0.050800X-0.952500X-1.000000X0.952500X-1.000000X0.952500X1.000000X-0.952500X1.000000X0*%
%ADD22O,2.006600X2.101600*%
%ADD23RoundRect,0.050800X1.200000X1.200000X-1.200000X1.200000X-1.200000X-1.200000X1.200000X-1.200000X0*%
%ADD24C,2.501600*%
%ADD25C,3.301600*%
%ADD26O,2.133600X1.828800*%
%ADD27C,1.625600*%
%ADD28RoundRect,0.050800X-0.762000X-0.762000X0.762000X-0.762000X0.762000X0.762000X-0.762000X0.762000X0*%
%ADD29RoundRect,0.050800X1.000000X-1.000000X1.000000X1.000000X-1.000000X1.000000X-1.000000X-1.000000X0*%
%ADD30RoundRect,0.050800X-1.200000X1.200000X-1.200000X-1.200000X1.200000X-1.200000X1.200000X1.200000X0*%
G04 APERTURE END LIST*
D10*
X117175595Y-63882380D02*
X117175595Y-64691904D01*
X117223214Y-64787142D01*
X117270833Y-64834761D01*
X117366071Y-64882380D01*
X117556547Y-64882380D01*
X117651785Y-64834761D01*
X117699404Y-64787142D01*
X117747023Y-64691904D01*
X117747023Y-63882380D01*
X118175595Y-64834761D02*
X118270833Y-64882380D01*
X118461309Y-64882380D01*
X118556547Y-64834761D01*
X118604166Y-64739523D01*
X118604166Y-64691904D01*
X118556547Y-64596666D01*
X118461309Y-64549047D01*
X118318452Y-64549047D01*
X118223214Y-64501428D01*
X118175595Y-64406190D01*
X118175595Y-64358571D01*
X118223214Y-64263333D01*
X118318452Y-64215714D01*
X118461309Y-64215714D01*
X118556547Y-64263333D01*
X119413690Y-64834761D02*
X119318452Y-64882380D01*
X119127976Y-64882380D01*
X119032738Y-64834761D01*
X118985119Y-64739523D01*
X118985119Y-64358571D01*
X119032738Y-64263333D01*
X119127976Y-64215714D01*
X119318452Y-64215714D01*
X119413690Y-64263333D01*
X119461309Y-64358571D01*
X119461309Y-64453809D01*
X118985119Y-64549047D01*
X120556547Y-64215714D02*
X120747023Y-64882380D01*
X120937500Y-64406190D01*
X121127976Y-64882380D01*
X121318452Y-64215714D01*
X121699404Y-64882380D02*
X121699404Y-64215714D01*
X121699404Y-63882380D02*
X121651785Y-63930000D01*
X121699404Y-63977619D01*
X121747023Y-63930000D01*
X121699404Y-63882380D01*
X121699404Y-63977619D01*
X122032738Y-64215714D02*
X122413690Y-64215714D01*
X122175595Y-63882380D02*
X122175595Y-64739523D01*
X122223214Y-64834761D01*
X122318452Y-64882380D01*
X122413690Y-64882380D01*
X122747023Y-64882380D02*
X122747023Y-63882380D01*
X123175595Y-64882380D02*
X123175595Y-64358571D01*
X123127976Y-64263333D01*
X123032738Y-64215714D01*
X122889880Y-64215714D01*
X122794642Y-64263333D01*
X122747023Y-64310952D01*
X117080357Y-65492380D02*
X117318452Y-66492380D01*
X117508928Y-65778095D01*
X117699404Y-66492380D01*
X117937500Y-65492380D01*
X118794642Y-66492380D02*
X118318452Y-66492380D01*
X118318452Y-65492380D01*
X119127976Y-65968571D02*
X119461309Y-65968571D01*
X119604166Y-66492380D02*
X119127976Y-66492380D01*
X119127976Y-65492380D01*
X119604166Y-65492380D01*
X120032738Y-66492380D02*
X120032738Y-65492380D01*
X120270833Y-65492380D01*
X120413690Y-65540000D01*
X120508928Y-65635238D01*
X120556547Y-65730476D01*
X120604166Y-65920952D01*
X120604166Y-66063809D01*
X120556547Y-66254285D01*
X120508928Y-66349523D01*
X120413690Y-66444761D01*
X120270833Y-66492380D01*
X120032738Y-66492380D01*
X117175595Y-67578571D02*
X117508928Y-67578571D01*
X117651785Y-68102380D02*
X117175595Y-68102380D01*
X117175595Y-67102380D01*
X117651785Y-67102380D01*
X118032738Y-68054761D02*
X118175595Y-68102380D01*
X118413690Y-68102380D01*
X118508928Y-68054761D01*
X118556547Y-68007142D01*
X118604166Y-67911904D01*
X118604166Y-67816666D01*
X118556547Y-67721428D01*
X118508928Y-67673809D01*
X118413690Y-67626190D01*
X118223214Y-67578571D01*
X118127976Y-67530952D01*
X118080357Y-67483333D01*
X118032738Y-67388095D01*
X118032738Y-67292857D01*
X118080357Y-67197619D01*
X118127976Y-67150000D01*
X118223214Y-67102380D01*
X118461309Y-67102380D01*
X118604166Y-67150000D01*
X119032738Y-68102380D02*
X119032738Y-67102380D01*
X119413690Y-67102380D01*
X119508928Y-67150000D01*
X119556547Y-67197619D01*
X119604166Y-67292857D01*
X119604166Y-67435714D01*
X119556547Y-67530952D01*
X119508928Y-67578571D01*
X119413690Y-67626190D01*
X119032738Y-67626190D01*
X120032738Y-68102380D02*
X120032738Y-67102380D01*
X120032738Y-67578571D02*
X120604166Y-67578571D01*
X120604166Y-68102380D02*
X120604166Y-67102380D01*
X121223214Y-68102380D02*
X121127976Y-68054761D01*
X121080357Y-68007142D01*
X121032738Y-67911904D01*
X121032738Y-67626190D01*
X121080357Y-67530952D01*
X121127976Y-67483333D01*
X121223214Y-67435714D01*
X121366071Y-67435714D01*
X121461309Y-67483333D01*
X121508928Y-67530952D01*
X121556547Y-67626190D01*
X121556547Y-67911904D01*
X121508928Y-68007142D01*
X121461309Y-68054761D01*
X121366071Y-68102380D01*
X121223214Y-68102380D01*
X121985119Y-68102380D02*
X121985119Y-67435714D01*
X121985119Y-67530952D02*
X122032738Y-67483333D01*
X122127976Y-67435714D01*
X122270833Y-67435714D01*
X122366071Y-67483333D01*
X122413690Y-67578571D01*
X122413690Y-68102380D01*
X122413690Y-67578571D02*
X122461309Y-67483333D01*
X122556547Y-67435714D01*
X122699404Y-67435714D01*
X122794642Y-67483333D01*
X122842261Y-67578571D01*
X122842261Y-68102380D01*
X123699404Y-68054761D02*
X123604166Y-68102380D01*
X123413690Y-68102380D01*
X123318452Y-68054761D01*
X123270833Y-67959523D01*
X123270833Y-67578571D01*
X123318452Y-67483333D01*
X123413690Y-67435714D01*
X123604166Y-67435714D01*
X123699404Y-67483333D01*
X123747023Y-67578571D01*
X123747023Y-67673809D01*
X123270833Y-67769047D01*
%TO.C,MH*%
X157257857Y-108712380D02*
X157257857Y-107712380D01*
X157591190Y-108426666D01*
X157924523Y-107712380D01*
X157924523Y-108712380D01*
X158400714Y-108712380D02*
X158400714Y-107712380D01*
X158400714Y-108188571D02*
X158972142Y-108188571D01*
X158972142Y-108712380D02*
X158972142Y-107712380D01*
%TO.C,D5-GPIO14*%
X145232380Y-103766428D02*
X144232380Y-103766428D01*
X144232380Y-103528333D01*
X144280000Y-103385476D01*
X144375238Y-103290238D01*
X144470476Y-103242619D01*
X144660952Y-103195000D01*
X144803809Y-103195000D01*
X144994285Y-103242619D01*
X145089523Y-103290238D01*
X145184761Y-103385476D01*
X145232380Y-103528333D01*
X145232380Y-103766428D01*
X144232380Y-102290238D02*
X144232380Y-102766428D01*
X144708571Y-102814047D01*
X144660952Y-102766428D01*
X144613333Y-102671190D01*
X144613333Y-102433095D01*
X144660952Y-102337857D01*
X144708571Y-102290238D01*
X144803809Y-102242619D01*
X145041904Y-102242619D01*
X145137142Y-102290238D01*
X145184761Y-102337857D01*
X145232380Y-102433095D01*
X145232380Y-102671190D01*
X145184761Y-102766428D01*
X145137142Y-102814047D01*
X144851428Y-101814047D02*
X144851428Y-101052142D01*
X144280000Y-100052142D02*
X144232380Y-100147380D01*
X144232380Y-100290238D01*
X144280000Y-100433095D01*
X144375238Y-100528333D01*
X144470476Y-100575952D01*
X144660952Y-100623571D01*
X144803809Y-100623571D01*
X144994285Y-100575952D01*
X145089523Y-100528333D01*
X145184761Y-100433095D01*
X145232380Y-100290238D01*
X145232380Y-100195000D01*
X145184761Y-100052142D01*
X145137142Y-100004523D01*
X144803809Y-100004523D01*
X144803809Y-100195000D01*
X145232380Y-99575952D02*
X144232380Y-99575952D01*
X144232380Y-99195000D01*
X144280000Y-99099761D01*
X144327619Y-99052142D01*
X144422857Y-99004523D01*
X144565714Y-99004523D01*
X144660952Y-99052142D01*
X144708571Y-99099761D01*
X144756190Y-99195000D01*
X144756190Y-99575952D01*
X145232380Y-98575952D02*
X144232380Y-98575952D01*
X144232380Y-97909285D02*
X144232380Y-97718809D01*
X144280000Y-97623571D01*
X144375238Y-97528333D01*
X144565714Y-97480714D01*
X144899047Y-97480714D01*
X145089523Y-97528333D01*
X145184761Y-97623571D01*
X145232380Y-97718809D01*
X145232380Y-97909285D01*
X145184761Y-98004523D01*
X145089523Y-98099761D01*
X144899047Y-98147380D01*
X144565714Y-98147380D01*
X144375238Y-98099761D01*
X144280000Y-98004523D01*
X144232380Y-97909285D01*
X145232380Y-96528333D02*
X145232380Y-97099761D01*
X145232380Y-96814047D02*
X144232380Y-96814047D01*
X144375238Y-96909285D01*
X144470476Y-97004523D01*
X144518095Y-97099761D01*
X144565714Y-95671190D02*
X145232380Y-95671190D01*
X144184761Y-95909285D02*
X144899047Y-96147380D01*
X144899047Y-95528333D01*
%TO.C,R1*%
X140772380Y-98591666D02*
X140296190Y-98925000D01*
X140772380Y-99163095D02*
X139772380Y-99163095D01*
X139772380Y-98782142D01*
X139820000Y-98686904D01*
X139867619Y-98639285D01*
X139962857Y-98591666D01*
X140105714Y-98591666D01*
X140200952Y-98639285D01*
X140248571Y-98686904D01*
X140296190Y-98782142D01*
X140296190Y-99163095D01*
X140772380Y-97639285D02*
X140772380Y-98210714D01*
X140772380Y-97925000D02*
X139772380Y-97925000D01*
X139915238Y-98020238D01*
X140010476Y-98115476D01*
X140058095Y-98210714D01*
%TO.C,R2*%
X140152380Y-87161666D02*
X139676190Y-87495000D01*
X140152380Y-87733095D02*
X139152380Y-87733095D01*
X139152380Y-87352142D01*
X139200000Y-87256904D01*
X139247619Y-87209285D01*
X139342857Y-87161666D01*
X139485714Y-87161666D01*
X139580952Y-87209285D01*
X139628571Y-87256904D01*
X139676190Y-87352142D01*
X139676190Y-87733095D01*
X139247619Y-86780714D02*
X139200000Y-86733095D01*
X139152380Y-86637857D01*
X139152380Y-86399761D01*
X139200000Y-86304523D01*
X139247619Y-86256904D01*
X139342857Y-86209285D01*
X139438095Y-86209285D01*
X139580952Y-86256904D01*
X140152380Y-86828333D01*
X140152380Y-86209285D01*
%TO.C,D6-GPIO12*%
X145232380Y-92336428D02*
X144232380Y-92336428D01*
X144232380Y-92098333D01*
X144280000Y-91955476D01*
X144375238Y-91860238D01*
X144470476Y-91812619D01*
X144660952Y-91765000D01*
X144803809Y-91765000D01*
X144994285Y-91812619D01*
X145089523Y-91860238D01*
X145184761Y-91955476D01*
X145232380Y-92098333D01*
X145232380Y-92336428D01*
X144232380Y-90907857D02*
X144232380Y-91098333D01*
X144280000Y-91193571D01*
X144327619Y-91241190D01*
X144470476Y-91336428D01*
X144660952Y-91384047D01*
X145041904Y-91384047D01*
X145137142Y-91336428D01*
X145184761Y-91288809D01*
X145232380Y-91193571D01*
X145232380Y-91003095D01*
X145184761Y-90907857D01*
X145137142Y-90860238D01*
X145041904Y-90812619D01*
X144803809Y-90812619D01*
X144708571Y-90860238D01*
X144660952Y-90907857D01*
X144613333Y-91003095D01*
X144613333Y-91193571D01*
X144660952Y-91288809D01*
X144708571Y-91336428D01*
X144803809Y-91384047D01*
X144851428Y-90384047D02*
X144851428Y-89622142D01*
X144280000Y-88622142D02*
X144232380Y-88717380D01*
X144232380Y-88860238D01*
X144280000Y-89003095D01*
X144375238Y-89098333D01*
X144470476Y-89145952D01*
X144660952Y-89193571D01*
X144803809Y-89193571D01*
X144994285Y-89145952D01*
X145089523Y-89098333D01*
X145184761Y-89003095D01*
X145232380Y-88860238D01*
X145232380Y-88765000D01*
X145184761Y-88622142D01*
X145137142Y-88574523D01*
X144803809Y-88574523D01*
X144803809Y-88765000D01*
X145232380Y-88145952D02*
X144232380Y-88145952D01*
X144232380Y-87765000D01*
X144280000Y-87669761D01*
X144327619Y-87622142D01*
X144422857Y-87574523D01*
X144565714Y-87574523D01*
X144660952Y-87622142D01*
X144708571Y-87669761D01*
X144756190Y-87765000D01*
X144756190Y-88145952D01*
X145232380Y-87145952D02*
X144232380Y-87145952D01*
X144232380Y-86479285D02*
X144232380Y-86288809D01*
X144280000Y-86193571D01*
X144375238Y-86098333D01*
X144565714Y-86050714D01*
X144899047Y-86050714D01*
X145089523Y-86098333D01*
X145184761Y-86193571D01*
X145232380Y-86288809D01*
X145232380Y-86479285D01*
X145184761Y-86574523D01*
X145089523Y-86669761D01*
X144899047Y-86717380D01*
X144565714Y-86717380D01*
X144375238Y-86669761D01*
X144280000Y-86574523D01*
X144232380Y-86479285D01*
X145232380Y-85098333D02*
X145232380Y-85669761D01*
X145232380Y-85384047D02*
X144232380Y-85384047D01*
X144375238Y-85479285D01*
X144470476Y-85574523D01*
X144518095Y-85669761D01*
X144327619Y-84717380D02*
X144280000Y-84669761D01*
X144232380Y-84574523D01*
X144232380Y-84336428D01*
X144280000Y-84241190D01*
X144327619Y-84193571D01*
X144422857Y-84145952D01*
X144518095Y-84145952D01*
X144660952Y-84193571D01*
X145232380Y-84765000D01*
X145232380Y-84145952D01*
%TO.C,MH*%
X90582857Y-45847380D02*
X90582857Y-44847380D01*
X90916190Y-45561666D01*
X91249523Y-44847380D01*
X91249523Y-45847380D01*
X91725714Y-45847380D02*
X91725714Y-44847380D01*
X91725714Y-45323571D02*
X92297142Y-45323571D01*
X92297142Y-45847380D02*
X92297142Y-44847380D01*
X156622857Y-45847380D02*
X156622857Y-44847380D01*
X156956190Y-45561666D01*
X157289523Y-44847380D01*
X157289523Y-45847380D01*
X157765714Y-45847380D02*
X157765714Y-44847380D01*
X157765714Y-45323571D02*
X158337142Y-45323571D01*
X158337142Y-45847380D02*
X158337142Y-44847380D01*
X90582857Y-108712380D02*
X90582857Y-107712380D01*
X90916190Y-108426666D01*
X91249523Y-107712380D01*
X91249523Y-108712380D01*
X91725714Y-108712380D02*
X91725714Y-107712380D01*
X91725714Y-108188571D02*
X92297142Y-108188571D01*
X92297142Y-108712380D02*
X92297142Y-107712380D01*
%TO.C,L7805*%
X101909761Y-84567380D02*
X101433571Y-84567380D01*
X101433571Y-83567380D01*
X102147857Y-83567380D02*
X102814523Y-83567380D01*
X102385952Y-84567380D01*
X103338333Y-83995952D02*
X103243095Y-83948333D01*
X103195476Y-83900714D01*
X103147857Y-83805476D01*
X103147857Y-83757857D01*
X103195476Y-83662619D01*
X103243095Y-83615000D01*
X103338333Y-83567380D01*
X103528809Y-83567380D01*
X103624047Y-83615000D01*
X103671666Y-83662619D01*
X103719285Y-83757857D01*
X103719285Y-83805476D01*
X103671666Y-83900714D01*
X103624047Y-83948333D01*
X103528809Y-83995952D01*
X103338333Y-83995952D01*
X103243095Y-84043571D01*
X103195476Y-84091190D01*
X103147857Y-84186428D01*
X103147857Y-84376904D01*
X103195476Y-84472142D01*
X103243095Y-84519761D01*
X103338333Y-84567380D01*
X103528809Y-84567380D01*
X103624047Y-84519761D01*
X103671666Y-84472142D01*
X103719285Y-84376904D01*
X103719285Y-84186428D01*
X103671666Y-84091190D01*
X103624047Y-84043571D01*
X103528809Y-83995952D01*
X104338333Y-83567380D02*
X104433571Y-83567380D01*
X104528809Y-83615000D01*
X104576428Y-83662619D01*
X104624047Y-83757857D01*
X104671666Y-83948333D01*
X104671666Y-84186428D01*
X104624047Y-84376904D01*
X104576428Y-84472142D01*
X104528809Y-84519761D01*
X104433571Y-84567380D01*
X104338333Y-84567380D01*
X104243095Y-84519761D01*
X104195476Y-84472142D01*
X104147857Y-84376904D01*
X104100238Y-84186428D01*
X104100238Y-83948333D01*
X104147857Y-83757857D01*
X104195476Y-83662619D01*
X104243095Y-83615000D01*
X104338333Y-83567380D01*
X105576428Y-83567380D02*
X105100238Y-83567380D01*
X105052619Y-84043571D01*
X105100238Y-83995952D01*
X105195476Y-83948333D01*
X105433571Y-83948333D01*
X105528809Y-83995952D01*
X105576428Y-84043571D01*
X105624047Y-84138809D01*
X105624047Y-84376904D01*
X105576428Y-84472142D01*
X105528809Y-84519761D01*
X105433571Y-84567380D01*
X105195476Y-84567380D01*
X105100238Y-84519761D01*
X105052619Y-84472142D01*
%TO.C,D4-GPIO2*%
X140549761Y-55507380D02*
X140549761Y-54507380D01*
X140787857Y-54507380D01*
X140930714Y-54555000D01*
X141025952Y-54650238D01*
X141073571Y-54745476D01*
X141121190Y-54935952D01*
X141121190Y-55078809D01*
X141073571Y-55269285D01*
X141025952Y-55364523D01*
X140930714Y-55459761D01*
X140787857Y-55507380D01*
X140549761Y-55507380D01*
X141978333Y-54840714D02*
X141978333Y-55507380D01*
X141740238Y-54459761D02*
X141502142Y-55174047D01*
X142121190Y-55174047D01*
X142502142Y-55126428D02*
X143264047Y-55126428D01*
X144264047Y-54555000D02*
X144168809Y-54507380D01*
X144025952Y-54507380D01*
X143883095Y-54555000D01*
X143787857Y-54650238D01*
X143740238Y-54745476D01*
X143692619Y-54935952D01*
X143692619Y-55078809D01*
X143740238Y-55269285D01*
X143787857Y-55364523D01*
X143883095Y-55459761D01*
X144025952Y-55507380D01*
X144121190Y-55507380D01*
X144264047Y-55459761D01*
X144311666Y-55412142D01*
X144311666Y-55078809D01*
X144121190Y-55078809D01*
X144740238Y-55507380D02*
X144740238Y-54507380D01*
X145121190Y-54507380D01*
X145216428Y-54555000D01*
X145264047Y-54602619D01*
X145311666Y-54697857D01*
X145311666Y-54840714D01*
X145264047Y-54935952D01*
X145216428Y-54983571D01*
X145121190Y-55031190D01*
X144740238Y-55031190D01*
X145740238Y-55507380D02*
X145740238Y-54507380D01*
X146406904Y-54507380D02*
X146597380Y-54507380D01*
X146692619Y-54555000D01*
X146787857Y-54650238D01*
X146835476Y-54840714D01*
X146835476Y-55174047D01*
X146787857Y-55364523D01*
X146692619Y-55459761D01*
X146597380Y-55507380D01*
X146406904Y-55507380D01*
X146311666Y-55459761D01*
X146216428Y-55364523D01*
X146168809Y-55174047D01*
X146168809Y-54840714D01*
X146216428Y-54650238D01*
X146311666Y-54555000D01*
X146406904Y-54507380D01*
X147216428Y-54602619D02*
X147264047Y-54555000D01*
X147359285Y-54507380D01*
X147597380Y-54507380D01*
X147692619Y-54555000D01*
X147740238Y-54602619D01*
X147787857Y-54697857D01*
X147787857Y-54793095D01*
X147740238Y-54935952D01*
X147168809Y-55507380D01*
X147787857Y-55507380D01*
%TO.C,NodeMCU1Amica1*%
X117444047Y-105029880D02*
X117444047Y-104029880D01*
X118015476Y-105029880D01*
X118015476Y-104029880D01*
X118634523Y-105029880D02*
X118539285Y-104982261D01*
X118491666Y-104934642D01*
X118444047Y-104839404D01*
X118444047Y-104553690D01*
X118491666Y-104458452D01*
X118539285Y-104410833D01*
X118634523Y-104363214D01*
X118777380Y-104363214D01*
X118872619Y-104410833D01*
X118920238Y-104458452D01*
X118967857Y-104553690D01*
X118967857Y-104839404D01*
X118920238Y-104934642D01*
X118872619Y-104982261D01*
X118777380Y-105029880D01*
X118634523Y-105029880D01*
X119825000Y-105029880D02*
X119825000Y-104029880D01*
X119825000Y-104982261D02*
X119729761Y-105029880D01*
X119539285Y-105029880D01*
X119444047Y-104982261D01*
X119396428Y-104934642D01*
X119348809Y-104839404D01*
X119348809Y-104553690D01*
X119396428Y-104458452D01*
X119444047Y-104410833D01*
X119539285Y-104363214D01*
X119729761Y-104363214D01*
X119825000Y-104410833D01*
X120682142Y-104982261D02*
X120586904Y-105029880D01*
X120396428Y-105029880D01*
X120301190Y-104982261D01*
X120253571Y-104887023D01*
X120253571Y-104506071D01*
X120301190Y-104410833D01*
X120396428Y-104363214D01*
X120586904Y-104363214D01*
X120682142Y-104410833D01*
X120729761Y-104506071D01*
X120729761Y-104601309D01*
X120253571Y-104696547D01*
X121158333Y-105029880D02*
X121158333Y-104029880D01*
X121491666Y-104744166D01*
X121825000Y-104029880D01*
X121825000Y-105029880D01*
X122872619Y-104934642D02*
X122825000Y-104982261D01*
X122682142Y-105029880D01*
X122586904Y-105029880D01*
X122444047Y-104982261D01*
X122348809Y-104887023D01*
X122301190Y-104791785D01*
X122253571Y-104601309D01*
X122253571Y-104458452D01*
X122301190Y-104267976D01*
X122348809Y-104172738D01*
X122444047Y-104077500D01*
X122586904Y-104029880D01*
X122682142Y-104029880D01*
X122825000Y-104077500D01*
X122872619Y-104125119D01*
X123301190Y-104029880D02*
X123301190Y-104839404D01*
X123348809Y-104934642D01*
X123396428Y-104982261D01*
X123491666Y-105029880D01*
X123682142Y-105029880D01*
X123777380Y-104982261D01*
X123825000Y-104934642D01*
X123872619Y-104839404D01*
X123872619Y-104029880D01*
X124872619Y-105029880D02*
X124301190Y-105029880D01*
X124586904Y-105029880D02*
X124586904Y-104029880D01*
X124491666Y-104172738D01*
X124396428Y-104267976D01*
X124301190Y-104315595D01*
X125253571Y-104744166D02*
X125729761Y-104744166D01*
X125158333Y-105029880D02*
X125491666Y-104029880D01*
X125825000Y-105029880D01*
X126158333Y-105029880D02*
X126158333Y-104363214D01*
X126158333Y-104458452D02*
X126205952Y-104410833D01*
X126301190Y-104363214D01*
X126444047Y-104363214D01*
X126539285Y-104410833D01*
X126586904Y-104506071D01*
X126586904Y-105029880D01*
X126586904Y-104506071D02*
X126634523Y-104410833D01*
X126729761Y-104363214D01*
X126872619Y-104363214D01*
X126967857Y-104410833D01*
X127015476Y-104506071D01*
X127015476Y-105029880D01*
X127491666Y-105029880D02*
X127491666Y-104363214D01*
X127491666Y-104029880D02*
X127444047Y-104077500D01*
X127491666Y-104125119D01*
X127539285Y-104077500D01*
X127491666Y-104029880D01*
X127491666Y-104125119D01*
X128396428Y-104982261D02*
X128301190Y-105029880D01*
X128110714Y-105029880D01*
X128015476Y-104982261D01*
X127967857Y-104934642D01*
X127920238Y-104839404D01*
X127920238Y-104553690D01*
X127967857Y-104458452D01*
X128015476Y-104410833D01*
X128110714Y-104363214D01*
X128301190Y-104363214D01*
X128396428Y-104410833D01*
X129253571Y-105029880D02*
X129253571Y-104506071D01*
X129205952Y-104410833D01*
X129110714Y-104363214D01*
X128920238Y-104363214D01*
X128825000Y-104410833D01*
X129253571Y-104982261D02*
X129158333Y-105029880D01*
X128920238Y-105029880D01*
X128825000Y-104982261D01*
X128777380Y-104887023D01*
X128777380Y-104791785D01*
X128825000Y-104696547D01*
X128920238Y-104648928D01*
X129158333Y-104648928D01*
X129253571Y-104601309D01*
X130253571Y-105029880D02*
X129682142Y-105029880D01*
X129967857Y-105029880D02*
X129967857Y-104029880D01*
X129872619Y-104172738D01*
X129777380Y-104267976D01*
X129682142Y-104315595D01*
%TO.C,LevelShifter-1*%
X143828095Y-61412380D02*
X143351904Y-61412380D01*
X143351904Y-60412380D01*
X144542380Y-61364761D02*
X144447142Y-61412380D01*
X144256666Y-61412380D01*
X144161428Y-61364761D01*
X144113809Y-61269523D01*
X144113809Y-60888571D01*
X144161428Y-60793333D01*
X144256666Y-60745714D01*
X144447142Y-60745714D01*
X144542380Y-60793333D01*
X144590000Y-60888571D01*
X144590000Y-60983809D01*
X144113809Y-61079047D01*
X144923333Y-60745714D02*
X145161428Y-61412380D01*
X145399523Y-60745714D01*
X146161428Y-61364761D02*
X146066190Y-61412380D01*
X145875714Y-61412380D01*
X145780476Y-61364761D01*
X145732857Y-61269523D01*
X145732857Y-60888571D01*
X145780476Y-60793333D01*
X145875714Y-60745714D01*
X146066190Y-60745714D01*
X146161428Y-60793333D01*
X146209047Y-60888571D01*
X146209047Y-60983809D01*
X145732857Y-61079047D01*
X146780476Y-61412380D02*
X146685238Y-61364761D01*
X146637619Y-61269523D01*
X146637619Y-60412380D01*
X147113809Y-61364761D02*
X147256666Y-61412380D01*
X147494761Y-61412380D01*
X147590000Y-61364761D01*
X147637619Y-61317142D01*
X147685238Y-61221904D01*
X147685238Y-61126666D01*
X147637619Y-61031428D01*
X147590000Y-60983809D01*
X147494761Y-60936190D01*
X147304285Y-60888571D01*
X147209047Y-60840952D01*
X147161428Y-60793333D01*
X147113809Y-60698095D01*
X147113809Y-60602857D01*
X147161428Y-60507619D01*
X147209047Y-60460000D01*
X147304285Y-60412380D01*
X147542380Y-60412380D01*
X147685238Y-60460000D01*
X148113809Y-61412380D02*
X148113809Y-60412380D01*
X148542380Y-61412380D02*
X148542380Y-60888571D01*
X148494761Y-60793333D01*
X148399523Y-60745714D01*
X148256666Y-60745714D01*
X148161428Y-60793333D01*
X148113809Y-60840952D01*
X149018571Y-61412380D02*
X149018571Y-60745714D01*
X149018571Y-60412380D02*
X148970952Y-60460000D01*
X149018571Y-60507619D01*
X149066190Y-60460000D01*
X149018571Y-60412380D01*
X149018571Y-60507619D01*
X149351904Y-60745714D02*
X149732857Y-60745714D01*
X149494761Y-61412380D02*
X149494761Y-60555238D01*
X149542380Y-60460000D01*
X149637619Y-60412380D01*
X149732857Y-60412380D01*
X149923333Y-60745714D02*
X150304285Y-60745714D01*
X150066190Y-60412380D02*
X150066190Y-61269523D01*
X150113809Y-61364761D01*
X150209047Y-61412380D01*
X150304285Y-61412380D01*
X151018571Y-61364761D02*
X150923333Y-61412380D01*
X150732857Y-61412380D01*
X150637619Y-61364761D01*
X150590000Y-61269523D01*
X150590000Y-60888571D01*
X150637619Y-60793333D01*
X150732857Y-60745714D01*
X150923333Y-60745714D01*
X151018571Y-60793333D01*
X151066190Y-60888571D01*
X151066190Y-60983809D01*
X150590000Y-61079047D01*
X151494761Y-61412380D02*
X151494761Y-60745714D01*
X151494761Y-60936190D02*
X151542380Y-60840952D01*
X151590000Y-60793333D01*
X151685238Y-60745714D01*
X151780476Y-60745714D01*
X152113809Y-61031428D02*
X152875714Y-61031428D01*
X153875714Y-61412380D02*
X153304285Y-61412380D01*
X153590000Y-61412380D02*
X153590000Y-60412380D01*
X153494761Y-60555238D01*
X153399523Y-60650476D01*
X153304285Y-60698095D01*
%TO.C,C1*%
X103338333Y-95874465D02*
X103290714Y-95922084D01*
X103147857Y-95969703D01*
X103052619Y-95969703D01*
X102909761Y-95922084D01*
X102814523Y-95826846D01*
X102766904Y-95731608D01*
X102719285Y-95541132D01*
X102719285Y-95398275D01*
X102766904Y-95207799D01*
X102814523Y-95112561D01*
X102909761Y-95017323D01*
X103052619Y-94969703D01*
X103147857Y-94969703D01*
X103290714Y-95017323D01*
X103338333Y-95064942D01*
X104290714Y-95969703D02*
X103719285Y-95969703D01*
X104005000Y-95969703D02*
X104005000Y-94969703D01*
X103909761Y-95112561D01*
X103814523Y-95207799D01*
X103719285Y-95255418D01*
%TO.C,VIn1*%
X104562380Y-103695000D02*
X105562380Y-103361666D01*
X104562380Y-103028333D01*
X105562380Y-102695000D02*
X104562380Y-102695000D01*
X104895714Y-102218809D02*
X105562380Y-102218809D01*
X104990952Y-102218809D02*
X104943333Y-102171190D01*
X104895714Y-102075952D01*
X104895714Y-101933095D01*
X104943333Y-101837857D01*
X105038571Y-101790238D01*
X105562380Y-101790238D01*
X105562380Y-100790238D02*
X105562380Y-101361666D01*
X105562380Y-101075952D02*
X104562380Y-101075952D01*
X104705238Y-101171190D01*
X104800476Y-101266428D01*
X104848095Y-101361666D01*
%TO.C,D1-GPIO5*%
X119594761Y-55507380D02*
X119594761Y-54507380D01*
X119832857Y-54507380D01*
X119975714Y-54555000D01*
X120070952Y-54650238D01*
X120118571Y-54745476D01*
X120166190Y-54935952D01*
X120166190Y-55078809D01*
X120118571Y-55269285D01*
X120070952Y-55364523D01*
X119975714Y-55459761D01*
X119832857Y-55507380D01*
X119594761Y-55507380D01*
X121118571Y-55507380D02*
X120547142Y-55507380D01*
X120832857Y-55507380D02*
X120832857Y-54507380D01*
X120737619Y-54650238D01*
X120642380Y-54745476D01*
X120547142Y-54793095D01*
X121547142Y-55126428D02*
X122309047Y-55126428D01*
X123309047Y-54555000D02*
X123213809Y-54507380D01*
X123070952Y-54507380D01*
X122928095Y-54555000D01*
X122832857Y-54650238D01*
X122785238Y-54745476D01*
X122737619Y-54935952D01*
X122737619Y-55078809D01*
X122785238Y-55269285D01*
X122832857Y-55364523D01*
X122928095Y-55459761D01*
X123070952Y-55507380D01*
X123166190Y-55507380D01*
X123309047Y-55459761D01*
X123356666Y-55412142D01*
X123356666Y-55078809D01*
X123166190Y-55078809D01*
X123785238Y-55507380D02*
X123785238Y-54507380D01*
X124166190Y-54507380D01*
X124261428Y-54555000D01*
X124309047Y-54602619D01*
X124356666Y-54697857D01*
X124356666Y-54840714D01*
X124309047Y-54935952D01*
X124261428Y-54983571D01*
X124166190Y-55031190D01*
X123785238Y-55031190D01*
X124785238Y-55507380D02*
X124785238Y-54507380D01*
X125451904Y-54507380D02*
X125642380Y-54507380D01*
X125737619Y-54555000D01*
X125832857Y-54650238D01*
X125880476Y-54840714D01*
X125880476Y-55174047D01*
X125832857Y-55364523D01*
X125737619Y-55459761D01*
X125642380Y-55507380D01*
X125451904Y-55507380D01*
X125356666Y-55459761D01*
X125261428Y-55364523D01*
X125213809Y-55174047D01*
X125213809Y-54840714D01*
X125261428Y-54650238D01*
X125356666Y-54555000D01*
X125451904Y-54507380D01*
X126785238Y-54507380D02*
X126309047Y-54507380D01*
X126261428Y-54983571D01*
X126309047Y-54935952D01*
X126404285Y-54888333D01*
X126642380Y-54888333D01*
X126737619Y-54935952D01*
X126785238Y-54983571D01*
X126832857Y-55078809D01*
X126832857Y-55316904D01*
X126785238Y-55412142D01*
X126737619Y-55459761D01*
X126642380Y-55507380D01*
X126404285Y-55507380D01*
X126309047Y-55459761D01*
X126261428Y-55412142D01*
%TO.C,D2-GPIO4*%
X99194761Y-55807380D02*
X99194761Y-54807380D01*
X99432857Y-54807380D01*
X99575714Y-54855000D01*
X99670952Y-54950238D01*
X99718571Y-55045476D01*
X99766190Y-55235952D01*
X99766190Y-55378809D01*
X99718571Y-55569285D01*
X99670952Y-55664523D01*
X99575714Y-55759761D01*
X99432857Y-55807380D01*
X99194761Y-55807380D01*
X100147142Y-54902619D02*
X100194761Y-54855000D01*
X100290000Y-54807380D01*
X100528095Y-54807380D01*
X100623333Y-54855000D01*
X100670952Y-54902619D01*
X100718571Y-54997857D01*
X100718571Y-55093095D01*
X100670952Y-55235952D01*
X100099523Y-55807380D01*
X100718571Y-55807380D01*
X101147142Y-55426428D02*
X101909047Y-55426428D01*
X102909047Y-54855000D02*
X102813809Y-54807380D01*
X102670952Y-54807380D01*
X102528095Y-54855000D01*
X102432857Y-54950238D01*
X102385238Y-55045476D01*
X102337619Y-55235952D01*
X102337619Y-55378809D01*
X102385238Y-55569285D01*
X102432857Y-55664523D01*
X102528095Y-55759761D01*
X102670952Y-55807380D01*
X102766190Y-55807380D01*
X102909047Y-55759761D01*
X102956666Y-55712142D01*
X102956666Y-55378809D01*
X102766190Y-55378809D01*
X103385238Y-55807380D02*
X103385238Y-54807380D01*
X103766190Y-54807380D01*
X103861428Y-54855000D01*
X103909047Y-54902619D01*
X103956666Y-54997857D01*
X103956666Y-55140714D01*
X103909047Y-55235952D01*
X103861428Y-55283571D01*
X103766190Y-55331190D01*
X103385238Y-55331190D01*
X104385238Y-55807380D02*
X104385238Y-54807380D01*
X105051904Y-54807380D02*
X105242380Y-54807380D01*
X105337619Y-54855000D01*
X105432857Y-54950238D01*
X105480476Y-55140714D01*
X105480476Y-55474047D01*
X105432857Y-55664523D01*
X105337619Y-55759761D01*
X105242380Y-55807380D01*
X105051904Y-55807380D01*
X104956666Y-55759761D01*
X104861428Y-55664523D01*
X104813809Y-55474047D01*
X104813809Y-55140714D01*
X104861428Y-54950238D01*
X104956666Y-54855000D01*
X105051904Y-54807380D01*
X106337619Y-55140714D02*
X106337619Y-55807380D01*
X106099523Y-54759761D02*
X105861428Y-55474047D01*
X106480476Y-55474047D01*
D11*
%TO.C,D5-GPIO14*%
X150610000Y-95560000D02*
X149110000Y-95560000D01*
X153110000Y-101310000D02*
X153110000Y-96810000D01*
X149110000Y-102560000D02*
X150610000Y-102560000D01*
X146610000Y-96810000D02*
X146610000Y-101310000D01*
%TO.C,R1*%
X143160000Y-100345000D02*
X143160000Y-96505000D01*
X141320000Y-100345000D02*
X141320000Y-96505000D01*
%TO.C,R2*%
X141320000Y-85075000D02*
X141320000Y-88915000D01*
X143160000Y-85075000D02*
X143160000Y-88915000D01*
%TO.C,D6-GPIO12*%
X149110000Y-91130000D02*
X150610000Y-91130000D01*
X146610000Y-85380000D02*
X146610000Y-89880000D01*
X150610000Y-84130000D02*
X149110000Y-84130000D01*
X153110000Y-89880000D02*
X153110000Y-85380000D01*
%TO.C,L7805*%
X98425000Y-78225000D02*
X98425000Y-80765000D01*
X93305000Y-62335000D02*
X103545000Y-62335000D01*
X95885000Y-78225000D02*
X95885000Y-80765000D01*
X103545000Y-62335000D02*
X103545000Y-78225000D01*
X93305000Y-62335000D02*
X93305000Y-78225000D01*
X93305000Y-78225000D02*
X103545000Y-78225000D01*
X100965000Y-78225000D02*
X100965000Y-80765000D01*
%TO.C,D4-GPIO2*%
X136585000Y-54055000D02*
X136585000Y-43735000D01*
X151705000Y-54055000D02*
X136585000Y-54055000D01*
X151945000Y-43495000D02*
X151445000Y-43495000D01*
X151705000Y-44295000D02*
X136585000Y-44295000D01*
X151705000Y-45395000D02*
X136585000Y-45395000D01*
X151705000Y-54055000D02*
X151705000Y-43735000D01*
X151705000Y-43735000D02*
X136585000Y-43735000D01*
X151945000Y-44235000D02*
X151945000Y-43495000D01*
X147713000Y-48587000D02*
G75*
G03*
X147712891Y-49802742I1432003J-607999D01*
G01*
X150577000Y-49803000D02*
G75*
G03*
X150577109Y-48587258I-1432003J607999D01*
G01*
X149145000Y-47640000D02*
G75*
G03*
X148537413Y-47763615I-1J-1554997D01*
G01*
X149753000Y-47763000D02*
G75*
G03*
X149117989Y-47639507I-607998J-1431988D01*
G01*
X148537000Y-50627000D02*
G75*
G03*
X149752742Y-50627109I607999J1432003D01*
G01*
X145700000Y-49195000D02*
G75*
G03*
X145700000Y-49195000I-1555000J0D01*
G01*
X140700000Y-49195000D02*
G75*
G03*
X140700000Y-49195000I-1555000J0D01*
G01*
D10*
%TO.C,NodeMCU1Amica1*%
X136525000Y-67627500D02*
X133985000Y-67627500D01*
X111125000Y-105727500D02*
X113665000Y-105727500D01*
X133985000Y-105727500D02*
X136525000Y-105727500D01*
X113665000Y-70167500D02*
X111125000Y-70167500D01*
X133985000Y-67627500D02*
X133985000Y-105727500D01*
X111125000Y-70167500D02*
X111125000Y-105727500D01*
X110845000Y-68897500D02*
X110845000Y-67347500D01*
X136525000Y-105727500D02*
X136525000Y-67627500D01*
X113945000Y-67347500D02*
X113945000Y-68897500D01*
X113665000Y-105727500D02*
X113665000Y-70167500D01*
X110845000Y-67347500D02*
X113945000Y-67347500D01*
D12*
%TO.C,LevelShifter-1*%
X143830000Y-78510000D02*
X143830000Y-62460000D01*
X143830000Y-62460000D02*
X157160000Y-62460000D01*
X157160000Y-62460000D02*
X157160000Y-78510000D01*
X157160000Y-78510000D02*
X143830000Y-78510000D01*
D11*
%TO.C,C1*%
X94104000Y-88916677D02*
X104016000Y-88916677D01*
X100301000Y-88276677D02*
X103828000Y-88276677D01*
X97116000Y-85316677D02*
X101004000Y-85316677D01*
X93995000Y-89637677D02*
X104125000Y-89637677D01*
X100301000Y-87516677D02*
X103477000Y-87516677D01*
X98461000Y-84956677D02*
X99659000Y-84956677D01*
X96006000Y-85956677D02*
X102114000Y-85956677D01*
X94496000Y-87796677D02*
X97819000Y-87796677D01*
X94689000Y-87436677D02*
X97819000Y-87436677D01*
X100301000Y-86756677D02*
X102952000Y-86756677D01*
X100301000Y-87596677D02*
X103522000Y-87596677D01*
X94866000Y-87156677D02*
X97819000Y-87156677D01*
X98198000Y-84996677D02*
X99922000Y-84996677D01*
X100301000Y-88356677D02*
X103857000Y-88356677D01*
X94577000Y-87636677D02*
X97819000Y-87636677D01*
X94894000Y-87116677D02*
X97819000Y-87116677D01*
X100301000Y-86596677D02*
X102813000Y-86596677D01*
X95202000Y-86716677D02*
X97819000Y-86716677D01*
X95168000Y-86756677D02*
X97819000Y-86756677D01*
X95806000Y-86116677D02*
X102314000Y-86116677D01*
X100301000Y-87916677D02*
X103681000Y-87916677D01*
X94337000Y-88156677D02*
X97819000Y-88156677D01*
X100301000Y-86436677D02*
X102661000Y-86436677D01*
X94036000Y-89276677D02*
X104084000Y-89276677D01*
X94439000Y-87916677D02*
X97819000Y-87916677D01*
X100301000Y-87876677D02*
X103663000Y-87876677D01*
X93990000Y-89717677D02*
X104130000Y-89717677D01*
X96851000Y-85436677D02*
X101269000Y-85436677D01*
X95854000Y-86076677D02*
X102266000Y-86076677D01*
X97023000Y-85356677D02*
X101097000Y-85356677D01*
X94236000Y-88436677D02*
X97819000Y-88436677D01*
X96415000Y-85676677D02*
X101705000Y-85676677D01*
X94370000Y-88076677D02*
X97819000Y-88076677D01*
X94787000Y-87276677D02*
X97819000Y-87276677D01*
X96621000Y-85556677D02*
X101499000Y-85556677D01*
X94353000Y-88116677D02*
X97819000Y-88116677D01*
X96060000Y-85916677D02*
X102060000Y-85916677D01*
X100301000Y-88436677D02*
X103884000Y-88436677D01*
X93987000Y-89757677D02*
X104133000Y-89757677D01*
X95420000Y-86476677D02*
X97819000Y-86476677D01*
X94030000Y-89316677D02*
X104090000Y-89316677D01*
X100301000Y-87556677D02*
X103500000Y-87556677D01*
X100301000Y-88316677D02*
X103843000Y-88316677D01*
X100301000Y-88636677D02*
X103945000Y-88636677D01*
X100301000Y-87636677D02*
X103543000Y-87636677D01*
X94186000Y-88596677D02*
X97819000Y-88596677D01*
X94132000Y-88796677D02*
X103988000Y-88796677D01*
X100301000Y-87356677D02*
X103383000Y-87356677D01*
X94737000Y-87356677D02*
X97819000Y-87356677D01*
X100301000Y-86796677D02*
X102985000Y-86796677D01*
X96550000Y-85596677D02*
X101570000Y-85596677D01*
X97998000Y-85036677D02*
X100122000Y-85036677D01*
X94386000Y-88036677D02*
X97819000Y-88036677D01*
X100301000Y-86516677D02*
X102739000Y-86516677D01*
X94713000Y-87396677D02*
X97819000Y-87396677D01*
X94198000Y-88556677D02*
X97819000Y-88556677D01*
X100301000Y-88156677D02*
X103783000Y-88156677D01*
X95236000Y-86676677D02*
X97819000Y-86676677D01*
X100301000Y-87996677D02*
X103717000Y-87996677D01*
X95010000Y-86956677D02*
X97819000Y-86956677D01*
X100301000Y-87116677D02*
X103226000Y-87116677D01*
X96481000Y-85636677D02*
X101639000Y-85636677D01*
X97550000Y-85156677D02*
X100570000Y-85156677D01*
X94175000Y-88636677D02*
X97819000Y-88636677D01*
X96185000Y-95517323D02*
X96185000Y-94517323D01*
X100301000Y-86476677D02*
X102700000Y-86476677D01*
X94142000Y-88756677D02*
X97819000Y-88756677D01*
X100301000Y-87796677D02*
X103624000Y-87796677D01*
X94762000Y-87316677D02*
X97819000Y-87316677D01*
X93982000Y-89877677D02*
X104138000Y-89877677D01*
X94020000Y-89397677D02*
X104100000Y-89397677D01*
X100301000Y-86636677D02*
X102849000Y-86636677D01*
X95904000Y-86036677D02*
X102216000Y-86036677D01*
X94598000Y-87596677D02*
X97819000Y-87596677D01*
X100301000Y-87476677D02*
X103455000Y-87476677D01*
X94421000Y-87956677D02*
X97819000Y-87956677D01*
X94839000Y-87196677D02*
X97819000Y-87196677D01*
X100301000Y-86556677D02*
X102776000Y-86556677D01*
X100301000Y-88556677D02*
X103922000Y-88556677D01*
X94403000Y-87996677D02*
X97819000Y-87996677D01*
X94025000Y-89357677D02*
X104095000Y-89357677D01*
X94006000Y-89517677D02*
X104114000Y-89517677D01*
X94665000Y-87476677D02*
X97819000Y-87476677D01*
X95685000Y-95017323D02*
X96685000Y-95017323D01*
X95759000Y-86156677D02*
X102361000Y-86156677D01*
X94950000Y-87036677D02*
X97819000Y-87036677D01*
X93980000Y-89997677D02*
X104140000Y-89997677D01*
X94086000Y-88996677D02*
X104034000Y-88996677D01*
X93985000Y-89797677D02*
X104135000Y-89797677D01*
X100301000Y-88396677D02*
X103871000Y-88396677D01*
X100301000Y-87196677D02*
X103281000Y-87196677D01*
X100301000Y-86396677D02*
X102621000Y-86396677D01*
X100301000Y-88716677D02*
X103967000Y-88716677D01*
X100301000Y-86676677D02*
X102884000Y-86676677D01*
X95624000Y-86276677D02*
X102496000Y-86276677D01*
X94210000Y-88516677D02*
X97819000Y-88516677D01*
X100301000Y-88076677D02*
X103750000Y-88076677D01*
X100301000Y-88236677D02*
X103814000Y-88236677D01*
X94556000Y-87676677D02*
X97819000Y-87676677D01*
X96290000Y-85756677D02*
X101830000Y-85756677D01*
X94476000Y-87836677D02*
X97819000Y-87836677D01*
X94122000Y-88836677D02*
X103998000Y-88836677D01*
X94643000Y-87516677D02*
X97819000Y-87516677D01*
X95540000Y-86356677D02*
X97819000Y-86356677D01*
X100301000Y-86356677D02*
X102580000Y-86356677D01*
X100301000Y-87036677D02*
X103170000Y-87036677D01*
X96695000Y-85516677D02*
X101425000Y-85516677D01*
X94042000Y-89236677D02*
X104078000Y-89236677D01*
X100301000Y-87156677D02*
X103254000Y-87156677D01*
X94813000Y-87236677D02*
X97819000Y-87236677D01*
X94002000Y-89557677D02*
X104118000Y-89557677D01*
X100301000Y-87076677D02*
X103198000Y-87076677D01*
X94535000Y-87716677D02*
X97819000Y-87716677D01*
X100301000Y-86996677D02*
X103140000Y-86996677D01*
X100301000Y-87956677D02*
X103699000Y-87956677D01*
X94263000Y-88356677D02*
X97819000Y-88356677D01*
X100301000Y-87716677D02*
X103585000Y-87716677D01*
X100301000Y-88756677D02*
X103978000Y-88756677D01*
X93992000Y-89677677D02*
X104128000Y-89677677D01*
X94153000Y-88716677D02*
X97819000Y-88716677D01*
X96771000Y-85476677D02*
X101349000Y-85476677D01*
X93980000Y-90037677D02*
X104140000Y-90037677D01*
X100301000Y-86916677D02*
X103080000Y-86916677D01*
X94070000Y-89076677D02*
X104050000Y-89076677D01*
X93998000Y-89597677D02*
X104122000Y-89597677D01*
X100301000Y-88596677D02*
X103934000Y-88596677D01*
X100301000Y-86956677D02*
X103110000Y-86956677D01*
X94249000Y-88396677D02*
X97819000Y-88396677D01*
X94095000Y-88956677D02*
X104025000Y-88956677D01*
X100301000Y-87276677D02*
X103333000Y-87276677D01*
X95668000Y-86236677D02*
X102452000Y-86236677D01*
X100301000Y-86716677D02*
X102918000Y-86716677D01*
X100301000Y-86836677D02*
X103017000Y-86836677D01*
X100301000Y-87676677D02*
X103564000Y-87676677D01*
X93981000Y-89917677D02*
X104139000Y-89917677D01*
X100301000Y-87756677D02*
X103605000Y-87756677D01*
X94056000Y-89156677D02*
X104064000Y-89156677D01*
X96171000Y-85836677D02*
X101949000Y-85836677D01*
X96115000Y-85876677D02*
X102005000Y-85876677D01*
X93983000Y-89837677D02*
X104137000Y-89837677D01*
X94113000Y-88876677D02*
X104007000Y-88876677D01*
X94515000Y-87756677D02*
X97819000Y-87756677D01*
X95135000Y-86796677D02*
X97819000Y-86796677D01*
X94049000Y-89196677D02*
X104071000Y-89196677D01*
X94322000Y-88196677D02*
X97819000Y-88196677D01*
X100301000Y-88036677D02*
X103734000Y-88036677D01*
X97214000Y-85276677D02*
X100906000Y-85276677D01*
X94980000Y-86996677D02*
X97819000Y-86996677D01*
X97682000Y-85116677D02*
X100438000Y-85116677D01*
X95103000Y-86836677D02*
X97819000Y-86836677D01*
X94306000Y-88236677D02*
X97819000Y-88236677D01*
X95381000Y-86516677D02*
X97819000Y-86516677D01*
X94163000Y-88676677D02*
X97819000Y-88676677D01*
X94457000Y-87876677D02*
X97819000Y-87876677D01*
X94063000Y-89116677D02*
X104057000Y-89116677D01*
X95499000Y-86396677D02*
X97819000Y-86396677D01*
X94015000Y-89437677D02*
X104105000Y-89437677D01*
X95713000Y-86196677D02*
X102407000Y-86196677D01*
X95344000Y-86556677D02*
X97819000Y-86556677D01*
X100301000Y-87436677D02*
X103431000Y-87436677D01*
X100301000Y-87236677D02*
X103307000Y-87236677D01*
X94277000Y-88316677D02*
X97819000Y-88316677D01*
X100301000Y-86876677D02*
X103049000Y-86876677D01*
X100301000Y-88116677D02*
X103767000Y-88116677D01*
X100301000Y-88196677D02*
X103798000Y-88196677D01*
X95459000Y-86436677D02*
X97819000Y-86436677D01*
X96935000Y-85396677D02*
X101185000Y-85396677D01*
X96351000Y-85716677D02*
X101769000Y-85716677D01*
X94620000Y-87556677D02*
X97819000Y-87556677D01*
X93980000Y-89957677D02*
X104140000Y-89957677D01*
X95271000Y-86636677D02*
X97819000Y-86636677D01*
X95582000Y-86316677D02*
X97819000Y-86316677D01*
X94010000Y-89477677D02*
X104110000Y-89477677D01*
X95071000Y-86876677D02*
X97819000Y-86876677D01*
X100301000Y-88516677D02*
X103910000Y-88516677D01*
X100301000Y-87396677D02*
X103407000Y-87396677D01*
X96230000Y-85796677D02*
X101890000Y-85796677D01*
X97830000Y-85076677D02*
X100290000Y-85076677D01*
X100301000Y-86316677D02*
X102538000Y-86316677D01*
X94078000Y-89036677D02*
X104042000Y-89036677D01*
X100301000Y-88676677D02*
X103957000Y-88676677D01*
X94223000Y-88476677D02*
X97819000Y-88476677D01*
X95040000Y-86916677D02*
X97819000Y-86916677D01*
X95307000Y-86596677D02*
X97819000Y-86596677D01*
X100301000Y-88476677D02*
X103897000Y-88476677D01*
X97318000Y-85236677D02*
X100802000Y-85236677D01*
X94292000Y-88276677D02*
X97819000Y-88276677D01*
X100301000Y-87316677D02*
X103358000Y-87316677D01*
X94922000Y-87076677D02*
X97819000Y-87076677D01*
X100301000Y-87836677D02*
X103644000Y-87836677D01*
X97430000Y-85196677D02*
X100690000Y-85196677D01*
X95954000Y-85996677D02*
X102166000Y-85996677D01*
X104180000Y-90037677D02*
G75*
G03*
X104180000Y-90037677I-5120000J0D01*
G01*
%TO.C,VIn1*%
X93600000Y-97135000D02*
X93600000Y-107255000D01*
X95260000Y-97135000D02*
X95260000Y-107255000D01*
X103920000Y-97135000D02*
X103920000Y-107255000D01*
X103920000Y-107255000D02*
X93600000Y-107255000D01*
X103920000Y-97135000D02*
X93600000Y-97135000D01*
X94100000Y-96895000D02*
X93360000Y-96895000D01*
X93360000Y-96895000D02*
X93360000Y-97395000D01*
X94160000Y-97135000D02*
X94160000Y-107255000D01*
X100492000Y-100303000D02*
G75*
G03*
X100492109Y-99087258I-1432003J607999D01*
G01*
X98452000Y-101127000D02*
G75*
G03*
X99667742Y-101127109I607999J1432003D01*
G01*
X97505000Y-99695000D02*
G75*
G03*
X97628615Y-100302587I1554997J-1D01*
G01*
X99668000Y-98263000D02*
G75*
G03*
X98452258Y-98262891I-607999J-1432003D01*
G01*
X97628000Y-99087000D02*
G75*
G03*
X97504507Y-99722011I1431988J-607998D01*
G01*
X100615000Y-104695000D02*
G75*
G03*
X100615000Y-104695000I-1555000J0D01*
G01*
%TO.C,D1-GPIO5*%
X130990000Y-43495000D02*
X130490000Y-43495000D01*
X115630000Y-54055000D02*
X115630000Y-43735000D01*
X130750000Y-54055000D02*
X115630000Y-54055000D01*
X130750000Y-43735000D02*
X115630000Y-43735000D01*
X130750000Y-45395000D02*
X115630000Y-45395000D01*
X130750000Y-44295000D02*
X115630000Y-44295000D01*
X130750000Y-54055000D02*
X130750000Y-43735000D01*
X130990000Y-44235000D02*
X130990000Y-43495000D01*
X129622000Y-49803000D02*
G75*
G03*
X129622109Y-48587258I-1432003J607999D01*
G01*
X127582000Y-50627000D02*
G75*
G03*
X128797742Y-50627109I607999J1432003D01*
G01*
X128798000Y-47763000D02*
G75*
G03*
X128162989Y-47639507I-607998J-1431988D01*
G01*
X128190000Y-47640000D02*
G75*
G03*
X127582413Y-47763615I-1J-1554997D01*
G01*
X126758000Y-48587000D02*
G75*
G03*
X126757891Y-49802742I1432003J-607999D01*
G01*
X124745000Y-49195000D02*
G75*
G03*
X124745000Y-49195000I-1555000J0D01*
G01*
X119745000Y-49195000D02*
G75*
G03*
X119745000Y-49195000I-1555000J0D01*
G01*
%TO.C,D2-GPIO4*%
X95230000Y-54355000D02*
X95230000Y-44035000D01*
X110350000Y-45695000D02*
X95230000Y-45695000D01*
X110590000Y-44535000D02*
X110590000Y-43795000D01*
X110590000Y-43795000D02*
X110090000Y-43795000D01*
X110350000Y-44595000D02*
X95230000Y-44595000D01*
X110350000Y-44035000D02*
X95230000Y-44035000D01*
X110350000Y-54355000D02*
X95230000Y-54355000D01*
X110350000Y-54355000D02*
X110350000Y-44035000D01*
X107182000Y-50927000D02*
G75*
G03*
X108397742Y-50927109I607999J1432003D01*
G01*
X107790000Y-47940000D02*
G75*
G03*
X107182413Y-48063615I-1J-1554997D01*
G01*
X108398000Y-48063000D02*
G75*
G03*
X107762989Y-47939507I-607998J-1431988D01*
G01*
X109222000Y-50103000D02*
G75*
G03*
X109222109Y-48887258I-1432003J607999D01*
G01*
X106358000Y-48887000D02*
G75*
G03*
X106357891Y-50102742I1432003J-607999D01*
G01*
X104345000Y-49495000D02*
G75*
G03*
X104345000Y-49495000I-1555000J0D01*
G01*
X99345000Y-49495000D02*
G75*
G03*
X99345000Y-49495000I-1555000J0D01*
G01*
%TD*%
D13*
%TO.C,NodeMCU1Amica1*%
X112395000Y-68897500D03*
X112395000Y-71437500D03*
X112395000Y-73977500D03*
X112395000Y-76517500D03*
X112395000Y-79057500D03*
X112395000Y-81597500D03*
X112395000Y-84137500D03*
X112395000Y-86677500D03*
X112395000Y-89217500D03*
X112395000Y-91757500D03*
X112395000Y-94297500D03*
X112395000Y-96837500D03*
X112395000Y-99377500D03*
X112395000Y-101917500D03*
X112395000Y-104457500D03*
X135255000Y-104457500D03*
X135255000Y-101917500D03*
X135255000Y-99377500D03*
X135255000Y-96837500D03*
X135255000Y-94297500D03*
X135255000Y-91757500D03*
X135255000Y-89217500D03*
X135255000Y-86677500D03*
X135255000Y-84137500D03*
X135255000Y-81597500D03*
X135255000Y-79057500D03*
X135255000Y-76517500D03*
X135255000Y-73977500D03*
X135255000Y-71437500D03*
X135255000Y-68897500D03*
%TD*%
%LPC*%
D14*
X90805000Y-60325000D02*
X106045000Y-60325000D01*
X106045000Y-60325000D02*
X106045000Y-76200000D01*
X106045000Y-76200000D02*
X90805000Y-76200000D01*
X90805000Y-76200000D02*
X90805000Y-60325000D01*
G36*
X90805000Y-60325000D02*
G01*
X106045000Y-60325000D01*
X106045000Y-76200000D01*
X90805000Y-76200000D01*
X90805000Y-60325000D01*
G37*
D15*
X121457738Y-58067380D02*
X121457738Y-57067380D01*
X122029166Y-58067380D01*
X122029166Y-57067380D01*
X122648214Y-58067380D02*
X122552976Y-58019761D01*
X122505357Y-57972142D01*
X122457738Y-57876904D01*
X122457738Y-57591190D01*
X122505357Y-57495952D01*
X122552976Y-57448333D01*
X122648214Y-57400714D01*
X122791071Y-57400714D01*
X122886309Y-57448333D01*
X122933928Y-57495952D01*
X122981547Y-57591190D01*
X122981547Y-57876904D01*
X122933928Y-57972142D01*
X122886309Y-58019761D01*
X122791071Y-58067380D01*
X122648214Y-58067380D01*
X123838690Y-58067380D02*
X123838690Y-57067380D01*
X123838690Y-58019761D02*
X123743452Y-58067380D01*
X123552976Y-58067380D01*
X123457738Y-58019761D01*
X123410119Y-57972142D01*
X123362500Y-57876904D01*
X123362500Y-57591190D01*
X123410119Y-57495952D01*
X123457738Y-57448333D01*
X123552976Y-57400714D01*
X123743452Y-57400714D01*
X123838690Y-57448333D01*
X124695833Y-58019761D02*
X124600595Y-58067380D01*
X124410119Y-58067380D01*
X124314880Y-58019761D01*
X124267261Y-57924523D01*
X124267261Y-57543571D01*
X124314880Y-57448333D01*
X124410119Y-57400714D01*
X124600595Y-57400714D01*
X124695833Y-57448333D01*
X124743452Y-57543571D01*
X124743452Y-57638809D01*
X124267261Y-57734047D01*
X125172023Y-58067380D02*
X125172023Y-57067380D01*
X125505357Y-57781666D01*
X125838690Y-57067380D01*
X125838690Y-58067380D01*
X126886309Y-57972142D02*
X126838690Y-58019761D01*
X126695833Y-58067380D01*
X126600595Y-58067380D01*
X126457738Y-58019761D01*
X126362500Y-57924523D01*
X126314880Y-57829285D01*
X126267261Y-57638809D01*
X126267261Y-57495952D01*
X126314880Y-57305476D01*
X126362500Y-57210238D01*
X126457738Y-57115000D01*
X126600595Y-57067380D01*
X126695833Y-57067380D01*
X126838690Y-57115000D01*
X126886309Y-57162619D01*
X127314880Y-57067380D02*
X127314880Y-57876904D01*
X127362500Y-57972142D01*
X127410119Y-58019761D01*
X127505357Y-58067380D01*
X127695833Y-58067380D01*
X127791071Y-58019761D01*
X127838690Y-57972142D01*
X127886309Y-57876904D01*
X127886309Y-57067380D01*
X129124404Y-58067380D02*
X129124404Y-57067380D01*
X129362500Y-57067380D01*
X129505357Y-57115000D01*
X129600595Y-57210238D01*
X129648214Y-57305476D01*
X129695833Y-57495952D01*
X129695833Y-57638809D01*
X129648214Y-57829285D01*
X129600595Y-57924523D01*
X129505357Y-58019761D01*
X129362500Y-58067380D01*
X129124404Y-58067380D01*
X130124404Y-58067380D02*
X130124404Y-57400714D01*
X130124404Y-57591190D02*
X130172023Y-57495952D01*
X130219642Y-57448333D01*
X130314880Y-57400714D01*
X130410119Y-57400714D01*
X130743452Y-58067380D02*
X130743452Y-57400714D01*
X130743452Y-57067380D02*
X130695833Y-57115000D01*
X130743452Y-57162619D01*
X130791071Y-57115000D01*
X130743452Y-57067380D01*
X130743452Y-57162619D01*
X131124404Y-57400714D02*
X131362500Y-58067380D01*
X131600595Y-57400714D01*
X132362500Y-58019761D02*
X132267261Y-58067380D01*
X132076785Y-58067380D01*
X131981547Y-58019761D01*
X131933928Y-57924523D01*
X131933928Y-57543571D01*
X131981547Y-57448333D01*
X132076785Y-57400714D01*
X132267261Y-57400714D01*
X132362500Y-57448333D01*
X132410119Y-57543571D01*
X132410119Y-57638809D01*
X131933928Y-57734047D01*
X132838690Y-58067380D02*
X132838690Y-57400714D01*
X132838690Y-57591190D02*
X132886309Y-57495952D01*
X132933928Y-57448333D01*
X133029166Y-57400714D01*
X133124404Y-57400714D01*
X134743452Y-58067380D02*
X134172023Y-58067380D01*
X134457738Y-58067380D02*
X134457738Y-57067380D01*
X134362500Y-57210238D01*
X134267261Y-57305476D01*
X134172023Y-57353095D01*
X135172023Y-57972142D02*
X135219642Y-58019761D01*
X135172023Y-58067380D01*
X135124404Y-58019761D01*
X135172023Y-57972142D01*
X135172023Y-58067380D01*
X136172023Y-58067380D02*
X135600595Y-58067380D01*
X135886309Y-58067380D02*
X135886309Y-57067380D01*
X135791071Y-57210238D01*
X135695833Y-57305476D01*
X135600595Y-57353095D01*
X110600595Y-59010714D02*
X110600595Y-59820238D01*
X110552976Y-59915476D01*
X110505357Y-59963095D01*
X110410119Y-60010714D01*
X110267261Y-60010714D01*
X110172023Y-59963095D01*
X110600595Y-59629761D02*
X110505357Y-59677380D01*
X110314880Y-59677380D01*
X110219642Y-59629761D01*
X110172023Y-59582142D01*
X110124404Y-59486904D01*
X110124404Y-59201190D01*
X110172023Y-59105952D01*
X110219642Y-59058333D01*
X110314880Y-59010714D01*
X110505357Y-59010714D01*
X110600595Y-59058333D01*
X111076785Y-59677380D02*
X111076785Y-59010714D01*
X111076785Y-58677380D02*
X111029166Y-58725000D01*
X111076785Y-58772619D01*
X111124404Y-58725000D01*
X111076785Y-58677380D01*
X111076785Y-58772619D01*
X111410119Y-59010714D02*
X111791071Y-59010714D01*
X111552976Y-58677380D02*
X111552976Y-59534523D01*
X111600595Y-59629761D01*
X111695833Y-59677380D01*
X111791071Y-59677380D01*
X112124404Y-59677380D02*
X112124404Y-58677380D01*
X112552976Y-59677380D02*
X112552976Y-59153571D01*
X112505357Y-59058333D01*
X112410119Y-59010714D01*
X112267261Y-59010714D01*
X112172023Y-59058333D01*
X112124404Y-59105952D01*
X113457738Y-59010714D02*
X113457738Y-59677380D01*
X113029166Y-59010714D02*
X113029166Y-59534523D01*
X113076785Y-59629761D01*
X113172023Y-59677380D01*
X113314880Y-59677380D01*
X113410119Y-59629761D01*
X113457738Y-59582142D01*
X113933928Y-59677380D02*
X113933928Y-58677380D01*
X113933928Y-59058333D02*
X114029166Y-59010714D01*
X114219642Y-59010714D01*
X114314880Y-59058333D01*
X114362500Y-59105952D01*
X114410119Y-59201190D01*
X114410119Y-59486904D01*
X114362500Y-59582142D01*
X114314880Y-59629761D01*
X114219642Y-59677380D01*
X114029166Y-59677380D01*
X113933928Y-59629761D01*
X114838690Y-59582142D02*
X114886309Y-59629761D01*
X114838690Y-59677380D01*
X114791071Y-59629761D01*
X114838690Y-59582142D01*
X114838690Y-59677380D01*
X115743452Y-59629761D02*
X115648214Y-59677380D01*
X115457738Y-59677380D01*
X115362500Y-59629761D01*
X115314880Y-59582142D01*
X115267261Y-59486904D01*
X115267261Y-59201190D01*
X115314880Y-59105952D01*
X115362500Y-59058333D01*
X115457738Y-59010714D01*
X115648214Y-59010714D01*
X115743452Y-59058333D01*
X116314880Y-59677380D02*
X116219642Y-59629761D01*
X116172023Y-59582142D01*
X116124404Y-59486904D01*
X116124404Y-59201190D01*
X116172023Y-59105952D01*
X116219642Y-59058333D01*
X116314880Y-59010714D01*
X116457738Y-59010714D01*
X116552976Y-59058333D01*
X116600595Y-59105952D01*
X116648214Y-59201190D01*
X116648214Y-59486904D01*
X116600595Y-59582142D01*
X116552976Y-59629761D01*
X116457738Y-59677380D01*
X116314880Y-59677380D01*
X117076785Y-59677380D02*
X117076785Y-59010714D01*
X117076785Y-59105952D02*
X117124404Y-59058333D01*
X117219642Y-59010714D01*
X117362500Y-59010714D01*
X117457738Y-59058333D01*
X117505357Y-59153571D01*
X117505357Y-59677380D01*
X117505357Y-59153571D02*
X117552976Y-59058333D01*
X117648214Y-59010714D01*
X117791071Y-59010714D01*
X117886309Y-59058333D01*
X117933928Y-59153571D01*
X117933928Y-59677380D01*
X119124404Y-58629761D02*
X118267261Y-59915476D01*
X119457738Y-59010714D02*
X119457738Y-59677380D01*
X119457738Y-59105952D02*
X119505357Y-59058333D01*
X119600595Y-59010714D01*
X119743452Y-59010714D01*
X119838690Y-59058333D01*
X119886309Y-59153571D01*
X119886309Y-59677380D01*
X120362500Y-59677380D02*
X120362500Y-59010714D01*
X120362500Y-58677380D02*
X120314880Y-58725000D01*
X120362500Y-58772619D01*
X120410119Y-58725000D01*
X120362500Y-58677380D01*
X120362500Y-58772619D01*
X121267261Y-59629761D02*
X121172023Y-59677380D01*
X120981547Y-59677380D01*
X120886309Y-59629761D01*
X120838690Y-59582142D01*
X120791071Y-59486904D01*
X120791071Y-59201190D01*
X120838690Y-59105952D01*
X120886309Y-59058333D01*
X120981547Y-59010714D01*
X121172023Y-59010714D01*
X121267261Y-59058333D01*
X121838690Y-59677380D02*
X121743452Y-59629761D01*
X121695833Y-59582142D01*
X121648214Y-59486904D01*
X121648214Y-59201190D01*
X121695833Y-59105952D01*
X121743452Y-59058333D01*
X121838690Y-59010714D01*
X121981547Y-59010714D01*
X122076785Y-59058333D01*
X122124404Y-59105952D01*
X122172023Y-59201190D01*
X122172023Y-59486904D01*
X122124404Y-59582142D01*
X122076785Y-59629761D01*
X121981547Y-59677380D01*
X121838690Y-59677380D01*
X123029166Y-59677380D02*
X123029166Y-59153571D01*
X122981547Y-59058333D01*
X122886309Y-59010714D01*
X122695833Y-59010714D01*
X122600595Y-59058333D01*
X123029166Y-59629761D02*
X122933928Y-59677380D01*
X122695833Y-59677380D01*
X122600595Y-59629761D01*
X122552976Y-59534523D01*
X122552976Y-59439285D01*
X122600595Y-59344047D01*
X122695833Y-59296428D01*
X122933928Y-59296428D01*
X123029166Y-59248809D01*
X123505357Y-59010714D02*
X123505357Y-59677380D01*
X123505357Y-59105952D02*
X123552976Y-59058333D01*
X123648214Y-59010714D01*
X123791071Y-59010714D01*
X123886309Y-59058333D01*
X123933928Y-59153571D01*
X123933928Y-59677380D01*
X124838690Y-59677380D02*
X124838690Y-58677380D01*
X124838690Y-59629761D02*
X124743452Y-59677380D01*
X124552976Y-59677380D01*
X124457738Y-59629761D01*
X124410119Y-59582142D01*
X124362500Y-59486904D01*
X124362500Y-59201190D01*
X124410119Y-59105952D01*
X124457738Y-59058333D01*
X124552976Y-59010714D01*
X124743452Y-59010714D01*
X124838690Y-59058333D01*
X125314880Y-59677380D02*
X125314880Y-59010714D01*
X125314880Y-59201190D02*
X125362500Y-59105952D01*
X125410119Y-59058333D01*
X125505357Y-59010714D01*
X125600595Y-59010714D01*
X126362500Y-59677380D02*
X126362500Y-59153571D01*
X126314880Y-59058333D01*
X126219642Y-59010714D01*
X126029166Y-59010714D01*
X125933928Y-59058333D01*
X126362500Y-59629761D02*
X126267261Y-59677380D01*
X126029166Y-59677380D01*
X125933928Y-59629761D01*
X125886309Y-59534523D01*
X125886309Y-59439285D01*
X125933928Y-59344047D01*
X126029166Y-59296428D01*
X126267261Y-59296428D01*
X126362500Y-59248809D01*
X127552976Y-58629761D02*
X126695833Y-59915476D01*
X127886309Y-59677380D02*
X127886309Y-59010714D01*
X127886309Y-58677380D02*
X127838690Y-58725000D01*
X127886309Y-58772619D01*
X127933928Y-58725000D01*
X127886309Y-58677380D01*
X127886309Y-58772619D01*
X128505357Y-59677380D02*
X128410119Y-59629761D01*
X128362500Y-59582142D01*
X128314880Y-59486904D01*
X128314880Y-59201190D01*
X128362500Y-59105952D01*
X128410119Y-59058333D01*
X128505357Y-59010714D01*
X128648214Y-59010714D01*
X128743452Y-59058333D01*
X128791071Y-59105952D01*
X128838690Y-59201190D01*
X128838690Y-59486904D01*
X128791071Y-59582142D01*
X128743452Y-59629761D01*
X128648214Y-59677380D01*
X128505357Y-59677380D01*
X129124404Y-59010714D02*
X129505357Y-59010714D01*
X129267261Y-58677380D02*
X129267261Y-59534523D01*
X129314880Y-59629761D01*
X129410119Y-59677380D01*
X129505357Y-59677380D01*
X129838690Y-59296428D02*
X130600595Y-59296428D01*
X131505357Y-59677380D02*
X131505357Y-58677380D01*
X131505357Y-59629761D02*
X131410119Y-59677380D01*
X131219642Y-59677380D01*
X131124404Y-59629761D01*
X131076785Y-59582142D01*
X131029166Y-59486904D01*
X131029166Y-59201190D01*
X131076785Y-59105952D01*
X131124404Y-59058333D01*
X131219642Y-59010714D01*
X131410119Y-59010714D01*
X131505357Y-59058333D01*
X132362500Y-59629761D02*
X132267261Y-59677380D01*
X132076785Y-59677380D01*
X131981547Y-59629761D01*
X131933928Y-59534523D01*
X131933928Y-59153571D01*
X131981547Y-59058333D01*
X132076785Y-59010714D01*
X132267261Y-59010714D01*
X132362500Y-59058333D01*
X132410119Y-59153571D01*
X132410119Y-59248809D01*
X131933928Y-59344047D01*
X132743452Y-59010714D02*
X132981547Y-59677380D01*
X133219642Y-59010714D01*
X133600595Y-59677380D02*
X133600595Y-59010714D01*
X133600595Y-58677380D02*
X133552976Y-58725000D01*
X133600595Y-58772619D01*
X133648214Y-58725000D01*
X133600595Y-58677380D01*
X133600595Y-58772619D01*
X134505357Y-59629761D02*
X134410119Y-59677380D01*
X134219642Y-59677380D01*
X134124404Y-59629761D01*
X134076785Y-59582142D01*
X134029166Y-59486904D01*
X134029166Y-59201190D01*
X134076785Y-59105952D01*
X134124404Y-59058333D01*
X134219642Y-59010714D01*
X134410119Y-59010714D01*
X134505357Y-59058333D01*
X135314880Y-59629761D02*
X135219642Y-59677380D01*
X135029166Y-59677380D01*
X134933928Y-59629761D01*
X134886309Y-59534523D01*
X134886309Y-59153571D01*
X134933928Y-59058333D01*
X135029166Y-59010714D01*
X135219642Y-59010714D01*
X135314880Y-59058333D01*
X135362500Y-59153571D01*
X135362500Y-59248809D01*
X134886309Y-59344047D01*
X135743452Y-59629761D02*
X135838690Y-59677380D01*
X136029166Y-59677380D01*
X136124404Y-59629761D01*
X136172023Y-59534523D01*
X136172023Y-59486904D01*
X136124404Y-59391666D01*
X136029166Y-59344047D01*
X135886309Y-59344047D01*
X135791071Y-59296428D01*
X135743452Y-59201190D01*
X135743452Y-59153571D01*
X135791071Y-59058333D01*
X135886309Y-59010714D01*
X136029166Y-59010714D01*
X136124404Y-59058333D01*
D16*
%TO.C,MH*%
X158115000Y-111760000D03*
%TD*%
D17*
%TO.C,D5-GPIO14*%
X152110000Y-102310000D03*
X152110000Y-95810000D03*
X147610000Y-95810000D03*
X147610000Y-102310000D03*
%TD*%
D18*
%TO.C,R1*%
X142240000Y-95885000D03*
D19*
X142240000Y-100965000D03*
%TD*%
D18*
%TO.C,R2*%
X142240000Y-89535000D03*
D19*
X142240000Y-84455000D03*
%TD*%
D17*
%TO.C,D6-GPIO12*%
X152110000Y-84380000D03*
X152110000Y-90880000D03*
X147610000Y-84380000D03*
X147610000Y-90880000D03*
%TD*%
D16*
%TO.C,MH*%
X91440000Y-48895000D03*
%TD*%
%TO.C,MH*%
X157480000Y-48895000D03*
%TD*%
%TO.C,MH*%
X91440000Y-111760000D03*
%TD*%
D20*
%TO.C,L7805*%
X98425000Y-65255000D03*
D21*
X95885000Y-81915000D03*
D22*
X98425000Y-81915000D03*
X100965000Y-81915000D03*
%TD*%
D23*
%TO.C,D4-GPIO2*%
X149145000Y-49195000D03*
D24*
X144145000Y-49195000D03*
X139145000Y-49195000D03*
%TD*%
D25*
%TO.C,NodeMCU1Amica1*%
X134395000Y-108277500D03*
X134395000Y-64647500D03*
X113195000Y-108277500D03*
X113145000Y-64647500D03*
D26*
X112395000Y-68897500D03*
X112395000Y-71437500D03*
X112395000Y-73977500D03*
X112395000Y-76517500D03*
X112395000Y-79057500D03*
X112395000Y-81597500D03*
X112395000Y-84137500D03*
X112395000Y-86677500D03*
X112395000Y-89217500D03*
X112395000Y-91757500D03*
X112395000Y-94297500D03*
X112395000Y-96837500D03*
X112395000Y-99377500D03*
X112395000Y-101917500D03*
X112395000Y-104457500D03*
X135255000Y-104457500D03*
X135255000Y-101917500D03*
X135255000Y-99377500D03*
X135255000Y-96837500D03*
X135255000Y-94297500D03*
X135255000Y-91757500D03*
X135255000Y-89217500D03*
X135255000Y-86677500D03*
X135255000Y-84137500D03*
X135255000Y-81597500D03*
X135255000Y-79057500D03*
X135255000Y-76517500D03*
X135255000Y-73977500D03*
X135255000Y-71437500D03*
X135255000Y-68897500D03*
%TD*%
D27*
%TO.C,LevelShifter-1*%
X155575000Y-71755000D03*
X145415000Y-71755000D03*
X155575000Y-69215000D03*
D28*
X155575000Y-64135000D03*
D27*
X155575000Y-66675000D03*
X155575000Y-74295000D03*
X155575000Y-76835000D03*
X145415000Y-69215000D03*
D28*
X145415000Y-64135000D03*
D27*
X145415000Y-66675000D03*
X145415000Y-74295000D03*
X145415000Y-76835000D03*
%TD*%
D29*
%TO.C,C1*%
X99060000Y-92537677D03*
D17*
X99060000Y-87537677D03*
%TD*%
D30*
%TO.C,VIn1*%
X99060000Y-99695000D03*
D24*
X99060000Y-104695000D03*
%TD*%
D23*
%TO.C,D1-GPIO5*%
X128190000Y-49195000D03*
D24*
X123190000Y-49195000D03*
X118190000Y-49195000D03*
%TD*%
D23*
%TO.C,D2-GPIO4*%
X107790000Y-49495000D03*
D24*
X102790000Y-49495000D03*
X97790000Y-49495000D03*
%TD*%
M02*
