%TF.GenerationSoftware,KiCad,Pcbnew,6.0.0*%
%TF.CreationDate,2022-01-15T13:24:48-05:00*%
%TF.ProjectId,wled-driver-nodemcu-v2,776c6564-2d64-4726-9976-65722d6e6f64,rev?*%
%TF.SameCoordinates,Original*%
%TF.FileFunction,Legend,Bot*%
%TF.FilePolarity,Positive*%
%FSLAX46Y46*%
G04 Gerber Fmt 4.6, Leading zero omitted, Abs format (unit mm)*
G04 Created by KiCad (PCBNEW 6.0.0) date 2022-01-15 13:24:48*
%MOMM*%
%LPD*%
G01*
G04 APERTURE LIST*
G04 Aperture macros list*
%AMRoundRect*
0 Rectangle with rounded corners*
0 $1 Rounding radius*
0 $2 $3 $4 $5 $6 $7 $8 $9 X,Y pos of 4 corners*
0 Add a 4 corners polygon primitive as box body*
4,1,4,$2,$3,$4,$5,$6,$7,$8,$9,$2,$3,0*
0 Add four circle primitives for the rounded corners*
1,1,$1+$1,$2,$3*
1,1,$1+$1,$4,$5*
1,1,$1+$1,$6,$7*
1,1,$1+$1,$8,$9*
0 Add four rect primitives between the rounded corners*
20,1,$1+$1,$2,$3,$4,$5,0*
20,1,$1+$1,$4,$5,$6,$7,0*
20,1,$1+$1,$6,$7,$8,$9,0*
20,1,$1+$1,$8,$9,$2,$3,0*%
G04 Aperture macros list end*
%ADD10C,0.100000*%
%ADD11C,2.601600*%
%ADD12C,2.101600*%
%ADD13O,1.501600X1.501600*%
%ADD14C,1.501600*%
%ADD15O,3.601600X3.601600*%
%ADD16RoundRect,0.050800X-0.952500X-1.000000X0.952500X-1.000000X0.952500X1.000000X-0.952500X1.000000X0*%
%ADD17O,2.006600X2.101600*%
%ADD18RoundRect,0.050800X1.200000X1.200000X-1.200000X1.200000X-1.200000X-1.200000X1.200000X-1.200000X0*%
%ADD19C,2.501600*%
%ADD20C,3.301600*%
%ADD21O,2.133600X1.828800*%
%ADD22C,1.625600*%
%ADD23RoundRect,0.050800X-0.762000X-0.762000X0.762000X-0.762000X0.762000X0.762000X-0.762000X0.762000X0*%
%ADD24RoundRect,0.050800X1.000000X-1.000000X1.000000X1.000000X-1.000000X1.000000X-1.000000X-1.000000X0*%
%ADD25RoundRect,0.050800X-1.200000X1.200000X-1.200000X-1.200000X1.200000X-1.200000X1.200000X1.200000X0*%
G04 APERTURE END LIST*
%LPC*%
D10*
X90805000Y-60325000D02*
X106045000Y-60325000D01*
X106045000Y-60325000D02*
X106045000Y-76200000D01*
X106045000Y-76200000D02*
X90805000Y-76200000D01*
X90805000Y-76200000D02*
X90805000Y-60325000D01*
G36*
X90805000Y-60325000D02*
G01*
X106045000Y-60325000D01*
X106045000Y-76200000D01*
X90805000Y-76200000D01*
X90805000Y-60325000D01*
G37*
D11*
%TO.C,MH*%
X158115000Y-111760000D03*
%TD*%
D12*
%TO.C,D5-GPIO14*%
X152110000Y-102310000D03*
X152110000Y-95810000D03*
X147610000Y-95810000D03*
X147610000Y-102310000D03*
%TD*%
D13*
%TO.C,R1*%
X142240000Y-95885000D03*
D14*
X142240000Y-100965000D03*
%TD*%
D13*
%TO.C,R2*%
X142240000Y-89535000D03*
D14*
X142240000Y-84455000D03*
%TD*%
D12*
%TO.C,D6-GPIO12*%
X152110000Y-84380000D03*
X152110000Y-90880000D03*
X147610000Y-84380000D03*
X147610000Y-90880000D03*
%TD*%
D11*
%TO.C,MH*%
X91440000Y-48895000D03*
%TD*%
%TO.C,MH*%
X157480000Y-48895000D03*
%TD*%
%TO.C,MH*%
X91440000Y-111760000D03*
%TD*%
D15*
%TO.C,L7805*%
X98425000Y-65255000D03*
D16*
X95885000Y-81915000D03*
D17*
X98425000Y-81915000D03*
X100965000Y-81915000D03*
%TD*%
D18*
%TO.C,D4-GPIO2*%
X149145000Y-49195000D03*
D19*
X144145000Y-49195000D03*
X139145000Y-49195000D03*
%TD*%
D20*
%TO.C,NodeMCU1Amica1*%
X134395000Y-108277500D03*
X134395000Y-64647500D03*
X113195000Y-108277500D03*
X113145000Y-64647500D03*
D21*
X112395000Y-68897500D03*
X112395000Y-71437500D03*
X112395000Y-73977500D03*
X112395000Y-76517500D03*
X112395000Y-79057500D03*
X112395000Y-81597500D03*
X112395000Y-84137500D03*
X112395000Y-86677500D03*
X112395000Y-89217500D03*
X112395000Y-91757500D03*
X112395000Y-94297500D03*
X112395000Y-96837500D03*
X112395000Y-99377500D03*
X112395000Y-101917500D03*
X112395000Y-104457500D03*
X135255000Y-104457500D03*
X135255000Y-101917500D03*
X135255000Y-99377500D03*
X135255000Y-96837500D03*
X135255000Y-94297500D03*
X135255000Y-91757500D03*
X135255000Y-89217500D03*
X135255000Y-86677500D03*
X135255000Y-84137500D03*
X135255000Y-81597500D03*
X135255000Y-79057500D03*
X135255000Y-76517500D03*
X135255000Y-73977500D03*
X135255000Y-71437500D03*
X135255000Y-68897500D03*
%TD*%
D22*
%TO.C,LevelShifter-1*%
X155575000Y-71755000D03*
X145415000Y-71755000D03*
X155575000Y-69215000D03*
D23*
X155575000Y-64135000D03*
D22*
X155575000Y-66675000D03*
X155575000Y-74295000D03*
X155575000Y-76835000D03*
X145415000Y-69215000D03*
D23*
X145415000Y-64135000D03*
D22*
X145415000Y-66675000D03*
X145415000Y-74295000D03*
X145415000Y-76835000D03*
%TD*%
D24*
%TO.C,C1*%
X99060000Y-92537677D03*
D12*
X99060000Y-87537677D03*
%TD*%
D25*
%TO.C,VIn1*%
X99060000Y-99695000D03*
D19*
X99060000Y-104695000D03*
%TD*%
D18*
%TO.C,D1-GPIO5*%
X128190000Y-49195000D03*
D19*
X123190000Y-49195000D03*
X118190000Y-49195000D03*
%TD*%
D18*
%TO.C,D2-GPIO4*%
X107790000Y-49495000D03*
D19*
X102790000Y-49495000D03*
X97790000Y-49495000D03*
%TD*%
M02*
