M48
; DRILL file {KiCad 6.0.0} date Sat 15 Jan 2022 01:25:25 PM
; FORMAT={-:-/ absolute / inch / decimal}
; #@! TF.CreationDate,2022-01-15T13:25:25-05:00
; #@! TF.GenerationSoftware,Kicad,Pcbnew,6.0.0
; #@! TF.FileFunction,MixedPlating,1,2
FMAT,2
INCH
; #@! TA.AperFunction,Plated,PTH,ViaDrill
T1C0.0157
; #@! TA.AperFunction,Plated,PTH,ComponentDrill
T2C0.0276
; #@! TA.AperFunction,Plated,PTH,ComponentDrill
T3C0.0394
; #@! TA.AperFunction,Plated,PTH,ComponentDrill
T4C0.0400
; #@! TA.AperFunction,Plated,PTH,ComponentDrill
T5C0.0433
; #@! TA.AperFunction,Plated,PTH,ComponentDrill
T6C0.0472
; #@! TA.AperFunction,NonPlated,NPTH,ComponentDrill
T7C0.0984
; #@! TA.AperFunction,NonPlated,NPTH,ComponentDrill
T8C0.1260
; #@! TA.AperFunction,NonPlated,NPTH,ComponentDrill
T9C0.1378
%
G90
G05
T1
X5.925Y-2.825
T2
X5.6Y-3.325
X5.6Y-3.525
X5.6Y-3.775
X5.6Y-3.975
T3
X3.9Y-3.4464
X3.9Y-3.6432
T4
X4.425Y-2.7125
X4.425Y-2.8125
X4.425Y-2.9125
X4.425Y-3.0125
X4.425Y-3.1125
X4.425Y-3.2125
X4.425Y-3.3125
X4.425Y-3.4125
X4.425Y-3.5125
X4.425Y-3.6125
X4.425Y-3.7125
X4.425Y-3.8125
X4.425Y-3.9125
X4.425Y-4.0125
X4.425Y-4.1125
X5.325Y-2.7125
X5.325Y-2.8125
X5.325Y-2.9125
X5.325Y-3.0125
X5.325Y-3.1125
X5.325Y-3.2125
X5.325Y-3.3125
X5.325Y-3.4125
X5.325Y-3.5125
X5.325Y-3.6125
X5.325Y-3.7125
X5.325Y-3.8125
X5.325Y-3.9125
X5.325Y-4.0125
X5.325Y-4.1125
X5.725Y-2.525
X5.725Y-2.625
X5.725Y-2.725
X5.725Y-2.825
X5.725Y-2.925
X5.725Y-3.025
X6.125Y-2.525
X6.125Y-2.625
X6.125Y-2.725
X6.125Y-2.825
X6.125Y-2.925
X6.125Y-3.025
T5
X3.775Y-3.225
X3.875Y-3.225
X3.975Y-3.225
X5.8114Y-3.322
X5.8114Y-3.578
X5.8114Y-3.772
X5.8114Y-4.028
X5.9886Y-3.322
X5.9886Y-3.578
X5.9886Y-3.772
X5.9886Y-4.028
T6
X3.85Y-1.9486
X3.9Y-3.925
X3.9Y-4.1219
X4.0469Y-1.9486
X4.2437Y-1.9486
X4.6531Y-1.9368
X4.85Y-1.9368
X5.0469Y-1.9368
X5.4781Y-1.9368
X5.675Y-1.9368
X5.8719Y-1.9368
T7
X3.6Y-1.925
X3.6Y-4.4
X6.2Y-1.925
X6.225Y-4.4
T8
X4.4545Y-2.5452
X4.4565Y-4.2629
X5.2911Y-2.5452
X5.2911Y-4.2629
T9
X3.875Y-2.5691
T0
M30
