%TF.GenerationSoftware,KiCad,Pcbnew,6.0.0*%
%TF.CreationDate,2022-01-15T13:24:47-05:00*%
%TF.ProjectId,wled-driver-nodemcu-v2,776c6564-2d64-4726-9976-65722d6e6f64,rev?*%
%TF.SameCoordinates,Original*%
%TF.FileFunction,Copper,L1,Top*%
%TF.FilePolarity,Positive*%
%FSLAX46Y46*%
G04 Gerber Fmt 4.6, Leading zero omitted, Abs format (unit mm)*
G04 Created by KiCad (PCBNEW 6.0.0) date 2022-01-15 13:24:47*
%MOMM*%
%LPD*%
G01*
G04 APERTURE LIST*
%TA.AperFunction,ComponentPad*%
%ADD10C,2.000000*%
%TD*%
%TA.AperFunction,ComponentPad*%
%ADD11O,1.400000X1.400000*%
%TD*%
%TA.AperFunction,ComponentPad*%
%ADD12C,1.400000*%
%TD*%
%TA.AperFunction,ComponentPad*%
%ADD13R,1.905000X2.000000*%
%TD*%
%TA.AperFunction,ComponentPad*%
%ADD14O,1.905000X2.000000*%
%TD*%
%TA.AperFunction,ComponentPad*%
%ADD15R,2.400000X2.400000*%
%TD*%
%TA.AperFunction,ComponentPad*%
%ADD16C,2.400000*%
%TD*%
%TA.AperFunction,ComponentPad*%
%ADD17O,2.032000X1.727200*%
%TD*%
%TA.AperFunction,ComponentPad*%
%ADD18C,1.524000*%
%TD*%
%TA.AperFunction,ComponentPad*%
%ADD19R,1.524000X1.524000*%
%TD*%
%TA.AperFunction,ComponentPad*%
%ADD20R,2.000000X2.000000*%
%TD*%
%TA.AperFunction,ViaPad*%
%ADD21C,0.800000*%
%TD*%
%TA.AperFunction,Conductor*%
%ADD22C,1.016000*%
%TD*%
%TA.AperFunction,Conductor*%
%ADD23C,0.254000*%
%TD*%
G04 APERTURE END LIST*
D10*
%TO.P,D5-GPIO14,2,2*%
%TO.N,GND*%
X152110000Y-102310000D03*
X152110000Y-95810000D03*
%TO.P,D5-GPIO14,1,1*%
%TO.N,Net-(D5-GPIO14-Pad1)*%
X147610000Y-95810000D03*
X147610000Y-102310000D03*
%TD*%
D11*
%TO.P,R1,2*%
%TO.N,+3V3*%
X142240000Y-95885000D03*
D12*
%TO.P,R1,1*%
%TO.N,Net-(D5-GPIO14-Pad1)*%
X142240000Y-100965000D03*
%TD*%
D11*
%TO.P,R2,2*%
%TO.N,Net-(D6-GPIO12-Pad1)*%
X142240000Y-89535000D03*
D12*
%TO.P,R2,1*%
%TO.N,+3V3*%
X142240000Y-84455000D03*
%TD*%
D10*
%TO.P,D6-GPIO12,2,2*%
%TO.N,GND*%
X152110000Y-84380000D03*
X152110000Y-90880000D03*
%TO.P,D6-GPIO12,1,1*%
%TO.N,Net-(D6-GPIO12-Pad1)*%
X147610000Y-84380000D03*
X147610000Y-90880000D03*
%TD*%
D13*
%TO.P,L7805,1,IN*%
%TO.N,+12V*%
X95885000Y-81915000D03*
D14*
%TO.P,L7805,2,GND*%
%TO.N,GND*%
X98425000Y-81915000D03*
%TO.P,L7805,3,OUT*%
%TO.N,+5V*%
X100965000Y-81915000D03*
%TD*%
D15*
%TO.P,D4-GPIO2,1,Pin_1*%
%TO.N,+12V*%
X149145000Y-49195000D03*
D16*
%TO.P,D4-GPIO2,2,Pin_2*%
%TO.N,Net-(D4-GPIO2-Pad2)*%
X144145000Y-49195000D03*
%TO.P,D4-GPIO2,3,Pin_3*%
%TO.N,GND*%
X139145000Y-49195000D03*
%TD*%
D17*
%TO.P,NodeMCU1Amica1,1,A0*%
%TO.N,unconnected-(NodeMCU1Amica1-Pad1)*%
X112395000Y-68897500D03*
%TO.P,NodeMCU1Amica1,2,RSV*%
%TO.N,unconnected-(NodeMCU1Amica1-Pad2)*%
X112395000Y-71437500D03*
%TO.P,NodeMCU1Amica1,3,RSV*%
%TO.N,unconnected-(NodeMCU1Amica1-Pad3)*%
X112395000Y-73977500D03*
%TO.P,NodeMCU1Amica1,4,SD3*%
%TO.N,unconnected-(NodeMCU1Amica1-Pad4)*%
X112395000Y-76517500D03*
%TO.P,NodeMCU1Amica1,5,SD2*%
%TO.N,unconnected-(NodeMCU1Amica1-Pad5)*%
X112395000Y-79057500D03*
%TO.P,NodeMCU1Amica1,6,SD1*%
%TO.N,unconnected-(NodeMCU1Amica1-Pad6)*%
X112395000Y-81597500D03*
%TO.P,NodeMCU1Amica1,7,CMD*%
%TO.N,unconnected-(NodeMCU1Amica1-Pad7)*%
X112395000Y-84137500D03*
%TO.P,NodeMCU1Amica1,8,SD0*%
%TO.N,unconnected-(NodeMCU1Amica1-Pad8)*%
X112395000Y-86677500D03*
%TO.P,NodeMCU1Amica1,9,CLK*%
%TO.N,unconnected-(NodeMCU1Amica1-Pad9)*%
X112395000Y-89217500D03*
%TO.P,NodeMCU1Amica1,10,GND*%
%TO.N,GND*%
X112395000Y-91757500D03*
%TO.P,NodeMCU1Amica1,11,3V3*%
%TO.N,+3V3*%
X112395000Y-94297500D03*
%TO.P,NodeMCU1Amica1,12,EN*%
%TO.N,unconnected-(NodeMCU1Amica1-Pad12)*%
X112395000Y-96837500D03*
%TO.P,NodeMCU1Amica1,13,RST*%
%TO.N,unconnected-(NodeMCU1Amica1-Pad13)*%
X112395000Y-99377500D03*
%TO.P,NodeMCU1Amica1,14,GND*%
%TO.N,GND*%
X112395000Y-101917500D03*
%TO.P,NodeMCU1Amica1,15,Vin*%
%TO.N,+5V*%
X112395000Y-104457500D03*
%TO.P,NodeMCU1Amica1,16,3V3*%
%TO.N,+3V3*%
X135255000Y-104457500D03*
%TO.P,NodeMCU1Amica1,17,GND*%
%TO.N,GND*%
X135255000Y-101917500D03*
%TO.P,NodeMCU1Amica1,18,TX*%
%TO.N,unconnected-(NodeMCU1Amica1-Pad18)*%
X135255000Y-99377500D03*
%TO.P,NodeMCU1Amica1,19,RX*%
%TO.N,unconnected-(NodeMCU1Amica1-Pad19)*%
X135255000Y-96837500D03*
%TO.P,NodeMCU1Amica1,20,D8*%
%TO.N,unconnected-(NodeMCU1Amica1-Pad20)*%
X135255000Y-94297500D03*
%TO.P,NodeMCU1Amica1,21,D7*%
%TO.N,unconnected-(NodeMCU1Amica1-Pad21)*%
X135255000Y-91757500D03*
%TO.P,NodeMCU1Amica1,22,D6*%
%TO.N,Net-(D6-GPIO12-Pad1)*%
X135255000Y-89217500D03*
%TO.P,NodeMCU1Amica1,23,D5*%
%TO.N,Net-(D5-GPIO14-Pad1)*%
X135255000Y-86677500D03*
%TO.P,NodeMCU1Amica1,24,GND*%
%TO.N,GND*%
X135255000Y-84137500D03*
%TO.P,NodeMCU1Amica1,25,3V3*%
%TO.N,+3V3*%
X135255000Y-81597500D03*
%TO.P,NodeMCU1Amica1,26,D4*%
%TO.N,Net-(LevelShifter-1-PadLV4)*%
X135255000Y-79057500D03*
%TO.P,NodeMCU1Amica1,27,D3*%
%TO.N,unconnected-(NodeMCU1Amica1-Pad27)*%
X135255000Y-76517500D03*
%TO.P,NodeMCU1Amica1,28,D2*%
%TO.N,Net-(LevelShifter-1-PadLV2)*%
X135255000Y-73977500D03*
%TO.P,NodeMCU1Amica1,29,D1*%
%TO.N,Net-(LevelShifter-1-PadLV1)*%
X135255000Y-71437500D03*
%TO.P,NodeMCU1Amica1,30,D0*%
%TO.N,unconnected-(NodeMCU1Amica1-Pad30)*%
X135255000Y-68897500D03*
%TD*%
D18*
%TO.P,LevelShifter-1,GND_1,GND*%
%TO.N,GND*%
X155575000Y-71755000D03*
%TO.P,LevelShifter-1,GND_2,GND*%
X145415000Y-71755000D03*
%TO.P,LevelShifter-1,HV,HV*%
%TO.N,+5V*%
X155575000Y-69215000D03*
D19*
%TO.P,LevelShifter-1,HV1,HV1*%
%TO.N,Net-(D1-GPIO5-Pad2)*%
X155575000Y-64135000D03*
D18*
%TO.P,LevelShifter-1,HV2,HV2*%
%TO.N,Net-(D2-GPIO4-Pad2)*%
X155575000Y-66675000D03*
%TO.P,LevelShifter-1,HV3,HV3*%
%TO.N,unconnected-(LevelShifter-1-PadHV3)*%
X155575000Y-74295000D03*
%TO.P,LevelShifter-1,HV4,HV4*%
%TO.N,Net-(D4-GPIO2-Pad2)*%
X155575000Y-76835000D03*
%TO.P,LevelShifter-1,LV,LV*%
%TO.N,+3V3*%
X145415000Y-69215000D03*
D19*
%TO.P,LevelShifter-1,LV1,LV1*%
%TO.N,Net-(LevelShifter-1-PadLV1)*%
X145415000Y-64135000D03*
D18*
%TO.P,LevelShifter-1,LV2,LV2*%
%TO.N,Net-(LevelShifter-1-PadLV2)*%
X145415000Y-66675000D03*
%TO.P,LevelShifter-1,LV3,LV3*%
%TO.N,unconnected-(LevelShifter-1-PadLV3)*%
X145415000Y-74295000D03*
%TO.P,LevelShifter-1,LV4,LV4*%
%TO.N,Net-(LevelShifter-1-PadLV4)*%
X145415000Y-76835000D03*
%TD*%
D20*
%TO.P,C1,1*%
%TO.N,+5V*%
X99060000Y-92537677D03*
D10*
%TO.P,C1,2*%
%TO.N,GND*%
X99060000Y-87537677D03*
%TD*%
D15*
%TO.P,VIn1,1,Pin_1*%
%TO.N,+12V*%
X99060000Y-99695000D03*
D16*
%TO.P,VIn1,2,Pin_2*%
%TO.N,GND*%
X99060000Y-104695000D03*
%TD*%
D15*
%TO.P,D1-GPIO5,1,Pin_1*%
%TO.N,+12V*%
X128190000Y-49195000D03*
D16*
%TO.P,D1-GPIO5,2,Pin_2*%
%TO.N,Net-(D1-GPIO5-Pad2)*%
X123190000Y-49195000D03*
%TO.P,D1-GPIO5,3,Pin_3*%
%TO.N,GND*%
X118190000Y-49195000D03*
%TD*%
D15*
%TO.P,D2-GPIO4,1,Pin_1*%
%TO.N,+12V*%
X107790000Y-49495000D03*
D16*
%TO.P,D2-GPIO4,2,Pin_2*%
%TO.N,Net-(D2-GPIO4-Pad2)*%
X102790000Y-49495000D03*
%TO.P,D2-GPIO4,3,Pin_3*%
%TO.N,GND*%
X97790000Y-49495000D03*
%TD*%
D21*
%TO.N,GND*%
X150495000Y-71755000D03*
%TD*%
D22*
%TO.N,GND*%
X135255000Y-84137500D02*
X135704482Y-84137500D01*
X135704482Y-84137500D02*
X137864493Y-86297511D01*
X137864493Y-86297511D02*
X143003194Y-86297511D01*
X143003194Y-86297511D02*
X145415000Y-83885705D01*
X145415000Y-83885705D02*
X145415000Y-83545031D01*
X145415000Y-83545031D02*
X146722542Y-82237489D01*
X149967489Y-82237489D02*
X152110000Y-84380000D01*
X146722542Y-82237489D02*
X149967489Y-82237489D01*
D23*
%TO.N,Net-(LevelShifter-1-PadLV4)*%
X135255000Y-79057500D02*
X143192500Y-79057500D01*
X143192500Y-79057500D02*
X145415000Y-76835000D01*
D22*
%TO.N,+5V*%
X99060000Y-92537677D02*
X110979823Y-104457500D01*
X110979823Y-104457500D02*
X112395000Y-104457500D01*
X100965000Y-81915000D02*
X101202511Y-82152511D01*
X101202511Y-82152511D02*
X101202511Y-90395166D01*
X101202511Y-90395166D02*
X99060000Y-92537677D01*
D23*
%TO.N,Net-(D5-GPIO14-Pad1)*%
X142240000Y-100965000D02*
X143585000Y-102310000D01*
X143585000Y-102310000D02*
X147610000Y-102310000D01*
X147610000Y-95810000D02*
X147610000Y-102310000D01*
%TO.N,Net-(D6-GPIO12-Pad1)*%
X147610000Y-84380000D02*
X147610000Y-90880000D01*
X147610000Y-90880000D02*
X143585000Y-90880000D01*
X143585000Y-90880000D02*
X142240000Y-89535000D01*
X135255000Y-89217500D02*
X141922500Y-89217500D01*
X141922500Y-89217500D02*
X142240000Y-89535000D01*
%TO.N,+3V3*%
X142240000Y-84455000D02*
X138112500Y-84455000D01*
X138112500Y-84455000D02*
X135255000Y-81597500D01*
D22*
%TO.N,+5V*%
X157480000Y-106954969D02*
X153309969Y-111125000D01*
X110837479Y-109254018D02*
X110837479Y-106015021D01*
X112708461Y-111125000D02*
X110837479Y-109254018D01*
X110837479Y-106015021D02*
X112395000Y-104457500D01*
X153309969Y-111125000D02*
X112708461Y-111125000D01*
X156652630Y-69215000D02*
X157480000Y-70042370D01*
X157480000Y-70042370D02*
X157480000Y-106954969D01*
X155575000Y-69215000D02*
X156652630Y-69215000D01*
D23*
%TO.N,Net-(D4-GPIO2-Pad2)*%
X155575000Y-76835000D02*
X154051489Y-75311489D01*
X154051489Y-75311489D02*
X154051489Y-59136489D01*
X144145000Y-49195000D02*
X154005000Y-59055000D01*
%TO.N,+3V3*%
X133477480Y-102679980D02*
X133477480Y-83375020D01*
X133477480Y-83375020D02*
X135255000Y-81597500D01*
X135255000Y-104457500D02*
X133477480Y-102679980D01*
%TD*%
%TA.AperFunction,NonConductor*%
G36*
X105987121Y-60345002D02*
G01*
X106033614Y-60398658D01*
X106045000Y-60451000D01*
X106045000Y-76074000D01*
X106024998Y-76142121D01*
X105971342Y-76188614D01*
X105919000Y-76200000D01*
X90931000Y-76200000D01*
X90862879Y-76179998D01*
X90816386Y-76126342D01*
X90805000Y-76074000D01*
X90805000Y-65255000D01*
X96034783Y-65255000D01*
X96053631Y-65554574D01*
X96109876Y-65849423D01*
X96202632Y-66134898D01*
X96204319Y-66138484D01*
X96204321Y-66138488D01*
X96328749Y-66402910D01*
X96328753Y-66402917D01*
X96330437Y-66406496D01*
X96491274Y-66659934D01*
X96682607Y-66891216D01*
X96901418Y-67096694D01*
X96904620Y-67099021D01*
X96904622Y-67099022D01*
X97141049Y-67270796D01*
X97141054Y-67270799D01*
X97144258Y-67273127D01*
X97407295Y-67417733D01*
X97559499Y-67477995D01*
X97682699Y-67526773D01*
X97682702Y-67526774D01*
X97686382Y-67528231D01*
X97690221Y-67529217D01*
X97690225Y-67529218D01*
X97825151Y-67563861D01*
X97977118Y-67602880D01*
X97981046Y-67603376D01*
X97981050Y-67603377D01*
X98126018Y-67621690D01*
X98274917Y-67640500D01*
X98575083Y-67640500D01*
X98723982Y-67621690D01*
X98868950Y-67603377D01*
X98868954Y-67603376D01*
X98872882Y-67602880D01*
X99024849Y-67563861D01*
X99159775Y-67529218D01*
X99159779Y-67529217D01*
X99163618Y-67528231D01*
X99167298Y-67526774D01*
X99167301Y-67526773D01*
X99290501Y-67477995D01*
X99442705Y-67417733D01*
X99705742Y-67273127D01*
X99708946Y-67270799D01*
X99708951Y-67270796D01*
X99945378Y-67099022D01*
X99945380Y-67099021D01*
X99948582Y-67096694D01*
X100167393Y-66891216D01*
X100358726Y-66659934D01*
X100519563Y-66406496D01*
X100521247Y-66402917D01*
X100521251Y-66402910D01*
X100645679Y-66138488D01*
X100645681Y-66138484D01*
X100647368Y-66134898D01*
X100740124Y-65849423D01*
X100796369Y-65554574D01*
X100815217Y-65255000D01*
X100796369Y-64955426D01*
X100740124Y-64660577D01*
X100647368Y-64375102D01*
X100645679Y-64371512D01*
X100521251Y-64107090D01*
X100521247Y-64107083D01*
X100519563Y-64103504D01*
X100358726Y-63850066D01*
X100167393Y-63618784D01*
X99948582Y-63413306D01*
X99945378Y-63410978D01*
X99708951Y-63239204D01*
X99708946Y-63239201D01*
X99705742Y-63236873D01*
X99442705Y-63092267D01*
X99290501Y-63032005D01*
X99167301Y-62983227D01*
X99167298Y-62983226D01*
X99163618Y-62981769D01*
X99159779Y-62980783D01*
X99159775Y-62980782D01*
X99024849Y-62946139D01*
X98872882Y-62907120D01*
X98868954Y-62906624D01*
X98868950Y-62906623D01*
X98723982Y-62888310D01*
X98575083Y-62869500D01*
X98274917Y-62869500D01*
X98126018Y-62888310D01*
X97981050Y-62906623D01*
X97981046Y-62906624D01*
X97977118Y-62907120D01*
X97825151Y-62946139D01*
X97690225Y-62980782D01*
X97690221Y-62980783D01*
X97686382Y-62981769D01*
X97682702Y-62983226D01*
X97682699Y-62983227D01*
X97559499Y-63032005D01*
X97407295Y-63092267D01*
X97144258Y-63236873D01*
X97141054Y-63239201D01*
X97141049Y-63239204D01*
X96904622Y-63410978D01*
X96901418Y-63413306D01*
X96682607Y-63618784D01*
X96491274Y-63850066D01*
X96330437Y-64103504D01*
X96328753Y-64107083D01*
X96328749Y-64107090D01*
X96204321Y-64371512D01*
X96202632Y-64375102D01*
X96109876Y-64660577D01*
X96053631Y-64955426D01*
X96034783Y-65255000D01*
X90805000Y-65255000D01*
X90805000Y-60451000D01*
X90825002Y-60382879D01*
X90878658Y-60336386D01*
X90931000Y-60325000D01*
X105919000Y-60325000D01*
X105987121Y-60345002D01*
G37*
%TD.AperFunction*%
%TA.AperFunction,Conductor*%
%TO.N,GND*%
G36*
X159855389Y-41928215D02*
G01*
X159881445Y-41950505D01*
X160623179Y-42784956D01*
X160653486Y-42849159D01*
X160655005Y-42868666D01*
X160655003Y-62782919D01*
X160655000Y-109167810D01*
X160634998Y-109235931D01*
X160618095Y-109256905D01*
X159535196Y-110339804D01*
X159472884Y-110373830D01*
X159402069Y-110368765D01*
X159360094Y-110342787D01*
X159302191Y-110288698D01*
X159146705Y-110180833D01*
X159081118Y-110135333D01*
X159081113Y-110135330D01*
X159077365Y-110132730D01*
X159073280Y-110130698D01*
X159073277Y-110130696D01*
X158954871Y-110071790D01*
X158832378Y-110010851D01*
X158828044Y-110009430D01*
X158828041Y-110009429D01*
X158688978Y-109963842D01*
X158572364Y-109925614D01*
X158302768Y-109878805D01*
X158268984Y-109877123D01*
X158217867Y-109874578D01*
X158217859Y-109874578D01*
X158216296Y-109874500D01*
X158045497Y-109874500D01*
X158043229Y-109874665D01*
X158043217Y-109874665D01*
X157911388Y-109884231D01*
X157842088Y-109889259D01*
X157837633Y-109890243D01*
X157837630Y-109890243D01*
X157579354Y-109947265D01*
X157579350Y-109947266D01*
X157574894Y-109948250D01*
X157494731Y-109978621D01*
X157323284Y-110043576D01*
X157323281Y-110043577D01*
X157319014Y-110045194D01*
X157079808Y-110178061D01*
X156862288Y-110344067D01*
X156859095Y-110347333D01*
X156859093Y-110347335D01*
X156674206Y-110536465D01*
X156674202Y-110536470D01*
X156671011Y-110539734D01*
X156509983Y-110760965D01*
X156382577Y-111003123D01*
X156291463Y-111261137D01*
X156290583Y-111265603D01*
X156255280Y-111444717D01*
X156238549Y-111529601D01*
X156238322Y-111534154D01*
X156238322Y-111534157D01*
X156226039Y-111780900D01*
X156224944Y-111802891D01*
X156250932Y-112075283D01*
X156252017Y-112079717D01*
X156252018Y-112079723D01*
X156314885Y-112336637D01*
X156315970Y-112341071D01*
X156418694Y-112594686D01*
X156420998Y-112598621D01*
X156421001Y-112598627D01*
X156554648Y-112826877D01*
X156556954Y-112830815D01*
X156673521Y-112976575D01*
X156703036Y-113013482D01*
X156729960Y-113079176D01*
X156717094Y-113148997D01*
X156693728Y-113181272D01*
X154976905Y-114898095D01*
X154914593Y-114932121D01*
X154887810Y-114935000D01*
X89272254Y-114935000D01*
X89204133Y-114914998D01*
X89178080Y-114892710D01*
X88931826Y-114615674D01*
X88901519Y-114551471D01*
X88900000Y-114531964D01*
X88900000Y-111802891D01*
X89549944Y-111802891D01*
X89575932Y-112075283D01*
X89577017Y-112079717D01*
X89577018Y-112079723D01*
X89639885Y-112336637D01*
X89640970Y-112341071D01*
X89743694Y-112594686D01*
X89745998Y-112598621D01*
X89746001Y-112598627D01*
X89879648Y-112826877D01*
X89881954Y-112830815D01*
X90052852Y-113044513D01*
X90252809Y-113231302D01*
X90346782Y-113296494D01*
X90473882Y-113384667D01*
X90473887Y-113384670D01*
X90477635Y-113387270D01*
X90481720Y-113389302D01*
X90481723Y-113389304D01*
X90600129Y-113448210D01*
X90722622Y-113509149D01*
X90726956Y-113510570D01*
X90726959Y-113510571D01*
X90866023Y-113556158D01*
X90982636Y-113594386D01*
X91252232Y-113641195D01*
X91286016Y-113642877D01*
X91337133Y-113645422D01*
X91337141Y-113645422D01*
X91338704Y-113645500D01*
X91509503Y-113645500D01*
X91511771Y-113645335D01*
X91511783Y-113645335D01*
X91643612Y-113635769D01*
X91712912Y-113630741D01*
X91717367Y-113629757D01*
X91717370Y-113629757D01*
X91975646Y-113572735D01*
X91975650Y-113572734D01*
X91980106Y-113571750D01*
X92150708Y-113507115D01*
X92231716Y-113476424D01*
X92231719Y-113476423D01*
X92235986Y-113474806D01*
X92475192Y-113341939D01*
X92692712Y-113175933D01*
X92719044Y-113148997D01*
X92880794Y-112983535D01*
X92880798Y-112983530D01*
X92883989Y-112980266D01*
X93045017Y-112759035D01*
X93172423Y-112516877D01*
X93263537Y-112258863D01*
X93295095Y-112098750D01*
X93315570Y-111994871D01*
X93315571Y-111994865D01*
X93316451Y-111990399D01*
X93320054Y-111918027D01*
X93329829Y-111721678D01*
X93329829Y-111721672D01*
X93330056Y-111717109D01*
X93304068Y-111444717D01*
X93239030Y-111178929D01*
X93136306Y-110925314D01*
X93134002Y-110921379D01*
X93133999Y-110921373D01*
X93000352Y-110693123D01*
X93000351Y-110693121D01*
X92998046Y-110689185D01*
X92827148Y-110475487D01*
X92627191Y-110288698D01*
X92471705Y-110180833D01*
X92406118Y-110135333D01*
X92406113Y-110135330D01*
X92402365Y-110132730D01*
X92398280Y-110130698D01*
X92398277Y-110130696D01*
X92279871Y-110071790D01*
X92157378Y-110010851D01*
X92153044Y-110009430D01*
X92153041Y-110009429D01*
X92013978Y-109963842D01*
X91897364Y-109925614D01*
X91627768Y-109878805D01*
X91593984Y-109877123D01*
X91542867Y-109874578D01*
X91542859Y-109874578D01*
X91541296Y-109874500D01*
X91370497Y-109874500D01*
X91368229Y-109874665D01*
X91368217Y-109874665D01*
X91236388Y-109884231D01*
X91167088Y-109889259D01*
X91162633Y-109890243D01*
X91162630Y-109890243D01*
X90904354Y-109947265D01*
X90904350Y-109947266D01*
X90899894Y-109948250D01*
X90819731Y-109978621D01*
X90648284Y-110043576D01*
X90648281Y-110043577D01*
X90644014Y-110045194D01*
X90404808Y-110178061D01*
X90187288Y-110344067D01*
X90184095Y-110347333D01*
X90184093Y-110347335D01*
X89999206Y-110536465D01*
X89999202Y-110536470D01*
X89996011Y-110539734D01*
X89834983Y-110760965D01*
X89707577Y-111003123D01*
X89616463Y-111261137D01*
X89615583Y-111265603D01*
X89580280Y-111444717D01*
X89563549Y-111529601D01*
X89563322Y-111534154D01*
X89563322Y-111534157D01*
X89551039Y-111780900D01*
X89549944Y-111802891D01*
X88900000Y-111802891D01*
X88900000Y-106068359D01*
X98051386Y-106068359D01*
X98060099Y-106079879D01*
X98148586Y-106144760D01*
X98156505Y-106149708D01*
X98372877Y-106263547D01*
X98381451Y-106267275D01*
X98612282Y-106347885D01*
X98621291Y-106350299D01*
X98861518Y-106395908D01*
X98870775Y-106396962D01*
X99115107Y-106406563D01*
X99124420Y-106406237D01*
X99367478Y-106379618D01*
X99376655Y-106377917D01*
X99613107Y-106315665D01*
X99621926Y-106312628D01*
X99846584Y-106216107D01*
X99854856Y-106211800D01*
X100062777Y-106083135D01*
X100064620Y-106081796D01*
X100072038Y-106070541D01*
X100065974Y-106060184D01*
X99072812Y-105067022D01*
X99058868Y-105059408D01*
X99057035Y-105059539D01*
X99050420Y-105063790D01*
X98058044Y-106056166D01*
X98051386Y-106068359D01*
X88900000Y-106068359D01*
X88900000Y-104654835D01*
X97348022Y-104654835D01*
X97359754Y-104899064D01*
X97360891Y-104908324D01*
X97408593Y-105148143D01*
X97411082Y-105157118D01*
X97493708Y-105387250D01*
X97497505Y-105395778D01*
X97613234Y-105611160D01*
X97618245Y-105619027D01*
X97675173Y-105695263D01*
X97686431Y-105703712D01*
X97698850Y-105696940D01*
X98687978Y-104707812D01*
X98694356Y-104696132D01*
X99424408Y-104696132D01*
X99424539Y-104697965D01*
X99428790Y-104704580D01*
X100423732Y-105699522D01*
X100436112Y-105706282D01*
X100444453Y-105700038D01*
X100562700Y-105516202D01*
X100567147Y-105508011D01*
X100667572Y-105285076D01*
X100670767Y-105276298D01*
X100737135Y-105040973D01*
X100738993Y-105031844D01*
X100770044Y-104787770D01*
X100770525Y-104781483D01*
X100772706Y-104698160D01*
X100772555Y-104691851D01*
X100754321Y-104446486D01*
X100752944Y-104437280D01*
X100698979Y-104198786D01*
X100696255Y-104189875D01*
X100607633Y-103961983D01*
X100603619Y-103953567D01*
X100482284Y-103741276D01*
X100477074Y-103733553D01*
X100445787Y-103693865D01*
X100433863Y-103685395D01*
X100422328Y-103691882D01*
X99432022Y-104682188D01*
X99424408Y-104696132D01*
X98694356Y-104696132D01*
X98695592Y-104693868D01*
X98695461Y-104692035D01*
X98691210Y-104685420D01*
X97696828Y-103691038D01*
X97683520Y-103683771D01*
X97673481Y-103690893D01*
X97668581Y-103696784D01*
X97663168Y-103704373D01*
X97536322Y-103913409D01*
X97532084Y-103921726D01*
X97437529Y-104147214D01*
X97434572Y-104156052D01*
X97374384Y-104393042D01*
X97372763Y-104402232D01*
X97348267Y-104645510D01*
X97348022Y-104654835D01*
X88900000Y-104654835D01*
X88900000Y-103319917D01*
X98049330Y-103319917D01*
X98053903Y-103329693D01*
X99047188Y-104322978D01*
X99061132Y-104330592D01*
X99062965Y-104330461D01*
X99069580Y-104326210D01*
X100062488Y-103333302D01*
X100068872Y-103321612D01*
X100059460Y-103309502D01*
X99933144Y-103221873D01*
X99925116Y-103217145D01*
X99705810Y-103108995D01*
X99697177Y-103105507D01*
X99464288Y-103030958D01*
X99455238Y-103028785D01*
X99213891Y-102989480D01*
X99204602Y-102988668D01*
X98960114Y-102985467D01*
X98950803Y-102986037D01*
X98708522Y-103019010D01*
X98699403Y-103020948D01*
X98464668Y-103089367D01*
X98455915Y-103092639D01*
X98233869Y-103195004D01*
X98225714Y-103199524D01*
X98058468Y-103309175D01*
X98049330Y-103319917D01*
X88900000Y-103319917D01*
X88900000Y-98430819D01*
X97224500Y-98430819D01*
X97224501Y-100959180D01*
X97226015Y-100978423D01*
X97226153Y-100980173D01*
X97227335Y-100995204D01*
X97229130Y-101001381D01*
X97229131Y-101001387D01*
X97258480Y-101102407D01*
X97272131Y-101149393D01*
X97353865Y-101287598D01*
X97467402Y-101401135D01*
X97474223Y-101405169D01*
X97546456Y-101447887D01*
X97605607Y-101482869D01*
X97613218Y-101485080D01*
X97613220Y-101485081D01*
X97753619Y-101525871D01*
X97753624Y-101525872D01*
X97759796Y-101527665D01*
X97781419Y-101529367D01*
X97793362Y-101530307D01*
X97793371Y-101530307D01*
X97795819Y-101530500D01*
X99058976Y-101530500D01*
X100324180Y-101530499D01*
X100343423Y-101528985D01*
X100353786Y-101528170D01*
X100353787Y-101528170D01*
X100360204Y-101527665D01*
X100366384Y-101525870D01*
X100366387Y-101525869D01*
X100506780Y-101485081D01*
X100506782Y-101485080D01*
X100514393Y-101482869D01*
X100573545Y-101447887D01*
X100645777Y-101405169D01*
X100652598Y-101401135D01*
X100766135Y-101287598D01*
X100847869Y-101149393D01*
X100861520Y-101102407D01*
X100890871Y-101001381D01*
X100890872Y-101001376D01*
X100892665Y-100995204D01*
X100895058Y-100964795D01*
X100895307Y-100961638D01*
X100895307Y-100961629D01*
X100895500Y-100959181D01*
X100895499Y-98430820D01*
X100892665Y-98394796D01*
X100889219Y-98382932D01*
X100850081Y-98248220D01*
X100850080Y-98248218D01*
X100847869Y-98240607D01*
X100766135Y-98102402D01*
X100652598Y-97988865D01*
X100514393Y-97907131D01*
X100506782Y-97904920D01*
X100506780Y-97904919D01*
X100366381Y-97864129D01*
X100366376Y-97864128D01*
X100360204Y-97862335D01*
X100338581Y-97860633D01*
X100326638Y-97859693D01*
X100326629Y-97859693D01*
X100324181Y-97859500D01*
X99061024Y-97859500D01*
X97795820Y-97859501D01*
X97776577Y-97861015D01*
X97766214Y-97861830D01*
X97766213Y-97861830D01*
X97759796Y-97862335D01*
X97753616Y-97864130D01*
X97753613Y-97864131D01*
X97613220Y-97904919D01*
X97613218Y-97904920D01*
X97605607Y-97907131D01*
X97467402Y-97988865D01*
X97353865Y-98102402D01*
X97272131Y-98240607D01*
X97269920Y-98248218D01*
X97269919Y-98248220D01*
X97229129Y-98388619D01*
X97229128Y-98388624D01*
X97227335Y-98394796D01*
X97226831Y-98401206D01*
X97224694Y-98428356D01*
X97224500Y-98430819D01*
X88900000Y-98430819D01*
X88900000Y-91473496D01*
X97424500Y-91473496D01*
X97424501Y-93601857D01*
X97427335Y-93637881D01*
X97429130Y-93644061D01*
X97429131Y-93644064D01*
X97448285Y-93709993D01*
X97472131Y-93792070D01*
X97553865Y-93930275D01*
X97667402Y-94043812D01*
X97805607Y-94125546D01*
X97813218Y-94127757D01*
X97813220Y-94127758D01*
X97953619Y-94168548D01*
X97953624Y-94168549D01*
X97959796Y-94170342D01*
X97981419Y-94172044D01*
X97993362Y-94172984D01*
X97993371Y-94172984D01*
X97995819Y-94173177D01*
X98044718Y-94173177D01*
X99026156Y-94173176D01*
X99094277Y-94193178D01*
X99115251Y-94210081D01*
X109980489Y-105075319D01*
X110014515Y-105137631D01*
X110009450Y-105208446D01*
X109990345Y-105242418D01*
X109949681Y-105294002D01*
X109947603Y-105296568D01*
X109894745Y-105360121D01*
X109894741Y-105360126D01*
X109891053Y-105364561D01*
X109888234Y-105369595D01*
X109886165Y-105372605D01*
X109879971Y-105381875D01*
X109877928Y-105385020D01*
X109874351Y-105389558D01*
X109871663Y-105394666D01*
X109871661Y-105394670D01*
X109843685Y-105447845D01*
X109837409Y-105459775D01*
X109833167Y-105467837D01*
X109831597Y-105470727D01*
X109788364Y-105547925D01*
X109786507Y-105553397D01*
X109784993Y-105556797D01*
X109780606Y-105567008D01*
X109779184Y-105570442D01*
X109776497Y-105575548D01*
X109774785Y-105581062D01*
X109774784Y-105581064D01*
X109750267Y-105660020D01*
X109749248Y-105663156D01*
X109734609Y-105706282D01*
X109720810Y-105746933D01*
X109719981Y-105752646D01*
X109719138Y-105756159D01*
X109716646Y-105767172D01*
X109715888Y-105770739D01*
X109714175Y-105776255D01*
X109713497Y-105781983D01*
X109713496Y-105781988D01*
X109703776Y-105864119D01*
X109703349Y-105867361D01*
X109690654Y-105954918D01*
X109691827Y-105984776D01*
X109693882Y-106037075D01*
X109693979Y-106042022D01*
X109693979Y-109211213D01*
X109693709Y-109219454D01*
X109689473Y-109284079D01*
X109699878Y-109371991D01*
X109700215Y-109375204D01*
X109708310Y-109463297D01*
X109709878Y-109468857D01*
X109710540Y-109472430D01*
X109712729Y-109483433D01*
X109713497Y-109487046D01*
X109714176Y-109492783D01*
X109740417Y-109577294D01*
X109741333Y-109580391D01*
X109765356Y-109665567D01*
X109767914Y-109670755D01*
X109769239Y-109674206D01*
X109773380Y-109684584D01*
X109774783Y-109687970D01*
X109776497Y-109693491D01*
X109817696Y-109771798D01*
X109819171Y-109774694D01*
X109858308Y-109854055D01*
X109861766Y-109858686D01*
X109863729Y-109861889D01*
X109869652Y-109871276D01*
X109871661Y-109874369D01*
X109874350Y-109879481D01*
X109929135Y-109948974D01*
X109931106Y-109951544D01*
X109980595Y-110017819D01*
X109980602Y-110017826D01*
X109984052Y-110022447D01*
X109988286Y-110026361D01*
X109988288Y-110026363D01*
X110044451Y-110078279D01*
X110048017Y-110081709D01*
X111869619Y-111903312D01*
X111875256Y-111909330D01*
X111917955Y-111958019D01*
X111922486Y-111961591D01*
X111987415Y-112012777D01*
X111989978Y-112014853D01*
X112011009Y-112032344D01*
X112058000Y-112071426D01*
X112063038Y-112074247D01*
X112066025Y-112076300D01*
X112075353Y-112082533D01*
X112078464Y-112084553D01*
X112082998Y-112088128D01*
X112088105Y-112090815D01*
X112088116Y-112090822D01*
X112161274Y-112129312D01*
X112164173Y-112130885D01*
X112241365Y-112174114D01*
X112246825Y-112175967D01*
X112250125Y-112177437D01*
X112260514Y-112181900D01*
X112263877Y-112183293D01*
X112268988Y-112185982D01*
X112274504Y-112187695D01*
X112274507Y-112187696D01*
X112292362Y-112193240D01*
X112353491Y-112212222D01*
X112356550Y-112213215D01*
X112440373Y-112241669D01*
X112446087Y-112242498D01*
X112449599Y-112243341D01*
X112460612Y-112245833D01*
X112464179Y-112246591D01*
X112469695Y-112248304D01*
X112475423Y-112248982D01*
X112475428Y-112248983D01*
X112521175Y-112254397D01*
X112557579Y-112258706D01*
X112560801Y-112259130D01*
X112648358Y-112271825D01*
X112730515Y-112268597D01*
X112735462Y-112268500D01*
X153267164Y-112268500D01*
X153275405Y-112268770D01*
X153340030Y-112273006D01*
X153427942Y-112262601D01*
X153431155Y-112262264D01*
X153519248Y-112254169D01*
X153524808Y-112252601D01*
X153528381Y-112251939D01*
X153539384Y-112249750D01*
X153542997Y-112248982D01*
X153548734Y-112248303D01*
X153633245Y-112222062D01*
X153636342Y-112221146D01*
X153721518Y-112197123D01*
X153726706Y-112194565D01*
X153730157Y-112193240D01*
X153740535Y-112189099D01*
X153743922Y-112187696D01*
X153749442Y-112185982D01*
X153827715Y-112144801D01*
X153830651Y-112143305D01*
X153857470Y-112130079D01*
X153910006Y-112104171D01*
X153914637Y-112100713D01*
X153917840Y-112098750D01*
X153927227Y-112092827D01*
X153930320Y-112090818D01*
X153935432Y-112088129D01*
X154004925Y-112033344D01*
X154007495Y-112031373D01*
X154073770Y-111981884D01*
X154073777Y-111981877D01*
X154078398Y-111978427D01*
X154134232Y-111918026D01*
X154137661Y-111914461D01*
X158258304Y-107793818D01*
X158264322Y-107788181D01*
X158308680Y-107749280D01*
X158313019Y-107745475D01*
X158367793Y-107675996D01*
X158369853Y-107673452D01*
X158422728Y-107609877D01*
X158422735Y-107609867D01*
X158426425Y-107605430D01*
X158429250Y-107600386D01*
X158431351Y-107597328D01*
X158437552Y-107588048D01*
X158439555Y-107584964D01*
X158443128Y-107580432D01*
X158445812Y-107575331D01*
X158445815Y-107575326D01*
X158484319Y-107502140D01*
X158485894Y-107499240D01*
X158526290Y-107427109D01*
X158526291Y-107427107D01*
X158529114Y-107422066D01*
X158530972Y-107416591D01*
X158532481Y-107413202D01*
X158536889Y-107402943D01*
X158538294Y-107399551D01*
X158540982Y-107394442D01*
X158567214Y-107309963D01*
X158568230Y-107306833D01*
X158594810Y-107228532D01*
X158594810Y-107228530D01*
X158596668Y-107223058D01*
X158597498Y-107217334D01*
X158598365Y-107213722D01*
X158600830Y-107202831D01*
X158601591Y-107199253D01*
X158603304Y-107193735D01*
X158613703Y-107105868D01*
X158614134Y-107102595D01*
X158625997Y-107020785D01*
X158625997Y-107020781D01*
X158626825Y-107015072D01*
X158623597Y-106932915D01*
X158623500Y-106927968D01*
X158623500Y-70085175D01*
X158623770Y-70076934D01*
X158627628Y-70018075D01*
X158628006Y-70012309D01*
X158617602Y-69924411D01*
X158617259Y-69921136D01*
X158614588Y-69892068D01*
X158609169Y-69833091D01*
X158607599Y-69827525D01*
X158606914Y-69823829D01*
X158604756Y-69812980D01*
X158603983Y-69809344D01*
X158603304Y-69803605D01*
X158577069Y-69719114D01*
X158576140Y-69715978D01*
X158558894Y-69654829D01*
X158552123Y-69630821D01*
X158549565Y-69625633D01*
X158548240Y-69622182D01*
X158544099Y-69611804D01*
X158542696Y-69608417D01*
X158540982Y-69602897D01*
X158499801Y-69524624D01*
X158498305Y-69521688D01*
X158490672Y-69506210D01*
X158459171Y-69442333D01*
X158455713Y-69437702D01*
X158453750Y-69434499D01*
X158447827Y-69425112D01*
X158445818Y-69422019D01*
X158443129Y-69416907D01*
X158388344Y-69347414D01*
X158386373Y-69344844D01*
X158336884Y-69278569D01*
X158336877Y-69278562D01*
X158333427Y-69273941D01*
X158273026Y-69218107D01*
X158269461Y-69214678D01*
X157491479Y-68436696D01*
X157485842Y-68430678D01*
X157446946Y-68386326D01*
X157443136Y-68381981D01*
X157373648Y-68327202D01*
X157371083Y-68325124D01*
X157307530Y-68272266D01*
X157307525Y-68272262D01*
X157303090Y-68268574D01*
X157298056Y-68265755D01*
X157295046Y-68263686D01*
X157285776Y-68257492D01*
X157282631Y-68255449D01*
X157278093Y-68251872D01*
X157272985Y-68249184D01*
X157272981Y-68249182D01*
X157199814Y-68210688D01*
X157196914Y-68209113D01*
X157124769Y-68168709D01*
X157124767Y-68168708D01*
X157119726Y-68165885D01*
X157114254Y-68164028D01*
X157110854Y-68162514D01*
X157100643Y-68158127D01*
X157097209Y-68156705D01*
X157092103Y-68154018D01*
X157086589Y-68152306D01*
X157086587Y-68152305D01*
X157007631Y-68127788D01*
X157004495Y-68126769D01*
X156951350Y-68108729D01*
X156920718Y-68098331D01*
X156915005Y-68097502D01*
X156911492Y-68096659D01*
X156900479Y-68094167D01*
X156896912Y-68093409D01*
X156891396Y-68091696D01*
X156885668Y-68091018D01*
X156885663Y-68091017D01*
X156833263Y-68084816D01*
X156803512Y-68081294D01*
X156800290Y-68080870D01*
X156712733Y-68068175D01*
X156630576Y-68071403D01*
X156625629Y-68071500D01*
X156425162Y-68071500D01*
X156355429Y-68050444D01*
X156355068Y-68050204D01*
X156351015Y-68047003D01*
X156350587Y-68046767D01*
X156305794Y-67993448D01*
X156296766Y-67923028D01*
X156327243Y-67858905D01*
X156348026Y-67840285D01*
X156475916Y-67749062D01*
X156480119Y-67746064D01*
X156497757Y-67728488D01*
X156639237Y-67587500D01*
X156642898Y-67583852D01*
X156776997Y-67397233D01*
X156878816Y-67191217D01*
X156894739Y-67138808D01*
X156944117Y-66976291D01*
X156944118Y-66976285D01*
X156945621Y-66971339D01*
X156975616Y-66743502D01*
X156977290Y-66675000D01*
X156969630Y-66581836D01*
X156958884Y-66451121D01*
X156958883Y-66451115D01*
X156958460Y-66445970D01*
X156902477Y-66223090D01*
X156810843Y-66012347D01*
X156798190Y-65992788D01*
X156688830Y-65823743D01*
X156688828Y-65823740D01*
X156686020Y-65819400D01*
X156558843Y-65679634D01*
X156527791Y-65615789D01*
X156536187Y-65545290D01*
X156581364Y-65490522D01*
X156591460Y-65484982D01*
X156591393Y-65484869D01*
X156722777Y-65407169D01*
X156729598Y-65403135D01*
X156843135Y-65289598D01*
X156924869Y-65151393D01*
X156943727Y-65086483D01*
X156967871Y-65003381D01*
X156967872Y-65003376D01*
X156969665Y-64997204D01*
X156971367Y-64975581D01*
X156972307Y-64963638D01*
X156972307Y-64963629D01*
X156972500Y-64961181D01*
X156972499Y-63308820D01*
X156969665Y-63272796D01*
X156959229Y-63236873D01*
X156927081Y-63126220D01*
X156927080Y-63126218D01*
X156924869Y-63118607D01*
X156843135Y-62980402D01*
X156729598Y-62866865D01*
X156722777Y-62862831D01*
X156598216Y-62789166D01*
X156598215Y-62789166D01*
X156591393Y-62785131D01*
X156583782Y-62782920D01*
X156583780Y-62782919D01*
X156443381Y-62742129D01*
X156443376Y-62742128D01*
X156437204Y-62740335D01*
X156415581Y-62738633D01*
X156403638Y-62737693D01*
X156403629Y-62737693D01*
X156401181Y-62737500D01*
X156370677Y-62737500D01*
X154939989Y-62737501D01*
X154871868Y-62717499D01*
X154825375Y-62663843D01*
X154813989Y-62611501D01*
X154813989Y-59091964D01*
X154798590Y-58959882D01*
X154737923Y-58792748D01*
X154711333Y-58752192D01*
X154704351Y-58739557D01*
X154703013Y-58735425D01*
X154610773Y-58583419D01*
X154603333Y-58574995D01*
X145922080Y-49893742D01*
X145888054Y-49831430D01*
X145889906Y-49770445D01*
X145900290Y-49733627D01*
X145946955Y-49568167D01*
X145959921Y-49471637D01*
X145981131Y-49313728D01*
X145981132Y-49313720D01*
X145981558Y-49310546D01*
X145983770Y-49240164D01*
X145985088Y-49198222D01*
X145985088Y-49198217D01*
X145985189Y-49195000D01*
X145981097Y-49137198D01*
X145967146Y-48940164D01*
X145966831Y-48935715D01*
X145912122Y-48681604D01*
X145905850Y-48664601D01*
X145823695Y-48441913D01*
X145822154Y-48437736D01*
X145753069Y-48309699D01*
X145700836Y-48212893D01*
X145700836Y-48212892D01*
X145698723Y-48208977D01*
X145544291Y-47999893D01*
X145539479Y-47995004D01*
X145476294Y-47930819D01*
X147309500Y-47930819D01*
X147309501Y-50459180D01*
X147312335Y-50495204D01*
X147314130Y-50501381D01*
X147314131Y-50501387D01*
X147315553Y-50506282D01*
X147357131Y-50649393D01*
X147361166Y-50656215D01*
X147361166Y-50656216D01*
X147434570Y-50780335D01*
X147438865Y-50787598D01*
X147552402Y-50901135D01*
X147559223Y-50905169D01*
X147628370Y-50946062D01*
X147690607Y-50982869D01*
X147698218Y-50985080D01*
X147698220Y-50985081D01*
X147838619Y-51025871D01*
X147838624Y-51025872D01*
X147844796Y-51027665D01*
X147866419Y-51029367D01*
X147878362Y-51030307D01*
X147878371Y-51030307D01*
X147880819Y-51030500D01*
X149143976Y-51030500D01*
X150409180Y-51030499D01*
X150428423Y-51028985D01*
X150438786Y-51028170D01*
X150438787Y-51028170D01*
X150445204Y-51027665D01*
X150451384Y-51025870D01*
X150451387Y-51025869D01*
X150591780Y-50985081D01*
X150591782Y-50985080D01*
X150599393Y-50982869D01*
X150661631Y-50946062D01*
X150730777Y-50905169D01*
X150737598Y-50901135D01*
X150851135Y-50787598D01*
X150855430Y-50780335D01*
X150928834Y-50656216D01*
X150928834Y-50656215D01*
X150932869Y-50649393D01*
X150954007Y-50576636D01*
X150975871Y-50501381D01*
X150975872Y-50501376D01*
X150977665Y-50495204D01*
X150979476Y-50472197D01*
X150980307Y-50461638D01*
X150980307Y-50461629D01*
X150980500Y-50459181D01*
X150980499Y-48937891D01*
X155589944Y-48937891D01*
X155615932Y-49210283D01*
X155617017Y-49214717D01*
X155617018Y-49214723D01*
X155671458Y-49437198D01*
X155680970Y-49476071D01*
X155682682Y-49480297D01*
X155682683Y-49480301D01*
X155775042Y-49708324D01*
X155783694Y-49729686D01*
X155785998Y-49733621D01*
X155786001Y-49733627D01*
X155919648Y-49961877D01*
X155921954Y-49965815D01*
X156092852Y-50179513D01*
X156292809Y-50366302D01*
X156381388Y-50427752D01*
X156513882Y-50519667D01*
X156513887Y-50519670D01*
X156517635Y-50522270D01*
X156521720Y-50524302D01*
X156521723Y-50524304D01*
X156551770Y-50539252D01*
X156762622Y-50644149D01*
X156766956Y-50645570D01*
X156766959Y-50645571D01*
X156799432Y-50656216D01*
X157022636Y-50729386D01*
X157292232Y-50776195D01*
X157326016Y-50777877D01*
X157377133Y-50780422D01*
X157377141Y-50780422D01*
X157378704Y-50780500D01*
X157549503Y-50780500D01*
X157551771Y-50780335D01*
X157551783Y-50780335D01*
X157683612Y-50770769D01*
X157752912Y-50765741D01*
X157757367Y-50764757D01*
X157757370Y-50764757D01*
X158015646Y-50707735D01*
X158015650Y-50707734D01*
X158020106Y-50706750D01*
X158181586Y-50645571D01*
X158271716Y-50611424D01*
X158271719Y-50611423D01*
X158275986Y-50609806D01*
X158462365Y-50506282D01*
X158511199Y-50479157D01*
X158511200Y-50479156D01*
X158515192Y-50476939D01*
X158664238Y-50363191D01*
X158729080Y-50313705D01*
X158729081Y-50313704D01*
X158732712Y-50310933D01*
X158769932Y-50272859D01*
X158920794Y-50118535D01*
X158920798Y-50118530D01*
X158923989Y-50115266D01*
X159078348Y-49903198D01*
X159082330Y-49897727D01*
X159082332Y-49897724D01*
X159085017Y-49894035D01*
X159212423Y-49651877D01*
X159227019Y-49610546D01*
X159254811Y-49531844D01*
X159303537Y-49393863D01*
X159333831Y-49240164D01*
X159355570Y-49129871D01*
X159355571Y-49129865D01*
X159356451Y-49125399D01*
X159363393Y-48985956D01*
X159369829Y-48856678D01*
X159369829Y-48856672D01*
X159370056Y-48852109D01*
X159344068Y-48579717D01*
X159327717Y-48512893D01*
X159280115Y-48318363D01*
X159279030Y-48313929D01*
X159257198Y-48260027D01*
X159178021Y-48064547D01*
X159178018Y-48064542D01*
X159176306Y-48060314D01*
X159174002Y-48056379D01*
X159173999Y-48056373D01*
X159040352Y-47828123D01*
X159040351Y-47828121D01*
X159038046Y-47824185D01*
X158908208Y-47661830D01*
X158870000Y-47614053D01*
X158869998Y-47614051D01*
X158867148Y-47610487D01*
X158667191Y-47423698D01*
X158511705Y-47315833D01*
X158446118Y-47270333D01*
X158446113Y-47270330D01*
X158442365Y-47267730D01*
X158438280Y-47265698D01*
X158438277Y-47265696D01*
X158319872Y-47206791D01*
X158197378Y-47145851D01*
X158193044Y-47144430D01*
X158193041Y-47144429D01*
X158011350Y-47084868D01*
X157937364Y-47060614D01*
X157667768Y-47013805D01*
X157633984Y-47012123D01*
X157582867Y-47009578D01*
X157582859Y-47009578D01*
X157581296Y-47009500D01*
X157410497Y-47009500D01*
X157408229Y-47009665D01*
X157408217Y-47009665D01*
X157276388Y-47019231D01*
X157207088Y-47024259D01*
X157202633Y-47025243D01*
X157202630Y-47025243D01*
X156944354Y-47082265D01*
X156944350Y-47082266D01*
X156939894Y-47083250D01*
X156811954Y-47131722D01*
X156688284Y-47178576D01*
X156688281Y-47178577D01*
X156684014Y-47180194D01*
X156444808Y-47313061D01*
X156371090Y-47369321D01*
X156284827Y-47435155D01*
X156227288Y-47479067D01*
X156224095Y-47482333D01*
X156224093Y-47482335D01*
X156039206Y-47671465D01*
X156039202Y-47671470D01*
X156036011Y-47674734D01*
X155954997Y-47786037D01*
X155879786Y-47889367D01*
X155874983Y-47895965D01*
X155747577Y-48138123D01*
X155746059Y-48142422D01*
X155746058Y-48142424D01*
X155729747Y-48188613D01*
X155656463Y-48396137D01*
X155649036Y-48433818D01*
X155620280Y-48579717D01*
X155603549Y-48664601D01*
X155603322Y-48669154D01*
X155603322Y-48669157D01*
X155590519Y-48926350D01*
X155589944Y-48937891D01*
X150980499Y-48937891D01*
X150980499Y-47930820D01*
X150977665Y-47894796D01*
X150959800Y-47833302D01*
X150935081Y-47748220D01*
X150935080Y-47748218D01*
X150932869Y-47740607D01*
X150866610Y-47628568D01*
X150855169Y-47609223D01*
X150851135Y-47602402D01*
X150737598Y-47488865D01*
X150726556Y-47482335D01*
X150606216Y-47411166D01*
X150606215Y-47411166D01*
X150599393Y-47407131D01*
X150591782Y-47404920D01*
X150591780Y-47404919D01*
X150451381Y-47364129D01*
X150451376Y-47364128D01*
X150445204Y-47362335D01*
X150423581Y-47360633D01*
X150411638Y-47359693D01*
X150411629Y-47359693D01*
X150409181Y-47359500D01*
X149146024Y-47359500D01*
X147880820Y-47359501D01*
X147861577Y-47361015D01*
X147851214Y-47361830D01*
X147851213Y-47361830D01*
X147844796Y-47362335D01*
X147838616Y-47364130D01*
X147838613Y-47364131D01*
X147698220Y-47404919D01*
X147698218Y-47404920D01*
X147690607Y-47407131D01*
X147683785Y-47411166D01*
X147683784Y-47411166D01*
X147563444Y-47482335D01*
X147552402Y-47488865D01*
X147438865Y-47602402D01*
X147434831Y-47609223D01*
X147423391Y-47628568D01*
X147357131Y-47740607D01*
X147354920Y-47748218D01*
X147354919Y-47748220D01*
X147314129Y-47888619D01*
X147314128Y-47888624D01*
X147312335Y-47894796D01*
X147311492Y-47905507D01*
X147309694Y-47928356D01*
X147309500Y-47930819D01*
X145476294Y-47930819D01*
X145438348Y-47892273D01*
X145361939Y-47814654D01*
X145358399Y-47811953D01*
X145358393Y-47811947D01*
X145158847Y-47659658D01*
X145158843Y-47659655D01*
X145155306Y-47656956D01*
X145069665Y-47608995D01*
X144932404Y-47532125D01*
X144932398Y-47532122D01*
X144928514Y-47529947D01*
X144924356Y-47528339D01*
X144924351Y-47528336D01*
X144690245Y-47437767D01*
X144690239Y-47437765D01*
X144686090Y-47436160D01*
X144681758Y-47435156D01*
X144681755Y-47435155D01*
X144551306Y-47404919D01*
X144432869Y-47377467D01*
X144173904Y-47355038D01*
X144169469Y-47355282D01*
X144169465Y-47355282D01*
X144064358Y-47361067D01*
X143914363Y-47369321D01*
X143910000Y-47370189D01*
X143909999Y-47370189D01*
X143663792Y-47419163D01*
X143663790Y-47419164D01*
X143659424Y-47420032D01*
X143414173Y-47506158D01*
X143183504Y-47625981D01*
X143179889Y-47628564D01*
X143179883Y-47628568D01*
X142975640Y-47774522D01*
X142975636Y-47774525D01*
X142972019Y-47777110D01*
X142783939Y-47956530D01*
X142781183Y-47960026D01*
X142781182Y-47960027D01*
X142640782Y-48138123D01*
X142623015Y-48160660D01*
X142620779Y-48164509D01*
X142620778Y-48164511D01*
X142592676Y-48212893D01*
X142492460Y-48385429D01*
X142490792Y-48389546D01*
X142490789Y-48389553D01*
X142448538Y-48493865D01*
X142394876Y-48626350D01*
X142332213Y-48878618D01*
X142305719Y-49137198D01*
X142315924Y-49396932D01*
X142362624Y-49652636D01*
X142444887Y-49899210D01*
X142471583Y-49952636D01*
X142556414Y-50122409D01*
X142561072Y-50131732D01*
X142708861Y-50345565D01*
X142718580Y-50356079D01*
X142874086Y-50524304D01*
X142885304Y-50536440D01*
X142888758Y-50539252D01*
X143083425Y-50697736D01*
X143083429Y-50697739D01*
X143086882Y-50700550D01*
X143090704Y-50702851D01*
X143278088Y-50815665D01*
X143309572Y-50834620D01*
X143369943Y-50860184D01*
X143544828Y-50934239D01*
X143544833Y-50934241D01*
X143548931Y-50935976D01*
X143553228Y-50937115D01*
X143553233Y-50937117D01*
X143674557Y-50969285D01*
X143800183Y-51002594D01*
X144058315Y-51033146D01*
X144318177Y-51027022D01*
X144383754Y-51016107D01*
X144570194Y-50985075D01*
X144570198Y-50985074D01*
X144574584Y-50984344D01*
X144578825Y-50983003D01*
X144578828Y-50983002D01*
X144715417Y-50939804D01*
X144786398Y-50938334D01*
X144842506Y-50970844D01*
X153252084Y-59380422D01*
X153286110Y-59442734D01*
X153288989Y-59469517D01*
X153288989Y-75244113D01*
X153287556Y-75263063D01*
X153285365Y-75277462D01*
X153285365Y-75277468D01*
X153284265Y-75284697D01*
X153284858Y-75291989D01*
X153284858Y-75291992D01*
X153288574Y-75337672D01*
X153288989Y-75347887D01*
X153288989Y-75356014D01*
X153292300Y-75384413D01*
X153292727Y-75388733D01*
X153298680Y-75461915D01*
X153300936Y-75468877D01*
X153302132Y-75474865D01*
X153303540Y-75480822D01*
X153304388Y-75488096D01*
X153306886Y-75494978D01*
X153306887Y-75494982D01*
X153329434Y-75557096D01*
X153330844Y-75561200D01*
X153353476Y-75631064D01*
X153357276Y-75637327D01*
X153359814Y-75642869D01*
X153362556Y-75648345D01*
X153365055Y-75655230D01*
X153369070Y-75661354D01*
X153405304Y-75716621D01*
X153407619Y-75720289D01*
X153445716Y-75783070D01*
X153449430Y-75787275D01*
X153449432Y-75787278D01*
X153453156Y-75791494D01*
X153453127Y-75791520D01*
X153455727Y-75794451D01*
X153458531Y-75797805D01*
X153462543Y-75803924D01*
X153467855Y-75808956D01*
X153519075Y-75857477D01*
X153521517Y-75859855D01*
X154158465Y-76496803D01*
X154192491Y-76559115D01*
X154194657Y-76599287D01*
X154187726Y-76664150D01*
X154173129Y-76800739D01*
X154186357Y-77030161D01*
X154187492Y-77035198D01*
X154187493Y-77035204D01*
X154218594Y-77173211D01*
X154236878Y-77254342D01*
X154323336Y-77467261D01*
X154326033Y-77471662D01*
X154326034Y-77471664D01*
X154375628Y-77552594D01*
X154443408Y-77663200D01*
X154593869Y-77836898D01*
X154597844Y-77840198D01*
X154597847Y-77840201D01*
X154647864Y-77881726D01*
X154770679Y-77983689D01*
X154969090Y-78099631D01*
X154973910Y-78101471D01*
X154973915Y-78101474D01*
X155080296Y-78142096D01*
X155183774Y-78181610D01*
X155188842Y-78182641D01*
X155188845Y-78182642D01*
X155299534Y-78205162D01*
X155408963Y-78227426D01*
X155414136Y-78227616D01*
X155414139Y-78227616D01*
X155633448Y-78235657D01*
X155633452Y-78235657D01*
X155638612Y-78235846D01*
X155643732Y-78235190D01*
X155643734Y-78235190D01*
X155861425Y-78207304D01*
X155861428Y-78207303D01*
X155866552Y-78206647D01*
X156086663Y-78140610D01*
X156155068Y-78107099D01*
X156225042Y-78095093D01*
X156290399Y-78122823D01*
X156330389Y-78181486D01*
X156336500Y-78220251D01*
X156336500Y-106429125D01*
X156316498Y-106497246D01*
X156299595Y-106518220D01*
X152873221Y-109944595D01*
X152810909Y-109978621D01*
X152784126Y-109981500D01*
X136152811Y-109981500D01*
X136084690Y-109961498D01*
X136038197Y-109907842D01*
X136028093Y-109837568D01*
X136057143Y-109773502D01*
X136186321Y-109622788D01*
X136186324Y-109622784D01*
X136189041Y-109619614D01*
X136191315Y-109616112D01*
X136191319Y-109616107D01*
X136348506Y-109374061D01*
X136348509Y-109374056D01*
X136350785Y-109370551D01*
X136478167Y-109102284D01*
X136568950Y-108819527D01*
X136621540Y-108527246D01*
X136630562Y-108328574D01*
X136634823Y-108234748D01*
X136634823Y-108234743D01*
X136635012Y-108230578D01*
X136609129Y-107934735D01*
X136577631Y-107793818D01*
X136545258Y-107648992D01*
X136545257Y-107648989D01*
X136544346Y-107644913D01*
X136441801Y-107366205D01*
X136439857Y-107362517D01*
X136439853Y-107362509D01*
X136305250Y-107107212D01*
X136305249Y-107107211D01*
X136303297Y-107103508D01*
X136131265Y-106861436D01*
X135928730Y-106644244D01*
X135699248Y-106455745D01*
X135446852Y-106299253D01*
X135220501Y-106197527D01*
X135166566Y-106151359D01*
X135146153Y-106083360D01*
X135165744Y-106015120D01*
X135219119Y-105968304D01*
X135272151Y-105956600D01*
X135469894Y-105956600D01*
X135472467Y-105956388D01*
X135472478Y-105956388D01*
X135647930Y-105941963D01*
X135647936Y-105941962D01*
X135653081Y-105941539D01*
X135826148Y-105898068D01*
X135887153Y-105882745D01*
X135887157Y-105882744D01*
X135892164Y-105881486D01*
X135896897Y-105879428D01*
X135896900Y-105879427D01*
X136113492Y-105785250D01*
X136113495Y-105785248D01*
X136118229Y-105783190D01*
X136254144Y-105695263D01*
X136320861Y-105652102D01*
X136320864Y-105652100D01*
X136325204Y-105649292D01*
X136347036Y-105629427D01*
X136503708Y-105486866D01*
X136503710Y-105486864D01*
X136507530Y-105483388D01*
X136510729Y-105479337D01*
X136510733Y-105479333D01*
X136657111Y-105293986D01*
X136660312Y-105289933D01*
X136662994Y-105285076D01*
X136776950Y-105078644D01*
X136776951Y-105078641D01*
X136779446Y-105074122D01*
X136861732Y-104841751D01*
X136904962Y-104599061D01*
X136907367Y-104402232D01*
X136907911Y-104357740D01*
X136907911Y-104357738D01*
X136907974Y-104352570D01*
X136870686Y-104108896D01*
X136794102Y-103874584D01*
X136720686Y-103733553D01*
X136682665Y-103660516D01*
X136682664Y-103660515D01*
X136680276Y-103655927D01*
X136663830Y-103634022D01*
X136535371Y-103462932D01*
X136535369Y-103462930D01*
X136532266Y-103458797D01*
X136354048Y-103288488D01*
X136245874Y-103214697D01*
X136200872Y-103159786D01*
X136192701Y-103089261D01*
X136223955Y-103025514D01*
X136246512Y-103006089D01*
X136265531Y-102993285D01*
X136273816Y-102986624D01*
X136434520Y-102833320D01*
X136441569Y-102825352D01*
X136574144Y-102647164D01*
X136579743Y-102638134D01*
X136680402Y-102440153D01*
X136684405Y-102430292D01*
X136750263Y-102218199D01*
X136752548Y-102207804D01*
X136754980Y-102189459D01*
X136752783Y-102175292D01*
X136739599Y-102171500D01*
X135127000Y-102171500D01*
X135058879Y-102151498D01*
X135012386Y-102097842D01*
X135001000Y-102045500D01*
X135001000Y-101789500D01*
X135021002Y-101721379D01*
X135074658Y-101674886D01*
X135127000Y-101663500D01*
X136737488Y-101663500D01*
X136751019Y-101659527D01*
X136752544Y-101648920D01*
X136726996Y-101527157D01*
X136723936Y-101516961D01*
X136642363Y-101310403D01*
X136637629Y-101300866D01*
X136522414Y-101110997D01*
X136516150Y-101102407D01*
X136396914Y-100965000D01*
X140899399Y-100965000D01*
X140919766Y-101197793D01*
X140921190Y-101203106D01*
X140921190Y-101203108D01*
X140960531Y-101349930D01*
X140980247Y-101423513D01*
X140982569Y-101428494D01*
X140982570Y-101428495D01*
X141076679Y-101630313D01*
X141076682Y-101630318D01*
X141079005Y-101635300D01*
X141082161Y-101639807D01*
X141082162Y-101639809D01*
X141196458Y-101803040D01*
X141213040Y-101826722D01*
X141378278Y-101991960D01*
X141382786Y-101995117D01*
X141382789Y-101995119D01*
X141454741Y-102045500D01*
X141569699Y-102125995D01*
X141574681Y-102128318D01*
X141574686Y-102128321D01*
X141767432Y-102218199D01*
X141781487Y-102224753D01*
X141786795Y-102226175D01*
X141786797Y-102226176D01*
X142001892Y-102283810D01*
X142001894Y-102283810D01*
X142007207Y-102285234D01*
X142240000Y-102305601D01*
X142245475Y-102305122D01*
X142245486Y-102305122D01*
X142422633Y-102289623D01*
X142492238Y-102303611D01*
X142522710Y-102326048D01*
X142998190Y-102801528D01*
X143010577Y-102815941D01*
X143023546Y-102833564D01*
X143029129Y-102838307D01*
X143064055Y-102867979D01*
X143071571Y-102874909D01*
X143077315Y-102880653D01*
X143080189Y-102882927D01*
X143080196Y-102882933D01*
X143099711Y-102898372D01*
X143103115Y-102901163D01*
X143153472Y-102943945D01*
X143153476Y-102943948D01*
X143159051Y-102948684D01*
X143165568Y-102952012D01*
X143170632Y-102955389D01*
X143175856Y-102958616D01*
X143181600Y-102963160D01*
X143188231Y-102966259D01*
X143248082Y-102994232D01*
X143252033Y-102996163D01*
X143317404Y-103029543D01*
X143324519Y-103031284D01*
X143330265Y-103033421D01*
X143336048Y-103035345D01*
X143342679Y-103038444D01*
X143414557Y-103053394D01*
X143418829Y-103054361D01*
X143490112Y-103071804D01*
X143495711Y-103072151D01*
X143495715Y-103072152D01*
X143501330Y-103072500D01*
X143501328Y-103072539D01*
X143505229Y-103072772D01*
X143509588Y-103073161D01*
X143516756Y-103074652D01*
X143524073Y-103074454D01*
X143594577Y-103072546D01*
X143597986Y-103072500D01*
X146088538Y-103072500D01*
X146156659Y-103092502D01*
X146195970Y-103132665D01*
X146253147Y-103225968D01*
X146282762Y-103274295D01*
X146285978Y-103278060D01*
X146285980Y-103278063D01*
X146416322Y-103430674D01*
X146449951Y-103470049D01*
X146645705Y-103637238D01*
X146865203Y-103771747D01*
X146869773Y-103773640D01*
X146869777Y-103773642D01*
X147098467Y-103868368D01*
X147103040Y-103870262D01*
X147191000Y-103891379D01*
X147348547Y-103929204D01*
X147348553Y-103929205D01*
X147353360Y-103930359D01*
X147610000Y-103950557D01*
X147866640Y-103930359D01*
X147871447Y-103929205D01*
X147871453Y-103929204D01*
X148029000Y-103891379D01*
X148116960Y-103870262D01*
X148121533Y-103868368D01*
X148350223Y-103773642D01*
X148350227Y-103773640D01*
X148354797Y-103771747D01*
X148574295Y-103637238D01*
X148685020Y-103542670D01*
X151242160Y-103542670D01*
X151247887Y-103550320D01*
X151419042Y-103655205D01*
X151427837Y-103659687D01*
X151637988Y-103746734D01*
X151647373Y-103749783D01*
X151868554Y-103802885D01*
X151878301Y-103804428D01*
X152105070Y-103822275D01*
X152114930Y-103822275D01*
X152341699Y-103804428D01*
X152351446Y-103802885D01*
X152572627Y-103749783D01*
X152582012Y-103746734D01*
X152792163Y-103659687D01*
X152800958Y-103655205D01*
X152968445Y-103552568D01*
X152977907Y-103542110D01*
X152974124Y-103533334D01*
X152122812Y-102682022D01*
X152108868Y-102674408D01*
X152107035Y-102674539D01*
X152100420Y-102678790D01*
X151248920Y-103530290D01*
X151242160Y-103542670D01*
X148685020Y-103542670D01*
X148770049Y-103470049D01*
X148937238Y-103274295D01*
X149071747Y-103054797D01*
X149077904Y-103039934D01*
X149168368Y-102821533D01*
X149168369Y-102821531D01*
X149170262Y-102816960D01*
X149207829Y-102660483D01*
X149229204Y-102571453D01*
X149229205Y-102571447D01*
X149230359Y-102566640D01*
X149250169Y-102314930D01*
X150597725Y-102314930D01*
X150615572Y-102541699D01*
X150617115Y-102551446D01*
X150670217Y-102772627D01*
X150673266Y-102782012D01*
X150760313Y-102992163D01*
X150764795Y-103000958D01*
X150867432Y-103168445D01*
X150877890Y-103177907D01*
X150886666Y-103174124D01*
X151737978Y-102322812D01*
X151744356Y-102311132D01*
X152474408Y-102311132D01*
X152474539Y-102312965D01*
X152478790Y-102319580D01*
X153330290Y-103171080D01*
X153342670Y-103177840D01*
X153350320Y-103172113D01*
X153455205Y-103000958D01*
X153459687Y-102992163D01*
X153546734Y-102782012D01*
X153549783Y-102772627D01*
X153602885Y-102551446D01*
X153604428Y-102541699D01*
X153622275Y-102314930D01*
X153622275Y-102305070D01*
X153604428Y-102078301D01*
X153602885Y-102068554D01*
X153549783Y-101847373D01*
X153546734Y-101837988D01*
X153459687Y-101627837D01*
X153455205Y-101619042D01*
X153352568Y-101451555D01*
X153342110Y-101442093D01*
X153333334Y-101445876D01*
X152482022Y-102297188D01*
X152474408Y-102311132D01*
X151744356Y-102311132D01*
X151745592Y-102308868D01*
X151745461Y-102307035D01*
X151741210Y-102300420D01*
X150889710Y-101448920D01*
X150877330Y-101442160D01*
X150869680Y-101447887D01*
X150764795Y-101619042D01*
X150760313Y-101627837D01*
X150673266Y-101837988D01*
X150670217Y-101847373D01*
X150617115Y-102068554D01*
X150615572Y-102078301D01*
X150597725Y-102305070D01*
X150597725Y-102314930D01*
X149250169Y-102314930D01*
X149250557Y-102310000D01*
X149230359Y-102053360D01*
X149229205Y-102048553D01*
X149229204Y-102048547D01*
X149176883Y-101830619D01*
X149170262Y-101803040D01*
X149100782Y-101635300D01*
X149073642Y-101569777D01*
X149073640Y-101569773D01*
X149071747Y-101565203D01*
X148937238Y-101345705D01*
X148770049Y-101149951D01*
X148699516Y-101089710D01*
X148685676Y-101077890D01*
X151242093Y-101077890D01*
X151245876Y-101086666D01*
X152097188Y-101937978D01*
X152111132Y-101945592D01*
X152112965Y-101945461D01*
X152119580Y-101941210D01*
X152971080Y-101089710D01*
X152977840Y-101077330D01*
X152972113Y-101069680D01*
X152800958Y-100964795D01*
X152792163Y-100960313D01*
X152582012Y-100873266D01*
X152572627Y-100870217D01*
X152351446Y-100817115D01*
X152341699Y-100815572D01*
X152114930Y-100797725D01*
X152105070Y-100797725D01*
X151878301Y-100815572D01*
X151868554Y-100817115D01*
X151647373Y-100870217D01*
X151637988Y-100873266D01*
X151427837Y-100960313D01*
X151419042Y-100964795D01*
X151251555Y-101067432D01*
X151242093Y-101077890D01*
X148685676Y-101077890D01*
X148578063Y-100985980D01*
X148578062Y-100985979D01*
X148574295Y-100982762D01*
X148483697Y-100927243D01*
X148432665Y-100895970D01*
X148385033Y-100843323D01*
X148372500Y-100788538D01*
X148372500Y-97331462D01*
X148392502Y-97263341D01*
X148432665Y-97224030D01*
X148570070Y-97139827D01*
X148574295Y-97137238D01*
X148685021Y-97042670D01*
X151242160Y-97042670D01*
X151247887Y-97050320D01*
X151419042Y-97155205D01*
X151427837Y-97159687D01*
X151637988Y-97246734D01*
X151647373Y-97249783D01*
X151868554Y-97302885D01*
X151878301Y-97304428D01*
X152105070Y-97322275D01*
X152114930Y-97322275D01*
X152341699Y-97304428D01*
X152351446Y-97302885D01*
X152572627Y-97249783D01*
X152582012Y-97246734D01*
X152792163Y-97159687D01*
X152800958Y-97155205D01*
X152968445Y-97052568D01*
X152977907Y-97042110D01*
X152974124Y-97033334D01*
X152122812Y-96182022D01*
X152108868Y-96174408D01*
X152107035Y-96174539D01*
X152100420Y-96178790D01*
X151248920Y-97030290D01*
X151242160Y-97042670D01*
X148685021Y-97042670D01*
X148695952Y-97033334D01*
X148766287Y-96973262D01*
X148770049Y-96970049D01*
X148937238Y-96774295D01*
X149071747Y-96554797D01*
X149113810Y-96453249D01*
X149168368Y-96321533D01*
X149168369Y-96321531D01*
X149170262Y-96316960D01*
X149216802Y-96123108D01*
X149229204Y-96071453D01*
X149229205Y-96071447D01*
X149230359Y-96066640D01*
X149250169Y-95814930D01*
X150597725Y-95814930D01*
X150615572Y-96041699D01*
X150617115Y-96051446D01*
X150670217Y-96272627D01*
X150673266Y-96282012D01*
X150760313Y-96492163D01*
X150764795Y-96500958D01*
X150867432Y-96668445D01*
X150877890Y-96677907D01*
X150886666Y-96674124D01*
X151737978Y-95822812D01*
X151744356Y-95811132D01*
X152474408Y-95811132D01*
X152474539Y-95812965D01*
X152478790Y-95819580D01*
X153330290Y-96671080D01*
X153342670Y-96677840D01*
X153350320Y-96672113D01*
X153455205Y-96500958D01*
X153459687Y-96492163D01*
X153546734Y-96282012D01*
X153549783Y-96272627D01*
X153602885Y-96051446D01*
X153604428Y-96041699D01*
X153622275Y-95814930D01*
X153622275Y-95805070D01*
X153604428Y-95578301D01*
X153602885Y-95568554D01*
X153549783Y-95347373D01*
X153546734Y-95337988D01*
X153459687Y-95127837D01*
X153455205Y-95119042D01*
X153352568Y-94951555D01*
X153342110Y-94942093D01*
X153333334Y-94945876D01*
X152482022Y-95797188D01*
X152474408Y-95811132D01*
X151744356Y-95811132D01*
X151745592Y-95808868D01*
X151745461Y-95807035D01*
X151741210Y-95800420D01*
X150889710Y-94948920D01*
X150877330Y-94942160D01*
X150869680Y-94947887D01*
X150764795Y-95119042D01*
X150760313Y-95127837D01*
X150673266Y-95337988D01*
X150670217Y-95347373D01*
X150617115Y-95568554D01*
X150615572Y-95578301D01*
X150597725Y-95805070D01*
X150597725Y-95814930D01*
X149250169Y-95814930D01*
X149250557Y-95810000D01*
X149230359Y-95553360D01*
X149229205Y-95548553D01*
X149229204Y-95548547D01*
X149175147Y-95323388D01*
X149170262Y-95303040D01*
X149135736Y-95219687D01*
X149073642Y-95069777D01*
X149073640Y-95069773D01*
X149071747Y-95065203D01*
X148937238Y-94845705D01*
X148770049Y-94649951D01*
X148685676Y-94577890D01*
X151242093Y-94577890D01*
X151245876Y-94586666D01*
X152097188Y-95437978D01*
X152111132Y-95445592D01*
X152112965Y-95445461D01*
X152119580Y-95441210D01*
X152971080Y-94589710D01*
X152977840Y-94577330D01*
X152972113Y-94569680D01*
X152800958Y-94464795D01*
X152792163Y-94460313D01*
X152582012Y-94373266D01*
X152572627Y-94370217D01*
X152351446Y-94317115D01*
X152341699Y-94315572D01*
X152114930Y-94297725D01*
X152105070Y-94297725D01*
X151878301Y-94315572D01*
X151868554Y-94317115D01*
X151647373Y-94370217D01*
X151637988Y-94373266D01*
X151427837Y-94460313D01*
X151419042Y-94464795D01*
X151251555Y-94567432D01*
X151242093Y-94577890D01*
X148685676Y-94577890D01*
X148574295Y-94482762D01*
X148354797Y-94348253D01*
X148350227Y-94346360D01*
X148350223Y-94346358D01*
X148121533Y-94251632D01*
X148121531Y-94251631D01*
X148116960Y-94249738D01*
X148029000Y-94228621D01*
X147871453Y-94190796D01*
X147871447Y-94190795D01*
X147866640Y-94189641D01*
X147610000Y-94169443D01*
X147353360Y-94189641D01*
X147348553Y-94190795D01*
X147348547Y-94190796D01*
X147191000Y-94228621D01*
X147103040Y-94249738D01*
X147098469Y-94251631D01*
X147098467Y-94251632D01*
X146869777Y-94346358D01*
X146869773Y-94346360D01*
X146865203Y-94348253D01*
X146645705Y-94482762D01*
X146449951Y-94649951D01*
X146282762Y-94845705D01*
X146148253Y-95065203D01*
X146146360Y-95069773D01*
X146146358Y-95069777D01*
X146084264Y-95219687D01*
X146049738Y-95303040D01*
X146044853Y-95323388D01*
X145990796Y-95548547D01*
X145990795Y-95548553D01*
X145989641Y-95553360D01*
X145969443Y-95810000D01*
X145989641Y-96066640D01*
X145990795Y-96071447D01*
X145990796Y-96071453D01*
X146003198Y-96123108D01*
X146049738Y-96316960D01*
X146051631Y-96321531D01*
X146051632Y-96321533D01*
X146106191Y-96453249D01*
X146148253Y-96554797D01*
X146282762Y-96774295D01*
X146449951Y-96970049D01*
X146453713Y-96973262D01*
X146524049Y-97033334D01*
X146645705Y-97137238D01*
X146649930Y-97139827D01*
X146787335Y-97224030D01*
X146834967Y-97276677D01*
X146847500Y-97331462D01*
X146847500Y-100788538D01*
X146827498Y-100856659D01*
X146787335Y-100895970D01*
X146736303Y-100927243D01*
X146645705Y-100982762D01*
X146641938Y-100985979D01*
X146641937Y-100985980D01*
X146520484Y-101089710D01*
X146449951Y-101149951D01*
X146446738Y-101153713D01*
X146312913Y-101310403D01*
X146282762Y-101345705D01*
X146280173Y-101349930D01*
X146195970Y-101487335D01*
X146143323Y-101534967D01*
X146088538Y-101547500D01*
X143953027Y-101547500D01*
X143884906Y-101527498D01*
X143863932Y-101510595D01*
X143601048Y-101247711D01*
X143567022Y-101185399D01*
X143564623Y-101147634D01*
X143580122Y-100970486D01*
X143580122Y-100970475D01*
X143580601Y-100965000D01*
X143560234Y-100732207D01*
X143549818Y-100693332D01*
X143501176Y-100511797D01*
X143501175Y-100511795D01*
X143499753Y-100506487D01*
X143451677Y-100403388D01*
X143403321Y-100299687D01*
X143403318Y-100299682D01*
X143400995Y-100294700D01*
X143341641Y-100209933D01*
X143270119Y-100107789D01*
X143270117Y-100107786D01*
X143266960Y-100103278D01*
X143101722Y-99938040D01*
X143097214Y-99934883D01*
X143097211Y-99934881D01*
X143017465Y-99879042D01*
X142910301Y-99804005D01*
X142905319Y-99801682D01*
X142905314Y-99801679D01*
X142703495Y-99707570D01*
X142703494Y-99707570D01*
X142698513Y-99705247D01*
X142693205Y-99703825D01*
X142693203Y-99703824D01*
X142478108Y-99646190D01*
X142478106Y-99646190D01*
X142472793Y-99644766D01*
X142240000Y-99624399D01*
X142007207Y-99644766D01*
X142001894Y-99646190D01*
X142001892Y-99646190D01*
X141786797Y-99703824D01*
X141786795Y-99703825D01*
X141781487Y-99705247D01*
X141776506Y-99707569D01*
X141776505Y-99707570D01*
X141574687Y-99801679D01*
X141574682Y-99801682D01*
X141569700Y-99804005D01*
X141565193Y-99807161D01*
X141565191Y-99807162D01*
X141382789Y-99934881D01*
X141382786Y-99934883D01*
X141378278Y-99938040D01*
X141213040Y-100103278D01*
X141209883Y-100107786D01*
X141209881Y-100107789D01*
X141138359Y-100209933D01*
X141079005Y-100294700D01*
X141076682Y-100299682D01*
X141076679Y-100299687D01*
X141028323Y-100403388D01*
X140980247Y-100506487D01*
X140978825Y-100511795D01*
X140978824Y-100511797D01*
X140930182Y-100693332D01*
X140919766Y-100732207D01*
X140899399Y-100965000D01*
X136396914Y-100965000D01*
X136370589Y-100934663D01*
X136362959Y-100927243D01*
X136235778Y-100822962D01*
X136195784Y-100764303D01*
X136193852Y-100693332D01*
X136230596Y-100632584D01*
X136247229Y-100619736D01*
X136271813Y-100603832D01*
X136325204Y-100569292D01*
X136354164Y-100542941D01*
X136503708Y-100406866D01*
X136503710Y-100406864D01*
X136507530Y-100403388D01*
X136510729Y-100399337D01*
X136510733Y-100399333D01*
X136657111Y-100213986D01*
X136660312Y-100209933D01*
X136675065Y-100183209D01*
X136776950Y-99998644D01*
X136776951Y-99998641D01*
X136779446Y-99994122D01*
X136861732Y-99761751D01*
X136904962Y-99519061D01*
X136907974Y-99272570D01*
X136870686Y-99028896D01*
X136794102Y-98794584D01*
X136680276Y-98575927D01*
X136654063Y-98541014D01*
X136535371Y-98382932D01*
X136535369Y-98382930D01*
X136532266Y-98378797D01*
X136354048Y-98208488D01*
X136349769Y-98205569D01*
X136348313Y-98204390D01*
X136307960Y-98145976D01*
X136305594Y-98075019D01*
X136342806Y-98013275D01*
X136507530Y-97863388D01*
X136510729Y-97859337D01*
X136510733Y-97859333D01*
X136657111Y-97673986D01*
X136660312Y-97669933D01*
X136675065Y-97643209D01*
X136776950Y-97458644D01*
X136776951Y-97458641D01*
X136779446Y-97454122D01*
X136847869Y-97260899D01*
X136860007Y-97226623D01*
X136860008Y-97226620D01*
X136861732Y-97221751D01*
X136904962Y-96979061D01*
X136907516Y-96770078D01*
X136907911Y-96737740D01*
X136907911Y-96737738D01*
X136907974Y-96732570D01*
X136870686Y-96488896D01*
X136794102Y-96254584D01*
X136680276Y-96035927D01*
X136654063Y-96001014D01*
X136566957Y-95885000D01*
X140899399Y-95885000D01*
X140919766Y-96117793D01*
X140921190Y-96123106D01*
X140921190Y-96123108D01*
X140974358Y-96321533D01*
X140980247Y-96343513D01*
X140982569Y-96348494D01*
X140982570Y-96348495D01*
X141076679Y-96550313D01*
X141076682Y-96550318D01*
X141079005Y-96555300D01*
X141082161Y-96559807D01*
X141082162Y-96559809D01*
X141206751Y-96737740D01*
X141213040Y-96746722D01*
X141378278Y-96911960D01*
X141382786Y-96915117D01*
X141382789Y-96915119D01*
X141414410Y-96937260D01*
X141569699Y-97045995D01*
X141574681Y-97048318D01*
X141574686Y-97048321D01*
X141758470Y-97134020D01*
X141781487Y-97144753D01*
X141786795Y-97146175D01*
X141786797Y-97146176D01*
X142001892Y-97203810D01*
X142001894Y-97203810D01*
X142007207Y-97205234D01*
X142240000Y-97225601D01*
X142472793Y-97205234D01*
X142478106Y-97203810D01*
X142478108Y-97203810D01*
X142693203Y-97146176D01*
X142693205Y-97146175D01*
X142698513Y-97144753D01*
X142721530Y-97134020D01*
X142905314Y-97048321D01*
X142905319Y-97048318D01*
X142910301Y-97045995D01*
X143065590Y-96937260D01*
X143097211Y-96915119D01*
X143097214Y-96915117D01*
X143101722Y-96911960D01*
X143266960Y-96746722D01*
X143273250Y-96737740D01*
X143397838Y-96559809D01*
X143397839Y-96559807D01*
X143400995Y-96555300D01*
X143403318Y-96550318D01*
X143403321Y-96550313D01*
X143497430Y-96348495D01*
X143497431Y-96348494D01*
X143499753Y-96343513D01*
X143505643Y-96321533D01*
X143558810Y-96123108D01*
X143558810Y-96123106D01*
X143560234Y-96117793D01*
X143580601Y-95885000D01*
X143560234Y-95652207D01*
X143540431Y-95578301D01*
X143501176Y-95431797D01*
X143501175Y-95431795D01*
X143499753Y-95426487D01*
X143497430Y-95421505D01*
X143403321Y-95219687D01*
X143403318Y-95219682D01*
X143400995Y-95214700D01*
X143340173Y-95127837D01*
X143270119Y-95027789D01*
X143270117Y-95027786D01*
X143266960Y-95023278D01*
X143101722Y-94858040D01*
X143097214Y-94854883D01*
X143097211Y-94854881D01*
X143017465Y-94799042D01*
X142910301Y-94724005D01*
X142905319Y-94721682D01*
X142905314Y-94721679D01*
X142703495Y-94627570D01*
X142703494Y-94627570D01*
X142698513Y-94625247D01*
X142693205Y-94623825D01*
X142693203Y-94623824D01*
X142478108Y-94566190D01*
X142478106Y-94566190D01*
X142472793Y-94564766D01*
X142240000Y-94544399D01*
X142007207Y-94564766D01*
X142001894Y-94566190D01*
X142001892Y-94566190D01*
X141786797Y-94623824D01*
X141786795Y-94623825D01*
X141781487Y-94625247D01*
X141776506Y-94627569D01*
X141776505Y-94627570D01*
X141574687Y-94721679D01*
X141574682Y-94721682D01*
X141569700Y-94724005D01*
X141565193Y-94727161D01*
X141565191Y-94727162D01*
X141382789Y-94854881D01*
X141382786Y-94854883D01*
X141378278Y-94858040D01*
X141213040Y-95023278D01*
X141209883Y-95027786D01*
X141209881Y-95027789D01*
X141139827Y-95127837D01*
X141079005Y-95214700D01*
X141076682Y-95219682D01*
X141076679Y-95219687D01*
X140982570Y-95421505D01*
X140980247Y-95426487D01*
X140978825Y-95431795D01*
X140978824Y-95431797D01*
X140939569Y-95578301D01*
X140919766Y-95652207D01*
X140899399Y-95885000D01*
X136566957Y-95885000D01*
X136535371Y-95842932D01*
X136535369Y-95842930D01*
X136532266Y-95838797D01*
X136354048Y-95668488D01*
X136349769Y-95665569D01*
X136348313Y-95664390D01*
X136307960Y-95605976D01*
X136305594Y-95535019D01*
X136342806Y-95473275D01*
X136507530Y-95323388D01*
X136510729Y-95319337D01*
X136510733Y-95319333D01*
X136657111Y-95133986D01*
X136660312Y-95129933D01*
X136666325Y-95119042D01*
X136776950Y-94918644D01*
X136776951Y-94918641D01*
X136779446Y-94914122D01*
X136861732Y-94681751D01*
X136867397Y-94649951D01*
X136878669Y-94586666D01*
X136904962Y-94439061D01*
X136907252Y-94251632D01*
X136907911Y-94197740D01*
X136907911Y-94197738D01*
X136907974Y-94192570D01*
X136870686Y-93948896D01*
X136794102Y-93714584D01*
X136735420Y-93601857D01*
X136682665Y-93500516D01*
X136682664Y-93500515D01*
X136680276Y-93495927D01*
X136654063Y-93461014D01*
X136535371Y-93302932D01*
X136535369Y-93302930D01*
X136532266Y-93298797D01*
X136354048Y-93128488D01*
X136349769Y-93125569D01*
X136348313Y-93124390D01*
X136307960Y-93065976D01*
X136305594Y-92995019D01*
X136342806Y-92933275D01*
X136507530Y-92783388D01*
X136510729Y-92779337D01*
X136510733Y-92779333D01*
X136657111Y-92593986D01*
X136660312Y-92589933D01*
X136669885Y-92572593D01*
X136776950Y-92378644D01*
X136776951Y-92378641D01*
X136779446Y-92374122D01*
X136861732Y-92141751D01*
X136865550Y-92120320D01*
X136884933Y-92011500D01*
X136904962Y-91899061D01*
X136906880Y-91742113D01*
X136907911Y-91657740D01*
X136907911Y-91657738D01*
X136907974Y-91652570D01*
X136870686Y-91408896D01*
X136794102Y-91174584D01*
X136680276Y-90955927D01*
X136676575Y-90950997D01*
X136535371Y-90762932D01*
X136535369Y-90762930D01*
X136532266Y-90758797D01*
X136354048Y-90588488D01*
X136349769Y-90585569D01*
X136348313Y-90584390D01*
X136307960Y-90525976D01*
X136305594Y-90455019D01*
X136342806Y-90393275D01*
X136507530Y-90243388D01*
X136510729Y-90239337D01*
X136510733Y-90239333D01*
X136657110Y-90053988D01*
X136657112Y-90053984D01*
X136660312Y-90049933D01*
X136662976Y-90045108D01*
X136663074Y-90045011D01*
X136665673Y-90041099D01*
X136666480Y-90041635D01*
X136713407Y-89995137D01*
X136773285Y-89980000D01*
X140893675Y-89980000D01*
X140961796Y-90000002D01*
X141007870Y-90052750D01*
X141076679Y-90200313D01*
X141076682Y-90200318D01*
X141079005Y-90205300D01*
X141082161Y-90209807D01*
X141082162Y-90209809D01*
X141196458Y-90373040D01*
X141213040Y-90396722D01*
X141378278Y-90561960D01*
X141382786Y-90565117D01*
X141382789Y-90565119D01*
X141421272Y-90592065D01*
X141569699Y-90695995D01*
X141574681Y-90698318D01*
X141574686Y-90698321D01*
X141776505Y-90792430D01*
X141781487Y-90794753D01*
X141786795Y-90796175D01*
X141786797Y-90796176D01*
X142001892Y-90853810D01*
X142001894Y-90853810D01*
X142007207Y-90855234D01*
X142240000Y-90875601D01*
X142245475Y-90875122D01*
X142245486Y-90875122D01*
X142422633Y-90859623D01*
X142492238Y-90873611D01*
X142522710Y-90896048D01*
X142998190Y-91371528D01*
X143010577Y-91385941D01*
X143023546Y-91403564D01*
X143029129Y-91408307D01*
X143064055Y-91437979D01*
X143071571Y-91444909D01*
X143077315Y-91450653D01*
X143080189Y-91452927D01*
X143080196Y-91452933D01*
X143099711Y-91468372D01*
X143103115Y-91471163D01*
X143153472Y-91513945D01*
X143153476Y-91513948D01*
X143159051Y-91518684D01*
X143165568Y-91522012D01*
X143170632Y-91525389D01*
X143175856Y-91528616D01*
X143181600Y-91533160D01*
X143188231Y-91536259D01*
X143248082Y-91564232D01*
X143252033Y-91566163D01*
X143317404Y-91599543D01*
X143324519Y-91601284D01*
X143330265Y-91603421D01*
X143336048Y-91605345D01*
X143342679Y-91608444D01*
X143414557Y-91623394D01*
X143418829Y-91624361D01*
X143490112Y-91641804D01*
X143495711Y-91642151D01*
X143495715Y-91642152D01*
X143501330Y-91642500D01*
X143501328Y-91642539D01*
X143505229Y-91642772D01*
X143509588Y-91643161D01*
X143516756Y-91644652D01*
X143524073Y-91644454D01*
X143594577Y-91642546D01*
X143597986Y-91642500D01*
X146088538Y-91642500D01*
X146156659Y-91662502D01*
X146195970Y-91702665D01*
X146223654Y-91747840D01*
X146282762Y-91844295D01*
X146449951Y-92040049D01*
X146645705Y-92207238D01*
X146865203Y-92341747D01*
X146869773Y-92343640D01*
X146869777Y-92343642D01*
X147098467Y-92438368D01*
X147103040Y-92440262D01*
X147191000Y-92461379D01*
X147348547Y-92499204D01*
X147348553Y-92499205D01*
X147353360Y-92500359D01*
X147610000Y-92520557D01*
X147866640Y-92500359D01*
X147871447Y-92499205D01*
X147871453Y-92499204D01*
X148029000Y-92461379D01*
X148116960Y-92440262D01*
X148121533Y-92438368D01*
X148350223Y-92343642D01*
X148350227Y-92343640D01*
X148354797Y-92341747D01*
X148574295Y-92207238D01*
X148685020Y-92112670D01*
X151242160Y-92112670D01*
X151247887Y-92120320D01*
X151419042Y-92225205D01*
X151427837Y-92229687D01*
X151637988Y-92316734D01*
X151647373Y-92319783D01*
X151868554Y-92372885D01*
X151878301Y-92374428D01*
X152105070Y-92392275D01*
X152114930Y-92392275D01*
X152341699Y-92374428D01*
X152351446Y-92372885D01*
X152572627Y-92319783D01*
X152582012Y-92316734D01*
X152792163Y-92229687D01*
X152800958Y-92225205D01*
X152968445Y-92122568D01*
X152977907Y-92112110D01*
X152974124Y-92103334D01*
X152122812Y-91252022D01*
X152108868Y-91244408D01*
X152107035Y-91244539D01*
X152100420Y-91248790D01*
X151248920Y-92100290D01*
X151242160Y-92112670D01*
X148685020Y-92112670D01*
X148770049Y-92040049D01*
X148937238Y-91844295D01*
X149071747Y-91624797D01*
X149077904Y-91609934D01*
X149168368Y-91391533D01*
X149168369Y-91391531D01*
X149170262Y-91386960D01*
X149204486Y-91244408D01*
X149229204Y-91141453D01*
X149229205Y-91141447D01*
X149230359Y-91136640D01*
X149250169Y-90884930D01*
X150597725Y-90884930D01*
X150615572Y-91111699D01*
X150617115Y-91121446D01*
X150670217Y-91342627D01*
X150673266Y-91352012D01*
X150760313Y-91562163D01*
X150764795Y-91570958D01*
X150867432Y-91738445D01*
X150877890Y-91747907D01*
X150886666Y-91744124D01*
X151737978Y-90892812D01*
X151744356Y-90881132D01*
X152474408Y-90881132D01*
X152474539Y-90882965D01*
X152478790Y-90889580D01*
X153330290Y-91741080D01*
X153342670Y-91747840D01*
X153350320Y-91742113D01*
X153455205Y-91570958D01*
X153459687Y-91562163D01*
X153546734Y-91352012D01*
X153549783Y-91342627D01*
X153602885Y-91121446D01*
X153604428Y-91111699D01*
X153622275Y-90884930D01*
X153622275Y-90875070D01*
X153604428Y-90648301D01*
X153602885Y-90638554D01*
X153549783Y-90417373D01*
X153546734Y-90407988D01*
X153459687Y-90197837D01*
X153455205Y-90189042D01*
X153352568Y-90021555D01*
X153342110Y-90012093D01*
X153333334Y-90015876D01*
X152482022Y-90867188D01*
X152474408Y-90881132D01*
X151744356Y-90881132D01*
X151745592Y-90878868D01*
X151745461Y-90877035D01*
X151741210Y-90870420D01*
X150889710Y-90018920D01*
X150877330Y-90012160D01*
X150869680Y-90017887D01*
X150764795Y-90189042D01*
X150760313Y-90197837D01*
X150673266Y-90407988D01*
X150670217Y-90417373D01*
X150617115Y-90638554D01*
X150615572Y-90648301D01*
X150597725Y-90875070D01*
X150597725Y-90884930D01*
X149250169Y-90884930D01*
X149250557Y-90880000D01*
X149230359Y-90623360D01*
X149229205Y-90618553D01*
X149229204Y-90618547D01*
X149176883Y-90400619D01*
X149170262Y-90373040D01*
X149106778Y-90219775D01*
X149073642Y-90139777D01*
X149073640Y-90139773D01*
X149071747Y-90135203D01*
X148937238Y-89915705D01*
X148770049Y-89719951D01*
X148699516Y-89659710D01*
X148685676Y-89647890D01*
X151242093Y-89647890D01*
X151245876Y-89656666D01*
X152097188Y-90507978D01*
X152111132Y-90515592D01*
X152112965Y-90515461D01*
X152119580Y-90511210D01*
X152971080Y-89659710D01*
X152977840Y-89647330D01*
X152972113Y-89639680D01*
X152800958Y-89534795D01*
X152792163Y-89530313D01*
X152582012Y-89443266D01*
X152572627Y-89440217D01*
X152351446Y-89387115D01*
X152341699Y-89385572D01*
X152114930Y-89367725D01*
X152105070Y-89367725D01*
X151878301Y-89385572D01*
X151868554Y-89387115D01*
X151647373Y-89440217D01*
X151637988Y-89443266D01*
X151427837Y-89530313D01*
X151419042Y-89534795D01*
X151251555Y-89637432D01*
X151242093Y-89647890D01*
X148685676Y-89647890D01*
X148578063Y-89555980D01*
X148578062Y-89555979D01*
X148574295Y-89552762D01*
X148536376Y-89529525D01*
X148432665Y-89465970D01*
X148385033Y-89413323D01*
X148372500Y-89358538D01*
X148372500Y-85901462D01*
X148392502Y-85833341D01*
X148432665Y-85794030D01*
X148570070Y-85709827D01*
X148574295Y-85707238D01*
X148685021Y-85612670D01*
X151242160Y-85612670D01*
X151247887Y-85620320D01*
X151419042Y-85725205D01*
X151427837Y-85729687D01*
X151637988Y-85816734D01*
X151647373Y-85819783D01*
X151868554Y-85872885D01*
X151878301Y-85874428D01*
X152105070Y-85892275D01*
X152114930Y-85892275D01*
X152341699Y-85874428D01*
X152351446Y-85872885D01*
X152572627Y-85819783D01*
X152582012Y-85816734D01*
X152792163Y-85729687D01*
X152800958Y-85725205D01*
X152968445Y-85622568D01*
X152977907Y-85612110D01*
X152974124Y-85603334D01*
X152122812Y-84752022D01*
X152108868Y-84744408D01*
X152107035Y-84744539D01*
X152100420Y-84748790D01*
X151248920Y-85600290D01*
X151242160Y-85612670D01*
X148685021Y-85612670D01*
X148695952Y-85603334D01*
X148766287Y-85543262D01*
X148770049Y-85540049D01*
X148937238Y-85344295D01*
X149071747Y-85124797D01*
X149078639Y-85108160D01*
X149168368Y-84891533D01*
X149168369Y-84891531D01*
X149170262Y-84886960D01*
X149216802Y-84693108D01*
X149229204Y-84641453D01*
X149229205Y-84641447D01*
X149230359Y-84636640D01*
X149250169Y-84384930D01*
X150597725Y-84384930D01*
X150615572Y-84611699D01*
X150617115Y-84621446D01*
X150670217Y-84842627D01*
X150673266Y-84852012D01*
X150760313Y-85062163D01*
X150764795Y-85070958D01*
X150867432Y-85238445D01*
X150877890Y-85247907D01*
X150886666Y-85244124D01*
X151737978Y-84392812D01*
X151744356Y-84381132D01*
X152474408Y-84381132D01*
X152474539Y-84382965D01*
X152478790Y-84389580D01*
X153330290Y-85241080D01*
X153342670Y-85247840D01*
X153350320Y-85242113D01*
X153455205Y-85070958D01*
X153459687Y-85062163D01*
X153546734Y-84852012D01*
X153549783Y-84842627D01*
X153602885Y-84621446D01*
X153604428Y-84611699D01*
X153622275Y-84384930D01*
X153622275Y-84375070D01*
X153604428Y-84148301D01*
X153602885Y-84138554D01*
X153549783Y-83917373D01*
X153546734Y-83907988D01*
X153459687Y-83697837D01*
X153455205Y-83689042D01*
X153352568Y-83521555D01*
X153342110Y-83512093D01*
X153333334Y-83515876D01*
X152482022Y-84367188D01*
X152474408Y-84381132D01*
X151744356Y-84381132D01*
X151745592Y-84378868D01*
X151745461Y-84377035D01*
X151741210Y-84370420D01*
X150889710Y-83518920D01*
X150877330Y-83512160D01*
X150869680Y-83517887D01*
X150764795Y-83689042D01*
X150760313Y-83697837D01*
X150673266Y-83907988D01*
X150670217Y-83917373D01*
X150617115Y-84138554D01*
X150615572Y-84148301D01*
X150597725Y-84375070D01*
X150597725Y-84384930D01*
X149250169Y-84384930D01*
X149250557Y-84380000D01*
X149230359Y-84123360D01*
X149229205Y-84118553D01*
X149229204Y-84118547D01*
X149171417Y-83877852D01*
X149170262Y-83873040D01*
X149165689Y-83862000D01*
X149073642Y-83639777D01*
X149073640Y-83639773D01*
X149071747Y-83635203D01*
X148937238Y-83415705D01*
X148770049Y-83219951D01*
X148685676Y-83147890D01*
X151242093Y-83147890D01*
X151245876Y-83156666D01*
X152097188Y-84007978D01*
X152111132Y-84015592D01*
X152112965Y-84015461D01*
X152119580Y-84011210D01*
X152971080Y-83159710D01*
X152977840Y-83147330D01*
X152972113Y-83139680D01*
X152800958Y-83034795D01*
X152792163Y-83030313D01*
X152582012Y-82943266D01*
X152572627Y-82940217D01*
X152351446Y-82887115D01*
X152341699Y-82885572D01*
X152114930Y-82867725D01*
X152105070Y-82867725D01*
X151878301Y-82885572D01*
X151868554Y-82887115D01*
X151647373Y-82940217D01*
X151637988Y-82943266D01*
X151427837Y-83030313D01*
X151419042Y-83034795D01*
X151251555Y-83137432D01*
X151242093Y-83147890D01*
X148685676Y-83147890D01*
X148574295Y-83052762D01*
X148354797Y-82918253D01*
X148350227Y-82916360D01*
X148350223Y-82916358D01*
X148121533Y-82821632D01*
X148121531Y-82821631D01*
X148116960Y-82819738D01*
X148013716Y-82794951D01*
X147871453Y-82760796D01*
X147871447Y-82760795D01*
X147866640Y-82759641D01*
X147610000Y-82739443D01*
X147353360Y-82759641D01*
X147348553Y-82760795D01*
X147348547Y-82760796D01*
X147206284Y-82794951D01*
X147103040Y-82819738D01*
X147098469Y-82821631D01*
X147098467Y-82821632D01*
X146869777Y-82916358D01*
X146869773Y-82916360D01*
X146865203Y-82918253D01*
X146645705Y-83052762D01*
X146449951Y-83219951D01*
X146282762Y-83415705D01*
X146148253Y-83635203D01*
X146146360Y-83639773D01*
X146146358Y-83639777D01*
X146054311Y-83862000D01*
X146049738Y-83873040D01*
X146048583Y-83877852D01*
X145990796Y-84118547D01*
X145990795Y-84118553D01*
X145989641Y-84123360D01*
X145969443Y-84380000D01*
X145989641Y-84636640D01*
X145990795Y-84641447D01*
X145990796Y-84641453D01*
X146003198Y-84693108D01*
X146049738Y-84886960D01*
X146051631Y-84891531D01*
X146051632Y-84891533D01*
X146141362Y-85108160D01*
X146148253Y-85124797D01*
X146282762Y-85344295D01*
X146449951Y-85540049D01*
X146453713Y-85543262D01*
X146524049Y-85603334D01*
X146645705Y-85707238D01*
X146649930Y-85709827D01*
X146787335Y-85794030D01*
X146834967Y-85846677D01*
X146847500Y-85901462D01*
X146847500Y-89358538D01*
X146827498Y-89426659D01*
X146787335Y-89465970D01*
X146683624Y-89529525D01*
X146645705Y-89552762D01*
X146641938Y-89555979D01*
X146641937Y-89555980D01*
X146520484Y-89659710D01*
X146449951Y-89719951D01*
X146282762Y-89915705D01*
X146280173Y-89919930D01*
X146195970Y-90057335D01*
X146143323Y-90104967D01*
X146088538Y-90117500D01*
X143953027Y-90117500D01*
X143884906Y-90097498D01*
X143863932Y-90080595D01*
X143601048Y-89817711D01*
X143567022Y-89755399D01*
X143564623Y-89717634D01*
X143580122Y-89540486D01*
X143580122Y-89540475D01*
X143580601Y-89535000D01*
X143560234Y-89302207D01*
X143510807Y-89117740D01*
X143501176Y-89081797D01*
X143501175Y-89081795D01*
X143499753Y-89076487D01*
X143497430Y-89071505D01*
X143403321Y-88869687D01*
X143403318Y-88869682D01*
X143400995Y-88864700D01*
X143378973Y-88833249D01*
X143270119Y-88677789D01*
X143270117Y-88677786D01*
X143266960Y-88673278D01*
X143101722Y-88508040D01*
X143097214Y-88504883D01*
X143097211Y-88504881D01*
X142976725Y-88420516D01*
X142910301Y-88374005D01*
X142905319Y-88371682D01*
X142905314Y-88371679D01*
X142703495Y-88277570D01*
X142703494Y-88277570D01*
X142698513Y-88275247D01*
X142693205Y-88273825D01*
X142693203Y-88273824D01*
X142478108Y-88216190D01*
X142478106Y-88216190D01*
X142472793Y-88214766D01*
X142240000Y-88194399D01*
X142007207Y-88214766D01*
X142001894Y-88216190D01*
X142001892Y-88216190D01*
X141786797Y-88273824D01*
X141786795Y-88273825D01*
X141781487Y-88275247D01*
X141776506Y-88277569D01*
X141776505Y-88277570D01*
X141574687Y-88371679D01*
X141574682Y-88371682D01*
X141569700Y-88374005D01*
X141565192Y-88377162D01*
X141565186Y-88377165D01*
X141486569Y-88432213D01*
X141414299Y-88455000D01*
X136772571Y-88455000D01*
X136704450Y-88434998D01*
X136671811Y-88404653D01*
X136660499Y-88389586D01*
X136532266Y-88218797D01*
X136354048Y-88048488D01*
X136349769Y-88045569D01*
X136348313Y-88044390D01*
X136307960Y-87985976D01*
X136305594Y-87915019D01*
X136342806Y-87853275D01*
X136507530Y-87703388D01*
X136510729Y-87699337D01*
X136510733Y-87699333D01*
X136640743Y-87534712D01*
X136660312Y-87509933D01*
X136675065Y-87483209D01*
X136776950Y-87298644D01*
X136776951Y-87298641D01*
X136779446Y-87294122D01*
X136861732Y-87061751D01*
X136904962Y-86819061D01*
X136906703Y-86676597D01*
X136907911Y-86577740D01*
X136907911Y-86577738D01*
X136907974Y-86572570D01*
X136870686Y-86328896D01*
X136794102Y-86094584D01*
X136680276Y-85875927D01*
X136658315Y-85846677D01*
X136535371Y-85682932D01*
X136535369Y-85682930D01*
X136532266Y-85678797D01*
X136354048Y-85508488D01*
X136245874Y-85434697D01*
X136200872Y-85379786D01*
X136192701Y-85309261D01*
X136223955Y-85245514D01*
X136246512Y-85226089D01*
X136265531Y-85213285D01*
X136273816Y-85206624D01*
X136434520Y-85053320D01*
X136441569Y-85045352D01*
X136574144Y-84867164D01*
X136579743Y-84858134D01*
X136680402Y-84660153D01*
X136684405Y-84650292D01*
X136751670Y-84433666D01*
X136790973Y-84374540D01*
X136856002Y-84346050D01*
X136926111Y-84357240D01*
X136961097Y-84381935D01*
X137525690Y-84946528D01*
X137538077Y-84960941D01*
X137551046Y-84978564D01*
X137556629Y-84983307D01*
X137591555Y-85012979D01*
X137599071Y-85019909D01*
X137604815Y-85025653D01*
X137607689Y-85027927D01*
X137607696Y-85027933D01*
X137627211Y-85043372D01*
X137630615Y-85046163D01*
X137680972Y-85088945D01*
X137680976Y-85088948D01*
X137686551Y-85093684D01*
X137693068Y-85097012D01*
X137698132Y-85100389D01*
X137703356Y-85103616D01*
X137709100Y-85108160D01*
X137715731Y-85111259D01*
X137775582Y-85139232D01*
X137779533Y-85141163D01*
X137844904Y-85174543D01*
X137852019Y-85176284D01*
X137857765Y-85178421D01*
X137863548Y-85180345D01*
X137870179Y-85183444D01*
X137942057Y-85198394D01*
X137946329Y-85199361D01*
X138017612Y-85216804D01*
X138023211Y-85217151D01*
X138023215Y-85217152D01*
X138028830Y-85217500D01*
X138028828Y-85217539D01*
X138032729Y-85217772D01*
X138037088Y-85218161D01*
X138044256Y-85219652D01*
X138051573Y-85219454D01*
X138122077Y-85217546D01*
X138125486Y-85217500D01*
X141077972Y-85217500D01*
X141146093Y-85237502D01*
X141181185Y-85271229D01*
X141208760Y-85310610D01*
X141213040Y-85316722D01*
X141378278Y-85481960D01*
X141382786Y-85485117D01*
X141382789Y-85485119D01*
X141421272Y-85512065D01*
X141569699Y-85615995D01*
X141574681Y-85618318D01*
X141574686Y-85618321D01*
X141713246Y-85682932D01*
X141781487Y-85714753D01*
X141786795Y-85716175D01*
X141786797Y-85716176D01*
X142001892Y-85773810D01*
X142001894Y-85773810D01*
X142007207Y-85775234D01*
X142240000Y-85795601D01*
X142472793Y-85775234D01*
X142478106Y-85773810D01*
X142478108Y-85773810D01*
X142693203Y-85716176D01*
X142693205Y-85716175D01*
X142698513Y-85714753D01*
X142766754Y-85682932D01*
X142905314Y-85618321D01*
X142905319Y-85618318D01*
X142910301Y-85615995D01*
X143058728Y-85512065D01*
X143097211Y-85485119D01*
X143097214Y-85485117D01*
X143101722Y-85481960D01*
X143266960Y-85316722D01*
X143272185Y-85309261D01*
X143397838Y-85129809D01*
X143397839Y-85129807D01*
X143400995Y-85125300D01*
X143403318Y-85120318D01*
X143403321Y-85120313D01*
X143497430Y-84918495D01*
X143497431Y-84918494D01*
X143499753Y-84913513D01*
X143505643Y-84891533D01*
X143558810Y-84693108D01*
X143558810Y-84693106D01*
X143560234Y-84687793D01*
X143580601Y-84455000D01*
X143560234Y-84222207D01*
X143540431Y-84148301D01*
X143501176Y-84001797D01*
X143501175Y-84001795D01*
X143499753Y-83996487D01*
X143497430Y-83991505D01*
X143403321Y-83789687D01*
X143403318Y-83789682D01*
X143400995Y-83784700D01*
X143378973Y-83753249D01*
X143270119Y-83597789D01*
X143270117Y-83597786D01*
X143266960Y-83593278D01*
X143101722Y-83428040D01*
X143097214Y-83424883D01*
X143097211Y-83424881D01*
X142976725Y-83340516D01*
X142910301Y-83294005D01*
X142905319Y-83291682D01*
X142905314Y-83291679D01*
X142703495Y-83197570D01*
X142703494Y-83197570D01*
X142698513Y-83195247D01*
X142693205Y-83193825D01*
X142693203Y-83193824D01*
X142478108Y-83136190D01*
X142478106Y-83136190D01*
X142472793Y-83134766D01*
X142240000Y-83114399D01*
X142007207Y-83134766D01*
X142001894Y-83136190D01*
X142001892Y-83136190D01*
X141786797Y-83193824D01*
X141786795Y-83193825D01*
X141781487Y-83195247D01*
X141776506Y-83197569D01*
X141776505Y-83197570D01*
X141574687Y-83291679D01*
X141574682Y-83291682D01*
X141569700Y-83294005D01*
X141565193Y-83297161D01*
X141565191Y-83297162D01*
X141382789Y-83424881D01*
X141382786Y-83424883D01*
X141378278Y-83428040D01*
X141213040Y-83593278D01*
X141209883Y-83597786D01*
X141209881Y-83597789D01*
X141181185Y-83638771D01*
X141125727Y-83683099D01*
X141077972Y-83692500D01*
X138480527Y-83692500D01*
X138412406Y-83672498D01*
X138391432Y-83655595D01*
X136880252Y-82144414D01*
X136846226Y-82082102D01*
X136850574Y-82013259D01*
X136860008Y-81986619D01*
X136861732Y-81981751D01*
X136904962Y-81739061D01*
X136906377Y-81623245D01*
X136907911Y-81497740D01*
X136907911Y-81497738D01*
X136907974Y-81492570D01*
X136870686Y-81248896D01*
X136794102Y-81014584D01*
X136707572Y-80848362D01*
X136682665Y-80800516D01*
X136682664Y-80800515D01*
X136680276Y-80795927D01*
X136654063Y-80761014D01*
X136535371Y-80602932D01*
X136535369Y-80602930D01*
X136532266Y-80598797D01*
X136354048Y-80428488D01*
X136349769Y-80425569D01*
X136348313Y-80424390D01*
X136307960Y-80365976D01*
X136305594Y-80295019D01*
X136342806Y-80233275D01*
X136507530Y-80083388D01*
X136510729Y-80079337D01*
X136510733Y-80079333D01*
X136657110Y-79893988D01*
X136657112Y-79893984D01*
X136660312Y-79889933D01*
X136662976Y-79885108D01*
X136663074Y-79885011D01*
X136665673Y-79881099D01*
X136666480Y-79881635D01*
X136713407Y-79835137D01*
X136773285Y-79820000D01*
X143125124Y-79820000D01*
X143144074Y-79821433D01*
X143158473Y-79823624D01*
X143158479Y-79823624D01*
X143165708Y-79824724D01*
X143173000Y-79824131D01*
X143173003Y-79824131D01*
X143218683Y-79820415D01*
X143228898Y-79820000D01*
X143237025Y-79820000D01*
X143240661Y-79819576D01*
X143240663Y-79819576D01*
X143244115Y-79819173D01*
X143265424Y-79816689D01*
X143269744Y-79816262D01*
X143342926Y-79810309D01*
X143349888Y-79808053D01*
X143355876Y-79806857D01*
X143361833Y-79805449D01*
X143369107Y-79804601D01*
X143375989Y-79802103D01*
X143375993Y-79802102D01*
X143438107Y-79779555D01*
X143442211Y-79778145D01*
X143512075Y-79755513D01*
X143518338Y-79751713D01*
X143523880Y-79749175D01*
X143529356Y-79746433D01*
X143536241Y-79743934D01*
X143597632Y-79703685D01*
X143601300Y-79701370D01*
X143664081Y-79663273D01*
X143668286Y-79659559D01*
X143668289Y-79659557D01*
X143672505Y-79655833D01*
X143672531Y-79655862D01*
X143675462Y-79653262D01*
X143678816Y-79650458D01*
X143684935Y-79646446D01*
X143738489Y-79589913D01*
X143740866Y-79587472D01*
X145078068Y-78250270D01*
X145140380Y-78216244D01*
X145192284Y-78215895D01*
X145243892Y-78226395D01*
X145243900Y-78226396D01*
X145248963Y-78227426D01*
X145374570Y-78232031D01*
X145473448Y-78235657D01*
X145473452Y-78235657D01*
X145478612Y-78235846D01*
X145483732Y-78235190D01*
X145483734Y-78235190D01*
X145701425Y-78207304D01*
X145701428Y-78207303D01*
X145706552Y-78206647D01*
X145926663Y-78140610D01*
X146133033Y-78039511D01*
X146176501Y-78008506D01*
X146315916Y-77909062D01*
X146320119Y-77906064D01*
X146337757Y-77888488D01*
X146479237Y-77747500D01*
X146482898Y-77743852D01*
X146616997Y-77557233D01*
X146718816Y-77351217D01*
X146734739Y-77298808D01*
X146784117Y-77136291D01*
X146784118Y-77136285D01*
X146785621Y-77131339D01*
X146815616Y-76903502D01*
X146817290Y-76835000D01*
X146811058Y-76759194D01*
X146798884Y-76611121D01*
X146798883Y-76611115D01*
X146798460Y-76605970D01*
X146742477Y-76383090D01*
X146650843Y-76172347D01*
X146645431Y-76163981D01*
X146528830Y-75983743D01*
X146528828Y-75983740D01*
X146526020Y-75979400D01*
X146459005Y-75905751D01*
X146374837Y-75813252D01*
X146374835Y-75813251D01*
X146371359Y-75809430D01*
X146367308Y-75806231D01*
X146367304Y-75806227D01*
X146195069Y-75670204D01*
X146195064Y-75670201D01*
X146191015Y-75667003D01*
X146190590Y-75666768D01*
X146145796Y-75613452D01*
X146136766Y-75543032D01*
X146167240Y-75478908D01*
X146188026Y-75460285D01*
X146315916Y-75369062D01*
X146320119Y-75366064D01*
X146326554Y-75359652D01*
X146479237Y-75207500D01*
X146482898Y-75203852D01*
X146616997Y-75017233D01*
X146718816Y-74811217D01*
X146734739Y-74758808D01*
X146784117Y-74596291D01*
X146784118Y-74596285D01*
X146785621Y-74591339D01*
X146815616Y-74363502D01*
X146817290Y-74295000D01*
X146811058Y-74219194D01*
X146798884Y-74071121D01*
X146798883Y-74071115D01*
X146798460Y-74065970D01*
X146742477Y-73843090D01*
X146650843Y-73632347D01*
X146645431Y-73623981D01*
X146528830Y-73443743D01*
X146528828Y-73443740D01*
X146526020Y-73439400D01*
X146459005Y-73365751D01*
X146374837Y-73273252D01*
X146374835Y-73273251D01*
X146371359Y-73269430D01*
X146367308Y-73266231D01*
X146367304Y-73266227D01*
X146195073Y-73130208D01*
X146191015Y-73127003D01*
X146076417Y-73063741D01*
X146026447Y-73013309D01*
X146011675Y-72943866D01*
X146036792Y-72877460D01*
X146065041Y-72850220D01*
X146100764Y-72825207D01*
X146109139Y-72814729D01*
X146102071Y-72801281D01*
X145427812Y-72127022D01*
X145413868Y-72119408D01*
X145412035Y-72119539D01*
X145405420Y-72123790D01*
X144727207Y-72802003D01*
X144720777Y-72813777D01*
X144730072Y-72825791D01*
X144764901Y-72850178D01*
X144809230Y-72905635D01*
X144816540Y-72976254D01*
X144784509Y-73039615D01*
X144750816Y-73065152D01*
X144667753Y-73108392D01*
X144663620Y-73111495D01*
X144663617Y-73111497D01*
X144488118Y-73243265D01*
X144483983Y-73246370D01*
X144325216Y-73412510D01*
X144195716Y-73602350D01*
X144098961Y-73810792D01*
X144037548Y-74032237D01*
X144013129Y-74260739D01*
X144026357Y-74490161D01*
X144027492Y-74495198D01*
X144027493Y-74495204D01*
X144075741Y-74709297D01*
X144076878Y-74714342D01*
X144163336Y-74927261D01*
X144166033Y-74931662D01*
X144166034Y-74931664D01*
X144215628Y-75012594D01*
X144283408Y-75123200D01*
X144433869Y-75296898D01*
X144437844Y-75300198D01*
X144437847Y-75300201D01*
X144482981Y-75337672D01*
X144610679Y-75443689D01*
X144615143Y-75446297D01*
X144615145Y-75446299D01*
X144632352Y-75456354D01*
X144681075Y-75507994D01*
X144694145Y-75577777D01*
X144667412Y-75643548D01*
X144644433Y-75665901D01*
X144494762Y-75778277D01*
X144483983Y-75786370D01*
X144325216Y-75952510D01*
X144195716Y-76142350D01*
X144098961Y-76350792D01*
X144037548Y-76572237D01*
X144013129Y-76800739D01*
X144026357Y-77030161D01*
X144027491Y-77035195D01*
X144027493Y-77035206D01*
X144032273Y-77056415D01*
X144027737Y-77127266D01*
X143998451Y-77173211D01*
X142913567Y-78258095D01*
X142851255Y-78292121D01*
X142824472Y-78295000D01*
X136772571Y-78295000D01*
X136704450Y-78274998D01*
X136671811Y-78244653D01*
X136660499Y-78229586D01*
X136580338Y-78122823D01*
X136535371Y-78062932D01*
X136535369Y-78062930D01*
X136532266Y-78058797D01*
X136354048Y-77888488D01*
X136349769Y-77885569D01*
X136348313Y-77884390D01*
X136307960Y-77825976D01*
X136305594Y-77755019D01*
X136342806Y-77693275D01*
X136507530Y-77543388D01*
X136510729Y-77539337D01*
X136510733Y-77539333D01*
X136657111Y-77353986D01*
X136660312Y-77349933D01*
X136675065Y-77323209D01*
X136776950Y-77138644D01*
X136776951Y-77138641D01*
X136779446Y-77134122D01*
X136861732Y-76901751D01*
X136904962Y-76659061D01*
X136907974Y-76412570D01*
X136870686Y-76168896D01*
X136794102Y-75934584D01*
X136727283Y-75806227D01*
X136682665Y-75720516D01*
X136682664Y-75720515D01*
X136680276Y-75715927D01*
X136654063Y-75681014D01*
X136535371Y-75522932D01*
X136535369Y-75522930D01*
X136532266Y-75518797D01*
X136354048Y-75348488D01*
X136349769Y-75345569D01*
X136348313Y-75344390D01*
X136307960Y-75285976D01*
X136305594Y-75215019D01*
X136342806Y-75153275D01*
X136507530Y-75003388D01*
X136510729Y-74999337D01*
X136510733Y-74999333D01*
X136657111Y-74813986D01*
X136660312Y-74809933D01*
X136675065Y-74783209D01*
X136776950Y-74598644D01*
X136776951Y-74598641D01*
X136779446Y-74594122D01*
X136861732Y-74361751D01*
X136904962Y-74119061D01*
X136907974Y-73872570D01*
X136870686Y-73628896D01*
X136794102Y-73394584D01*
X136680276Y-73175927D01*
X136654063Y-73141014D01*
X136535371Y-72982932D01*
X136535369Y-72982930D01*
X136532266Y-72978797D01*
X136354048Y-72808488D01*
X136349769Y-72805569D01*
X136348313Y-72804390D01*
X136307960Y-72745976D01*
X136305594Y-72675019D01*
X136342806Y-72613275D01*
X136507530Y-72463388D01*
X136510729Y-72459337D01*
X136510733Y-72459333D01*
X136657111Y-72273986D01*
X136660312Y-72269933D01*
X136675065Y-72243209D01*
X136776950Y-72058644D01*
X136776951Y-72058641D01*
X136779446Y-72054122D01*
X136861732Y-71821751D01*
X136872647Y-71760475D01*
X144140628Y-71760475D01*
X144159038Y-71970896D01*
X144160941Y-71981691D01*
X144215609Y-72185715D01*
X144219355Y-72196007D01*
X144308623Y-72387441D01*
X144314103Y-72396932D01*
X144344794Y-72440765D01*
X144355271Y-72449140D01*
X144368718Y-72442072D01*
X145042978Y-71767812D01*
X145049356Y-71756132D01*
X145779408Y-71756132D01*
X145779539Y-71757965D01*
X145783790Y-71764580D01*
X146462003Y-72442793D01*
X146473777Y-72449223D01*
X146485793Y-72439926D01*
X146515897Y-72396932D01*
X146521377Y-72387441D01*
X146610645Y-72196007D01*
X146614391Y-72185715D01*
X146669059Y-71981691D01*
X146670962Y-71970896D01*
X146689372Y-71760475D01*
X146689372Y-71749525D01*
X146670962Y-71539104D01*
X146669059Y-71528309D01*
X146614391Y-71324285D01*
X146610645Y-71313993D01*
X146521377Y-71122559D01*
X146515897Y-71113068D01*
X146485206Y-71069235D01*
X146474729Y-71060860D01*
X146461282Y-71067928D01*
X145787022Y-71742188D01*
X145779408Y-71756132D01*
X145049356Y-71756132D01*
X145050592Y-71753868D01*
X145050461Y-71752035D01*
X145046210Y-71745420D01*
X144367997Y-71067207D01*
X144356223Y-71060777D01*
X144344207Y-71070074D01*
X144314103Y-71113068D01*
X144308623Y-71122559D01*
X144219355Y-71313993D01*
X144215609Y-71324285D01*
X144160941Y-71528309D01*
X144159038Y-71539104D01*
X144140628Y-71749525D01*
X144140628Y-71760475D01*
X136872647Y-71760475D01*
X136904962Y-71579061D01*
X136907974Y-71332570D01*
X136870686Y-71088896D01*
X136794102Y-70854584D01*
X136680276Y-70635927D01*
X136657059Y-70605004D01*
X136535371Y-70442932D01*
X136535369Y-70442930D01*
X136532266Y-70438797D01*
X136354048Y-70268488D01*
X136349769Y-70265569D01*
X136348313Y-70264390D01*
X136307960Y-70205976D01*
X136305594Y-70135019D01*
X136342806Y-70073275D01*
X136507530Y-69923388D01*
X136510729Y-69919337D01*
X136510733Y-69919333D01*
X136657111Y-69733986D01*
X136660312Y-69729933D01*
X136675065Y-69703209D01*
X136776950Y-69518644D01*
X136776951Y-69518641D01*
X136779446Y-69514122D01*
X136861732Y-69281751D01*
X136879725Y-69180739D01*
X144013129Y-69180739D01*
X144013426Y-69185892D01*
X144013426Y-69185895D01*
X144015298Y-69218365D01*
X144026357Y-69410161D01*
X144027492Y-69415198D01*
X144027493Y-69415204D01*
X144071799Y-69611804D01*
X144076878Y-69634342D01*
X144163336Y-69847261D01*
X144166033Y-69851662D01*
X144166034Y-69851664D01*
X144215628Y-69932594D01*
X144283408Y-70043200D01*
X144433869Y-70216898D01*
X144437844Y-70220198D01*
X144437847Y-70220201D01*
X144487864Y-70261726D01*
X144610679Y-70363689D01*
X144755496Y-70448313D01*
X144804220Y-70499952D01*
X144817291Y-70569734D01*
X144790560Y-70635506D01*
X144764196Y-70660314D01*
X144729236Y-70684793D01*
X144720860Y-70695271D01*
X144727928Y-70708718D01*
X145402188Y-71382978D01*
X145416132Y-71390592D01*
X145417965Y-71390461D01*
X145424580Y-71386210D01*
X146102793Y-70707997D01*
X146109223Y-70696223D01*
X146099928Y-70684209D01*
X146066012Y-70660461D01*
X146021683Y-70605004D01*
X146014374Y-70534384D01*
X146046404Y-70471024D01*
X146082849Y-70444096D01*
X146100957Y-70435225D01*
X146128392Y-70421785D01*
X146128396Y-70421783D01*
X146133033Y-70419511D01*
X146320119Y-70286064D01*
X146337757Y-70268488D01*
X146479237Y-70127500D01*
X146482898Y-70123852D01*
X146616997Y-69937233D01*
X146718816Y-69731217D01*
X146734739Y-69678808D01*
X146784117Y-69516291D01*
X146784118Y-69516285D01*
X146785621Y-69511339D01*
X146801544Y-69390389D01*
X146815179Y-69286823D01*
X146815179Y-69286819D01*
X146815616Y-69283502D01*
X146817290Y-69215000D01*
X146811058Y-69139194D01*
X146798884Y-68991121D01*
X146798883Y-68991115D01*
X146798460Y-68985970D01*
X146742477Y-68763090D01*
X146650843Y-68552347D01*
X146645431Y-68543981D01*
X146528830Y-68363743D01*
X146528828Y-68363740D01*
X146526020Y-68359400D01*
X146494832Y-68325124D01*
X146374837Y-68193252D01*
X146374835Y-68193251D01*
X146371359Y-68189430D01*
X146367308Y-68186231D01*
X146367304Y-68186227D01*
X146195069Y-68050204D01*
X146195064Y-68050201D01*
X146191015Y-68047003D01*
X146190590Y-68046768D01*
X146145796Y-67993452D01*
X146136766Y-67923032D01*
X146167240Y-67858908D01*
X146188026Y-67840285D01*
X146315916Y-67749062D01*
X146320119Y-67746064D01*
X146337757Y-67728488D01*
X146479237Y-67587500D01*
X146482898Y-67583852D01*
X146616997Y-67397233D01*
X146718816Y-67191217D01*
X146734739Y-67138808D01*
X146784117Y-66976291D01*
X146784118Y-66976285D01*
X146785621Y-66971339D01*
X146815616Y-66743502D01*
X146817290Y-66675000D01*
X146809630Y-66581836D01*
X146798884Y-66451121D01*
X146798883Y-66451115D01*
X146798460Y-66445970D01*
X146742477Y-66223090D01*
X146650843Y-66012347D01*
X146638190Y-65992788D01*
X146528830Y-65823743D01*
X146528828Y-65823740D01*
X146526020Y-65819400D01*
X146398843Y-65679634D01*
X146367791Y-65615789D01*
X146376187Y-65545290D01*
X146421364Y-65490522D01*
X146431460Y-65484982D01*
X146431393Y-65484869D01*
X146562777Y-65407169D01*
X146569598Y-65403135D01*
X146683135Y-65289598D01*
X146764869Y-65151393D01*
X146783727Y-65086483D01*
X146807871Y-65003381D01*
X146807872Y-65003376D01*
X146809665Y-64997204D01*
X146811367Y-64975581D01*
X146812307Y-64963638D01*
X146812307Y-64963629D01*
X146812500Y-64961181D01*
X146812499Y-63308820D01*
X146809665Y-63272796D01*
X146799229Y-63236873D01*
X146767081Y-63126220D01*
X146767080Y-63126218D01*
X146764869Y-63118607D01*
X146683135Y-62980402D01*
X146569598Y-62866865D01*
X146562777Y-62862831D01*
X146438216Y-62789166D01*
X146438215Y-62789166D01*
X146431393Y-62785131D01*
X146423782Y-62782920D01*
X146423780Y-62782919D01*
X146283381Y-62742129D01*
X146283376Y-62742128D01*
X146277204Y-62740335D01*
X146255581Y-62738633D01*
X146243638Y-62737693D01*
X146243629Y-62737693D01*
X146241181Y-62737500D01*
X145415669Y-62737500D01*
X144588820Y-62737501D01*
X144569577Y-62739015D01*
X144559214Y-62739830D01*
X144559213Y-62739830D01*
X144552796Y-62740335D01*
X144546616Y-62742130D01*
X144546613Y-62742131D01*
X144406220Y-62782919D01*
X144406218Y-62782920D01*
X144398607Y-62785131D01*
X144391785Y-62789166D01*
X144391784Y-62789166D01*
X144267223Y-62862831D01*
X144260402Y-62866865D01*
X144146865Y-62980402D01*
X144065131Y-63118607D01*
X144062920Y-63126218D01*
X144062919Y-63126220D01*
X144022129Y-63266619D01*
X144022128Y-63266624D01*
X144020335Y-63272796D01*
X144019831Y-63279206D01*
X144017694Y-63306356D01*
X144017500Y-63308819D01*
X144017501Y-64961180D01*
X144020335Y-64997204D01*
X144022130Y-65003381D01*
X144022131Y-65003387D01*
X144046273Y-65086483D01*
X144065131Y-65151393D01*
X144146865Y-65289598D01*
X144260402Y-65403135D01*
X144267223Y-65407169D01*
X144398607Y-65484869D01*
X144397568Y-65486627D01*
X144443905Y-65525187D01*
X144465263Y-65592895D01*
X144446624Y-65661401D01*
X144430382Y-65682460D01*
X144325216Y-65792510D01*
X144322302Y-65796782D01*
X144322301Y-65796783D01*
X144306873Y-65819400D01*
X144195716Y-65982350D01*
X144098961Y-66190792D01*
X144037548Y-66412237D01*
X144013129Y-66640739D01*
X144026357Y-66870161D01*
X144027492Y-66875198D01*
X144027493Y-66875204D01*
X144048002Y-66966210D01*
X144076878Y-67094342D01*
X144163336Y-67307261D01*
X144166033Y-67311662D01*
X144166034Y-67311664D01*
X144232029Y-67419357D01*
X144283408Y-67503200D01*
X144433869Y-67676898D01*
X144437844Y-67680198D01*
X144437847Y-67680201D01*
X144492498Y-67725573D01*
X144610679Y-67823689D01*
X144615143Y-67826297D01*
X144615145Y-67826299D01*
X144632352Y-67836354D01*
X144681075Y-67887994D01*
X144694145Y-67957777D01*
X144667412Y-68023548D01*
X144644433Y-68045901D01*
X144489119Y-68162514D01*
X144483983Y-68166370D01*
X144325216Y-68332510D01*
X144322302Y-68336782D01*
X144322301Y-68336783D01*
X144291469Y-68381981D01*
X144195716Y-68522350D01*
X144098961Y-68730792D01*
X144037548Y-68952237D01*
X144013129Y-69180739D01*
X136879725Y-69180739D01*
X136904962Y-69039061D01*
X136907974Y-68792570D01*
X136870686Y-68548896D01*
X136794102Y-68314584D01*
X136680276Y-68095927D01*
X136677100Y-68091696D01*
X136535371Y-67902932D01*
X136535369Y-67902930D01*
X136532266Y-67898797D01*
X136450212Y-67820384D01*
X136357785Y-67732059D01*
X136357784Y-67732058D01*
X136354048Y-67728488D01*
X136316535Y-67702898D01*
X136154685Y-67592492D01*
X136154686Y-67592492D01*
X136150406Y-67589573D01*
X135972741Y-67507103D01*
X135931502Y-67487960D01*
X135931497Y-67487958D01*
X135926811Y-67485783D01*
X135689266Y-67419906D01*
X135668933Y-67417733D01*
X135491363Y-67398756D01*
X135491355Y-67398756D01*
X135488028Y-67398400D01*
X135040106Y-67398400D01*
X135037533Y-67398612D01*
X135037522Y-67398612D01*
X134862070Y-67413037D01*
X134862064Y-67413038D01*
X134856919Y-67413461D01*
X134737377Y-67443488D01*
X134622847Y-67472255D01*
X134622843Y-67472256D01*
X134617836Y-67473514D01*
X134613103Y-67475572D01*
X134613100Y-67475573D01*
X134396508Y-67569750D01*
X134396505Y-67569752D01*
X134391771Y-67571810D01*
X134285592Y-67640500D01*
X134189139Y-67702898D01*
X134189136Y-67702900D01*
X134184796Y-67705708D01*
X134180973Y-67709187D01*
X134180970Y-67709189D01*
X134006292Y-67868134D01*
X134002470Y-67871612D01*
X133999271Y-67875663D01*
X133999267Y-67875667D01*
X133934421Y-67957777D01*
X133849688Y-68065067D01*
X133847195Y-68069583D01*
X133847193Y-68069586D01*
X133741414Y-68261205D01*
X133730554Y-68280878D01*
X133648268Y-68513249D01*
X133647361Y-68518338D01*
X133647361Y-68518340D01*
X133641007Y-68554009D01*
X133605038Y-68755939D01*
X133604975Y-68761103D01*
X133602577Y-68957373D01*
X133602026Y-69002430D01*
X133639314Y-69246104D01*
X133715898Y-69480416D01*
X133829724Y-69699073D01*
X133832827Y-69703206D01*
X133832829Y-69703209D01*
X133930348Y-69833091D01*
X133977734Y-69896203D01*
X134155952Y-70066512D01*
X134160231Y-70069431D01*
X134161687Y-70070610D01*
X134202040Y-70129024D01*
X134204406Y-70199981D01*
X134167194Y-70261725D01*
X134002470Y-70411612D01*
X133999271Y-70415663D01*
X133999267Y-70415667D01*
X133932703Y-70499952D01*
X133849688Y-70605067D01*
X133847195Y-70609583D01*
X133847193Y-70609586D01*
X133733050Y-70816356D01*
X133730554Y-70820878D01*
X133648268Y-71053249D01*
X133605038Y-71295939D01*
X133604975Y-71301103D01*
X133602199Y-71528309D01*
X133602026Y-71542430D01*
X133639314Y-71786104D01*
X133715898Y-72020416D01*
X133829724Y-72239073D01*
X133832827Y-72243206D01*
X133832829Y-72243209D01*
X133941122Y-72387441D01*
X133977734Y-72436203D01*
X134155952Y-72606512D01*
X134160231Y-72609431D01*
X134161687Y-72610610D01*
X134202040Y-72669024D01*
X134204406Y-72739981D01*
X134167194Y-72801725D01*
X134002470Y-72951612D01*
X133999271Y-72955663D01*
X133999267Y-72955667D01*
X133912798Y-73065156D01*
X133849688Y-73145067D01*
X133847195Y-73149583D01*
X133847193Y-73149586D01*
X133791702Y-73250108D01*
X133730554Y-73360878D01*
X133648268Y-73593249D01*
X133647361Y-73598338D01*
X133647361Y-73598340D01*
X133641007Y-73634009D01*
X133605038Y-73835939D01*
X133604975Y-73841103D01*
X133602577Y-74037373D01*
X133602026Y-74082430D01*
X133639314Y-74326104D01*
X133715898Y-74560416D01*
X133829724Y-74779073D01*
X133832827Y-74783206D01*
X133832829Y-74783209D01*
X133857343Y-74815858D01*
X133977734Y-74976203D01*
X134155952Y-75146512D01*
X134160231Y-75149431D01*
X134161687Y-75150610D01*
X134202040Y-75209024D01*
X134204406Y-75279981D01*
X134167194Y-75341725D01*
X134002470Y-75491612D01*
X133999271Y-75495663D01*
X133999267Y-75495667D01*
X133934421Y-75577777D01*
X133849688Y-75685067D01*
X133847195Y-75689583D01*
X133847193Y-75689586D01*
X133753877Y-75858628D01*
X133730554Y-75900878D01*
X133648268Y-76133249D01*
X133647361Y-76138338D01*
X133647361Y-76138340D01*
X133641007Y-76174009D01*
X133605038Y-76375939D01*
X133604975Y-76381103D01*
X133602577Y-76577373D01*
X133602026Y-76622430D01*
X133639314Y-76866104D01*
X133715898Y-77100416D01*
X133829724Y-77319073D01*
X133832827Y-77323206D01*
X133832829Y-77323209D01*
X133857343Y-77355858D01*
X133977734Y-77516203D01*
X134155952Y-77686512D01*
X134160231Y-77689431D01*
X134161687Y-77690610D01*
X134202040Y-77749024D01*
X134204406Y-77819981D01*
X134167194Y-77881725D01*
X134002470Y-78031612D01*
X133999271Y-78035663D01*
X133999267Y-78035667D01*
X133918186Y-78138334D01*
X133849688Y-78225067D01*
X133847195Y-78229583D01*
X133847193Y-78229586D01*
X133812672Y-78292121D01*
X133730554Y-78440878D01*
X133648268Y-78673249D01*
X133605038Y-78915939D01*
X133602026Y-79162430D01*
X133639314Y-79406104D01*
X133715898Y-79640416D01*
X133730908Y-79669249D01*
X133807530Y-79816438D01*
X133829724Y-79859073D01*
X133832827Y-79863206D01*
X133832829Y-79863209D01*
X133855939Y-79893988D01*
X133977734Y-80056203D01*
X134155952Y-80226512D01*
X134160231Y-80229431D01*
X134161687Y-80230610D01*
X134202040Y-80289024D01*
X134204406Y-80359981D01*
X134167194Y-80421725D01*
X134002470Y-80571612D01*
X133999271Y-80575663D01*
X133999267Y-80575667D01*
X133960298Y-80625011D01*
X133849688Y-80765067D01*
X133847195Y-80769583D01*
X133847193Y-80769586D01*
X133756318Y-80934206D01*
X133730554Y-80980878D01*
X133648268Y-81213249D01*
X133605038Y-81455939D01*
X133602026Y-81702430D01*
X133639314Y-81946104D01*
X133640922Y-81951023D01*
X133661773Y-82014820D01*
X133663924Y-82085784D01*
X133631103Y-82143059D01*
X132985952Y-82788210D01*
X132971539Y-82800597D01*
X132953916Y-82813566D01*
X132935690Y-82835019D01*
X132919501Y-82854075D01*
X132912571Y-82861591D01*
X132906827Y-82867335D01*
X132904553Y-82870209D01*
X132904547Y-82870216D01*
X132889108Y-82889731D01*
X132886317Y-82893135D01*
X132843535Y-82943492D01*
X132843532Y-82943496D01*
X132838796Y-82949071D01*
X132835468Y-82955588D01*
X132832091Y-82960652D01*
X132828864Y-82965876D01*
X132824320Y-82971620D01*
X132821221Y-82978251D01*
X132793248Y-83038102D01*
X132791317Y-83042053D01*
X132757937Y-83107424D01*
X132756196Y-83114539D01*
X132754059Y-83120285D01*
X132752135Y-83126068D01*
X132749036Y-83132699D01*
X132738023Y-83185650D01*
X132734088Y-83204567D01*
X132733119Y-83208849D01*
X132715676Y-83280132D01*
X132714980Y-83291350D01*
X132714941Y-83291348D01*
X132714708Y-83295249D01*
X132714319Y-83299608D01*
X132712828Y-83306776D01*
X132713026Y-83314093D01*
X132714934Y-83384597D01*
X132714980Y-83388006D01*
X132714980Y-102612604D01*
X132713547Y-102631554D01*
X132711356Y-102645953D01*
X132711356Y-102645959D01*
X132710256Y-102653188D01*
X132710849Y-102660480D01*
X132710849Y-102660483D01*
X132714565Y-102706163D01*
X132714980Y-102716378D01*
X132714980Y-102724505D01*
X132718291Y-102752904D01*
X132718718Y-102757224D01*
X132724671Y-102830406D01*
X132726927Y-102837368D01*
X132728123Y-102843356D01*
X132729531Y-102849313D01*
X132730379Y-102856587D01*
X132732877Y-102863469D01*
X132732878Y-102863473D01*
X132755425Y-102925587D01*
X132756835Y-102929691D01*
X132779467Y-102999555D01*
X132783267Y-103005818D01*
X132785805Y-103011360D01*
X132788547Y-103016836D01*
X132791046Y-103023721D01*
X132795061Y-103029845D01*
X132831295Y-103085112D01*
X132833610Y-103088780D01*
X132871707Y-103151561D01*
X132875421Y-103155766D01*
X132875423Y-103155769D01*
X132879147Y-103159985D01*
X132879118Y-103160011D01*
X132881718Y-103162942D01*
X132884522Y-103166296D01*
X132888534Y-103172415D01*
X132893846Y-103177447D01*
X132945066Y-103225968D01*
X132947508Y-103228346D01*
X133629748Y-103910586D01*
X133663774Y-103972898D01*
X133659426Y-104041739D01*
X133648268Y-104073249D01*
X133605038Y-104315939D01*
X133602026Y-104562430D01*
X133639314Y-104806104D01*
X133715898Y-105040416D01*
X133829724Y-105259073D01*
X133832827Y-105263206D01*
X133832829Y-105263209D01*
X133932365Y-105395778D01*
X133977734Y-105456203D01*
X134155952Y-105626512D01*
X134160224Y-105629426D01*
X134160225Y-105629427D01*
X134205073Y-105660020D01*
X134359594Y-105765427D01*
X134397861Y-105783190D01*
X134437765Y-105801713D01*
X134491132Y-105848537D01*
X134510712Y-105916780D01*
X134490288Y-105984776D01*
X134436346Y-106030935D01*
X134384714Y-106042000D01*
X134319678Y-106042000D01*
X134098679Y-106056679D01*
X133807564Y-106115378D01*
X133526770Y-106212063D01*
X133523037Y-106213932D01*
X133523033Y-106213934D01*
X133394277Y-106278411D01*
X133261230Y-106345036D01*
X133015609Y-106511960D01*
X133012495Y-106514744D01*
X133012494Y-106514745D01*
X132797336Y-106707117D01*
X132797330Y-106707123D01*
X132794222Y-106709902D01*
X132791505Y-106713072D01*
X132791504Y-106713073D01*
X132661422Y-106864843D01*
X132600959Y-106935386D01*
X132598685Y-106938888D01*
X132598681Y-106938893D01*
X132491305Y-107104237D01*
X132439215Y-107184449D01*
X132437421Y-107188227D01*
X132437420Y-107188229D01*
X132326387Y-107422066D01*
X132311833Y-107452716D01*
X132221050Y-107735473D01*
X132168460Y-108027754D01*
X132168271Y-108031926D01*
X132159250Y-108230578D01*
X132154988Y-108324422D01*
X132180871Y-108620265D01*
X132245654Y-108910087D01*
X132348199Y-109188795D01*
X132350143Y-109192483D01*
X132350147Y-109192491D01*
X132384109Y-109256905D01*
X132486703Y-109451492D01*
X132658735Y-109693564D01*
X132661590Y-109696626D01*
X132661592Y-109696628D01*
X132729609Y-109769568D01*
X132761439Y-109833030D01*
X132753906Y-109903626D01*
X132709402Y-109958942D01*
X132637459Y-109981500D01*
X114952811Y-109981500D01*
X114884690Y-109961498D01*
X114838197Y-109907842D01*
X114828093Y-109837568D01*
X114857143Y-109773502D01*
X114986321Y-109622788D01*
X114986324Y-109622784D01*
X114989041Y-109619614D01*
X114991315Y-109616112D01*
X114991319Y-109616107D01*
X115148506Y-109374061D01*
X115148509Y-109374056D01*
X115150785Y-109370551D01*
X115278167Y-109102284D01*
X115368950Y-108819527D01*
X115421540Y-108527246D01*
X115430562Y-108328574D01*
X115434823Y-108234748D01*
X115434823Y-108234743D01*
X115435012Y-108230578D01*
X115409129Y-107934735D01*
X115377631Y-107793818D01*
X115345258Y-107648992D01*
X115345257Y-107648989D01*
X115344346Y-107644913D01*
X115241801Y-107366205D01*
X115239857Y-107362517D01*
X115239853Y-107362509D01*
X115105250Y-107107212D01*
X115105249Y-107107211D01*
X115103297Y-107103508D01*
X114931265Y-106861436D01*
X114728730Y-106644244D01*
X114499248Y-106455745D01*
X114246852Y-106299253D01*
X113975977Y-106177517D01*
X113764762Y-106114551D01*
X113695379Y-106093867D01*
X113695377Y-106093867D01*
X113691380Y-106092675D01*
X113687260Y-106092022D01*
X113687258Y-106092022D01*
X113537855Y-106068359D01*
X113398063Y-106046218D01*
X113355892Y-106044303D01*
X113306594Y-106042064D01*
X113306575Y-106042064D01*
X113305175Y-106042000D01*
X113268776Y-106042000D01*
X113200655Y-106021998D01*
X113154162Y-105968342D01*
X113144058Y-105898068D01*
X113173552Y-105833488D01*
X113218533Y-105800451D01*
X113253486Y-105785253D01*
X113253493Y-105785249D01*
X113258229Y-105783190D01*
X113394144Y-105695263D01*
X113460861Y-105652102D01*
X113460864Y-105652100D01*
X113465204Y-105649292D01*
X113487036Y-105629427D01*
X113643708Y-105486866D01*
X113643710Y-105486864D01*
X113647530Y-105483388D01*
X113650729Y-105479337D01*
X113650733Y-105479333D01*
X113797111Y-105293986D01*
X113800312Y-105289933D01*
X113802994Y-105285076D01*
X113916950Y-105078644D01*
X113916951Y-105078641D01*
X113919446Y-105074122D01*
X114001732Y-104841751D01*
X114044962Y-104599061D01*
X114047367Y-104402232D01*
X114047911Y-104357740D01*
X114047911Y-104357738D01*
X114047974Y-104352570D01*
X114010686Y-104108896D01*
X113934102Y-103874584D01*
X113860686Y-103733553D01*
X113822665Y-103660516D01*
X113822664Y-103660515D01*
X113820276Y-103655927D01*
X113803830Y-103634022D01*
X113675371Y-103462932D01*
X113675369Y-103462930D01*
X113672266Y-103458797D01*
X113494048Y-103288488D01*
X113385874Y-103214697D01*
X113340872Y-103159786D01*
X113332701Y-103089261D01*
X113363955Y-103025514D01*
X113386512Y-103006089D01*
X113405531Y-102993285D01*
X113413816Y-102986624D01*
X113574520Y-102833320D01*
X113581569Y-102825352D01*
X113714144Y-102647164D01*
X113719743Y-102638134D01*
X113820402Y-102440153D01*
X113824405Y-102430292D01*
X113890263Y-102218199D01*
X113892548Y-102207804D01*
X113894980Y-102189459D01*
X113892783Y-102175292D01*
X113879599Y-102171500D01*
X110912512Y-102171500D01*
X110898981Y-102175473D01*
X110897456Y-102186080D01*
X110923004Y-102307843D01*
X110926064Y-102318039D01*
X111008878Y-102527739D01*
X111015296Y-102598445D01*
X110982468Y-102661396D01*
X110920818Y-102696606D01*
X110849918Y-102692896D01*
X110802591Y-102663115D01*
X107621906Y-99482430D01*
X110742026Y-99482430D01*
X110779314Y-99726104D01*
X110855898Y-99960416D01*
X110969724Y-100179073D01*
X110972827Y-100183206D01*
X110972829Y-100183209D01*
X111060284Y-100299687D01*
X111117734Y-100376203D01*
X111295952Y-100546512D01*
X111404126Y-100620303D01*
X111449128Y-100675214D01*
X111457299Y-100745739D01*
X111426045Y-100809486D01*
X111403488Y-100828911D01*
X111384469Y-100841715D01*
X111376184Y-100848376D01*
X111215480Y-101001680D01*
X111208431Y-101009648D01*
X111075856Y-101187836D01*
X111070257Y-101196866D01*
X110969598Y-101394847D01*
X110965595Y-101404708D01*
X110899737Y-101616801D01*
X110897452Y-101627196D01*
X110895020Y-101645541D01*
X110897217Y-101659708D01*
X110910401Y-101663500D01*
X113877488Y-101663500D01*
X113891019Y-101659527D01*
X113892544Y-101648920D01*
X113866996Y-101527157D01*
X113863936Y-101516961D01*
X113782363Y-101310403D01*
X113777629Y-101300866D01*
X113662414Y-101110997D01*
X113656150Y-101102407D01*
X113510589Y-100934663D01*
X113502959Y-100927243D01*
X113375778Y-100822962D01*
X113335784Y-100764303D01*
X113333852Y-100693332D01*
X113370596Y-100632584D01*
X113387229Y-100619736D01*
X113411813Y-100603832D01*
X113465204Y-100569292D01*
X113494164Y-100542941D01*
X113643708Y-100406866D01*
X113643710Y-100406864D01*
X113647530Y-100403388D01*
X113650729Y-100399337D01*
X113650733Y-100399333D01*
X113797111Y-100213986D01*
X113800312Y-100209933D01*
X113815065Y-100183209D01*
X113916950Y-99998644D01*
X113916951Y-99998641D01*
X113919446Y-99994122D01*
X114001732Y-99761751D01*
X114044962Y-99519061D01*
X114047974Y-99272570D01*
X114010686Y-99028896D01*
X113934102Y-98794584D01*
X113820276Y-98575927D01*
X113794063Y-98541014D01*
X113675371Y-98382932D01*
X113675369Y-98382930D01*
X113672266Y-98378797D01*
X113494048Y-98208488D01*
X113489769Y-98205569D01*
X113488313Y-98204390D01*
X113447960Y-98145976D01*
X113445594Y-98075019D01*
X113482806Y-98013275D01*
X113647530Y-97863388D01*
X113650729Y-97859337D01*
X113650733Y-97859333D01*
X113797111Y-97673986D01*
X113800312Y-97669933D01*
X113815065Y-97643209D01*
X113916950Y-97458644D01*
X113916951Y-97458641D01*
X113919446Y-97454122D01*
X113987869Y-97260899D01*
X114000007Y-97226623D01*
X114000008Y-97226620D01*
X114001732Y-97221751D01*
X114044962Y-96979061D01*
X114047516Y-96770078D01*
X114047911Y-96737740D01*
X114047911Y-96737738D01*
X114047974Y-96732570D01*
X114010686Y-96488896D01*
X113934102Y-96254584D01*
X113820276Y-96035927D01*
X113794063Y-96001014D01*
X113675371Y-95842932D01*
X113675369Y-95842930D01*
X113672266Y-95838797D01*
X113494048Y-95668488D01*
X113489769Y-95665569D01*
X113488313Y-95664390D01*
X113447960Y-95605976D01*
X113445594Y-95535019D01*
X113482806Y-95473275D01*
X113647530Y-95323388D01*
X113650729Y-95319337D01*
X113650733Y-95319333D01*
X113797111Y-95133986D01*
X113800312Y-95129933D01*
X113806325Y-95119042D01*
X113916950Y-94918644D01*
X113916951Y-94918641D01*
X113919446Y-94914122D01*
X114001732Y-94681751D01*
X114007397Y-94649951D01*
X114018669Y-94586666D01*
X114044962Y-94439061D01*
X114047252Y-94251632D01*
X114047911Y-94197740D01*
X114047911Y-94197738D01*
X114047974Y-94192570D01*
X114010686Y-93948896D01*
X113934102Y-93714584D01*
X113875420Y-93601857D01*
X113822665Y-93500516D01*
X113822664Y-93500515D01*
X113820276Y-93495927D01*
X113794063Y-93461014D01*
X113675371Y-93302932D01*
X113675369Y-93302930D01*
X113672266Y-93298797D01*
X113494048Y-93128488D01*
X113385874Y-93054697D01*
X113340872Y-92999786D01*
X113332701Y-92929261D01*
X113363955Y-92865514D01*
X113386512Y-92846089D01*
X113405531Y-92833285D01*
X113413816Y-92826624D01*
X113574520Y-92673320D01*
X113581569Y-92665352D01*
X113714144Y-92487164D01*
X113719743Y-92478134D01*
X113820402Y-92280153D01*
X113824405Y-92270292D01*
X113890263Y-92058199D01*
X113892548Y-92047804D01*
X113894980Y-92029459D01*
X113892783Y-92015292D01*
X113879599Y-92011500D01*
X110912512Y-92011500D01*
X110898981Y-92015473D01*
X110897456Y-92026080D01*
X110923004Y-92147843D01*
X110926064Y-92158039D01*
X111007637Y-92364597D01*
X111012371Y-92374134D01*
X111127586Y-92564003D01*
X111133850Y-92572593D01*
X111279411Y-92740337D01*
X111287041Y-92747757D01*
X111414222Y-92852038D01*
X111454216Y-92910697D01*
X111456148Y-92981668D01*
X111419404Y-93042416D01*
X111402773Y-93055263D01*
X111324796Y-93105708D01*
X111320973Y-93109187D01*
X111320970Y-93109189D01*
X111295830Y-93132065D01*
X111142470Y-93271612D01*
X111139271Y-93275663D01*
X111139267Y-93275667D01*
X111020056Y-93426615D01*
X110989688Y-93465067D01*
X110987195Y-93469583D01*
X110987193Y-93469586D01*
X110890876Y-93644064D01*
X110870554Y-93680878D01*
X110788268Y-93913249D01*
X110787361Y-93918338D01*
X110787361Y-93918340D01*
X110782794Y-93943981D01*
X110745038Y-94155939D01*
X110744975Y-94161103D01*
X110742420Y-94370217D01*
X110742026Y-94402430D01*
X110779314Y-94646104D01*
X110855898Y-94880416D01*
X110858288Y-94885007D01*
X110949896Y-95060983D01*
X110969724Y-95099073D01*
X110972827Y-95103206D01*
X110972829Y-95103209D01*
X111060284Y-95219687D01*
X111117734Y-95296203D01*
X111295952Y-95466512D01*
X111300231Y-95469431D01*
X111301687Y-95470610D01*
X111342040Y-95529024D01*
X111344406Y-95599981D01*
X111307194Y-95661725D01*
X111142470Y-95811612D01*
X111139271Y-95815663D01*
X111139267Y-95815667D01*
X111020056Y-95966615D01*
X110989688Y-96005067D01*
X110987195Y-96009583D01*
X110987193Y-96009586D01*
X110873050Y-96216356D01*
X110870554Y-96220878D01*
X110788268Y-96453249D01*
X110745038Y-96695939D01*
X110742026Y-96942430D01*
X110779314Y-97186104D01*
X110855898Y-97420416D01*
X110969724Y-97639073D01*
X110972827Y-97643206D01*
X110972829Y-97643209D01*
X111114629Y-97832068D01*
X111117734Y-97836203D01*
X111295952Y-98006512D01*
X111300231Y-98009431D01*
X111301687Y-98010610D01*
X111342040Y-98069024D01*
X111344406Y-98139981D01*
X111307194Y-98201725D01*
X111142470Y-98351612D01*
X111139271Y-98355663D01*
X111139267Y-98355667D01*
X111081861Y-98428356D01*
X110989688Y-98545067D01*
X110987195Y-98549583D01*
X110987193Y-98549586D01*
X110972652Y-98575927D01*
X110870554Y-98760878D01*
X110788268Y-98993249D01*
X110745038Y-99235939D01*
X110742026Y-99482430D01*
X107621906Y-99482430D01*
X100766248Y-92626772D01*
X100732222Y-92564460D01*
X100737287Y-92493645D01*
X100766248Y-92448582D01*
X101366768Y-91848063D01*
X101980823Y-91234008D01*
X101986841Y-91228371D01*
X102031191Y-91189477D01*
X102035530Y-91185672D01*
X102067531Y-91145079D01*
X102090288Y-91116212D01*
X102092364Y-91113649D01*
X102145243Y-91050069D01*
X102145245Y-91050066D01*
X102148937Y-91045627D01*
X102151758Y-91040589D01*
X102153811Y-91037602D01*
X102160044Y-91028274D01*
X102162064Y-91025163D01*
X102165639Y-91020629D01*
X102168326Y-91015522D01*
X102168333Y-91015511D01*
X102206823Y-90942353D01*
X102208396Y-90939454D01*
X102227967Y-90904507D01*
X102251625Y-90862262D01*
X102253478Y-90856802D01*
X102254948Y-90853502D01*
X102259411Y-90843113D01*
X102260804Y-90839750D01*
X102263493Y-90834639D01*
X102289733Y-90750136D01*
X102290726Y-90747077D01*
X102319180Y-90663254D01*
X102320009Y-90657540D01*
X102320852Y-90654028D01*
X102323344Y-90643015D01*
X102324102Y-90639448D01*
X102325815Y-90633932D01*
X102327067Y-90623360D01*
X102334333Y-90561960D01*
X102336217Y-90546048D01*
X102336645Y-90542797D01*
X102349336Y-90455269D01*
X102346108Y-90373112D01*
X102346011Y-90368165D01*
X102346011Y-89322430D01*
X110742026Y-89322430D01*
X110779314Y-89566104D01*
X110855898Y-89800416D01*
X110969724Y-90019073D01*
X110972827Y-90023206D01*
X110972829Y-90023209D01*
X111112933Y-90209809D01*
X111117734Y-90216203D01*
X111295952Y-90386512D01*
X111404126Y-90460303D01*
X111449128Y-90515214D01*
X111457299Y-90585739D01*
X111426045Y-90649486D01*
X111403488Y-90668911D01*
X111384469Y-90681715D01*
X111376184Y-90688376D01*
X111215480Y-90841680D01*
X111208431Y-90849648D01*
X111075856Y-91027836D01*
X111070257Y-91036866D01*
X110969598Y-91234847D01*
X110965595Y-91244708D01*
X110899737Y-91456801D01*
X110897452Y-91467196D01*
X110895020Y-91485541D01*
X110897217Y-91499708D01*
X110910401Y-91503500D01*
X113877488Y-91503500D01*
X113891019Y-91499527D01*
X113892544Y-91488920D01*
X113866996Y-91367157D01*
X113863936Y-91356961D01*
X113782363Y-91150403D01*
X113777629Y-91140866D01*
X113662414Y-90950997D01*
X113656150Y-90942407D01*
X113510589Y-90774663D01*
X113502959Y-90767243D01*
X113375778Y-90662962D01*
X113335784Y-90604303D01*
X113333852Y-90533332D01*
X113370596Y-90472584D01*
X113387229Y-90459736D01*
X113394134Y-90455269D01*
X113465204Y-90409292D01*
X113474736Y-90400619D01*
X113643708Y-90246866D01*
X113643710Y-90246864D01*
X113647530Y-90243388D01*
X113650729Y-90239337D01*
X113650733Y-90239333D01*
X113794466Y-90057335D01*
X113800312Y-90049933D01*
X113815065Y-90023209D01*
X113916950Y-89838644D01*
X113916951Y-89838641D01*
X113919446Y-89834122D01*
X113982286Y-89656666D01*
X114000007Y-89606623D01*
X114000008Y-89606620D01*
X114001732Y-89601751D01*
X114044962Y-89359061D01*
X114047974Y-89112570D01*
X114010686Y-88868896D01*
X113934102Y-88634584D01*
X113820276Y-88415927D01*
X113812511Y-88405584D01*
X113675371Y-88222932D01*
X113675369Y-88222930D01*
X113672266Y-88218797D01*
X113494048Y-88048488D01*
X113489769Y-88045569D01*
X113488313Y-88044390D01*
X113447960Y-87985976D01*
X113445594Y-87915019D01*
X113482806Y-87853275D01*
X113647530Y-87703388D01*
X113650729Y-87699337D01*
X113650733Y-87699333D01*
X113780743Y-87534712D01*
X113800312Y-87509933D01*
X113815065Y-87483209D01*
X113916950Y-87298644D01*
X113916951Y-87298641D01*
X113919446Y-87294122D01*
X114001732Y-87061751D01*
X114044962Y-86819061D01*
X114046703Y-86676597D01*
X114047911Y-86577740D01*
X114047911Y-86577738D01*
X114047974Y-86572570D01*
X114010686Y-86328896D01*
X113934102Y-86094584D01*
X113820276Y-85875927D01*
X113798315Y-85846677D01*
X113675371Y-85682932D01*
X113675369Y-85682930D01*
X113672266Y-85678797D01*
X113494048Y-85508488D01*
X113489769Y-85505569D01*
X113488313Y-85504390D01*
X113447960Y-85445976D01*
X113445594Y-85375019D01*
X113482806Y-85313275D01*
X113647530Y-85163388D01*
X113650729Y-85159337D01*
X113650733Y-85159333D01*
X113797111Y-84973986D01*
X113800312Y-84969933D01*
X113813233Y-84946528D01*
X113916950Y-84758644D01*
X113916951Y-84758641D01*
X113919446Y-84754122D01*
X114001732Y-84521751D01*
X114044962Y-84279061D01*
X114047974Y-84032570D01*
X114010686Y-83788896D01*
X113934102Y-83554584D01*
X113851777Y-83396440D01*
X113822665Y-83340516D01*
X113822664Y-83340515D01*
X113820276Y-83335927D01*
X113794063Y-83301014D01*
X113675371Y-83142932D01*
X113675369Y-83142930D01*
X113672266Y-83138797D01*
X113494048Y-82968488D01*
X113489769Y-82965569D01*
X113488313Y-82964390D01*
X113447960Y-82905976D01*
X113445594Y-82835019D01*
X113482806Y-82773275D01*
X113647530Y-82623388D01*
X113650729Y-82619337D01*
X113650733Y-82619333D01*
X113797111Y-82433986D01*
X113800312Y-82429933D01*
X113815065Y-82403209D01*
X113916950Y-82218644D01*
X113916951Y-82218641D01*
X113919446Y-82214122D01*
X114001732Y-81981751D01*
X114044962Y-81739061D01*
X114046377Y-81623245D01*
X114047911Y-81497740D01*
X114047911Y-81497738D01*
X114047974Y-81492570D01*
X114010686Y-81248896D01*
X113934102Y-81014584D01*
X113847572Y-80848362D01*
X113822665Y-80800516D01*
X113822664Y-80800515D01*
X113820276Y-80795927D01*
X113794063Y-80761014D01*
X113675371Y-80602932D01*
X113675369Y-80602930D01*
X113672266Y-80598797D01*
X113494048Y-80428488D01*
X113489769Y-80425569D01*
X113488313Y-80424390D01*
X113447960Y-80365976D01*
X113445594Y-80295019D01*
X113482806Y-80233275D01*
X113647530Y-80083388D01*
X113650729Y-80079337D01*
X113650733Y-80079333D01*
X113769944Y-79928385D01*
X113800312Y-79889933D01*
X113815065Y-79863209D01*
X113916950Y-79678644D01*
X113916951Y-79678641D01*
X113919446Y-79674122D01*
X114001732Y-79441751D01*
X114044962Y-79199061D01*
X114047974Y-78952570D01*
X114010686Y-78708896D01*
X113934102Y-78474584D01*
X113840616Y-78295000D01*
X113822665Y-78260516D01*
X113822664Y-78260515D01*
X113820276Y-78255927D01*
X113811812Y-78244653D01*
X113675371Y-78062932D01*
X113675369Y-78062930D01*
X113672266Y-78058797D01*
X113494048Y-77888488D01*
X113489769Y-77885569D01*
X113488313Y-77884390D01*
X113447960Y-77825976D01*
X113445594Y-77755019D01*
X113482806Y-77693275D01*
X113647530Y-77543388D01*
X113650729Y-77539337D01*
X113650733Y-77539333D01*
X113797111Y-77353986D01*
X113800312Y-77349933D01*
X113815065Y-77323209D01*
X113916950Y-77138644D01*
X113916951Y-77138641D01*
X113919446Y-77134122D01*
X114001732Y-76901751D01*
X114044962Y-76659061D01*
X114047974Y-76412570D01*
X114010686Y-76168896D01*
X113934102Y-75934584D01*
X113867283Y-75806227D01*
X113822665Y-75720516D01*
X113822664Y-75720515D01*
X113820276Y-75715927D01*
X113794063Y-75681014D01*
X113675371Y-75522932D01*
X113675369Y-75522930D01*
X113672266Y-75518797D01*
X113494048Y-75348488D01*
X113489769Y-75345569D01*
X113488313Y-75344390D01*
X113447960Y-75285976D01*
X113445594Y-75215019D01*
X113482806Y-75153275D01*
X113647530Y-75003388D01*
X113650729Y-74999337D01*
X113650733Y-74999333D01*
X113797111Y-74813986D01*
X113800312Y-74809933D01*
X113815065Y-74783209D01*
X113916950Y-74598644D01*
X113916951Y-74598641D01*
X113919446Y-74594122D01*
X114001732Y-74361751D01*
X114044962Y-74119061D01*
X114047974Y-73872570D01*
X114010686Y-73628896D01*
X113934102Y-73394584D01*
X113820276Y-73175927D01*
X113794063Y-73141014D01*
X113675371Y-72982932D01*
X113675369Y-72982930D01*
X113672266Y-72978797D01*
X113494048Y-72808488D01*
X113489769Y-72805569D01*
X113488313Y-72804390D01*
X113447960Y-72745976D01*
X113445594Y-72675019D01*
X113482806Y-72613275D01*
X113647530Y-72463388D01*
X113650729Y-72459337D01*
X113650733Y-72459333D01*
X113797111Y-72273986D01*
X113800312Y-72269933D01*
X113815065Y-72243209D01*
X113916950Y-72058644D01*
X113916951Y-72058641D01*
X113919446Y-72054122D01*
X114001732Y-71821751D01*
X114044962Y-71579061D01*
X114047974Y-71332570D01*
X114010686Y-71088896D01*
X113934102Y-70854584D01*
X113820276Y-70635927D01*
X113797059Y-70605004D01*
X113675371Y-70442932D01*
X113675369Y-70442930D01*
X113672266Y-70438797D01*
X113494048Y-70268488D01*
X113489769Y-70265569D01*
X113488313Y-70264390D01*
X113447960Y-70205976D01*
X113445594Y-70135019D01*
X113482806Y-70073275D01*
X113647530Y-69923388D01*
X113650729Y-69919337D01*
X113650733Y-69919333D01*
X113797111Y-69733986D01*
X113800312Y-69729933D01*
X113815065Y-69703209D01*
X113916950Y-69518644D01*
X113916951Y-69518641D01*
X113919446Y-69514122D01*
X114001732Y-69281751D01*
X114044962Y-69039061D01*
X114047974Y-68792570D01*
X114010686Y-68548896D01*
X113934102Y-68314584D01*
X113820276Y-68095927D01*
X113817100Y-68091696D01*
X113675371Y-67902932D01*
X113675369Y-67902930D01*
X113672266Y-67898797D01*
X113590212Y-67820384D01*
X113497785Y-67732059D01*
X113497784Y-67732058D01*
X113494048Y-67728488D01*
X113456535Y-67702898D01*
X113294685Y-67592492D01*
X113294686Y-67592492D01*
X113290406Y-67589573D01*
X113112741Y-67507103D01*
X113071502Y-67487960D01*
X113071497Y-67487958D01*
X113066811Y-67485783D01*
X112829266Y-67419906D01*
X112808933Y-67417733D01*
X112631363Y-67398756D01*
X112631355Y-67398756D01*
X112628028Y-67398400D01*
X112180106Y-67398400D01*
X112177533Y-67398612D01*
X112177522Y-67398612D01*
X112002070Y-67413037D01*
X112002064Y-67413038D01*
X111996919Y-67413461D01*
X111877377Y-67443488D01*
X111762847Y-67472255D01*
X111762843Y-67472256D01*
X111757836Y-67473514D01*
X111753103Y-67475572D01*
X111753100Y-67475573D01*
X111536508Y-67569750D01*
X111536505Y-67569752D01*
X111531771Y-67571810D01*
X111425592Y-67640500D01*
X111329139Y-67702898D01*
X111329136Y-67702900D01*
X111324796Y-67705708D01*
X111320973Y-67709187D01*
X111320970Y-67709189D01*
X111146292Y-67868134D01*
X111142470Y-67871612D01*
X111139271Y-67875663D01*
X111139267Y-67875667D01*
X111074421Y-67957777D01*
X110989688Y-68065067D01*
X110987195Y-68069583D01*
X110987193Y-68069586D01*
X110881414Y-68261205D01*
X110870554Y-68280878D01*
X110788268Y-68513249D01*
X110787361Y-68518338D01*
X110787361Y-68518340D01*
X110781007Y-68554009D01*
X110745038Y-68755939D01*
X110744975Y-68761103D01*
X110742577Y-68957373D01*
X110742026Y-69002430D01*
X110779314Y-69246104D01*
X110855898Y-69480416D01*
X110969724Y-69699073D01*
X110972827Y-69703206D01*
X110972829Y-69703209D01*
X111070348Y-69833091D01*
X111117734Y-69896203D01*
X111295952Y-70066512D01*
X111300231Y-70069431D01*
X111301687Y-70070610D01*
X111342040Y-70129024D01*
X111344406Y-70199981D01*
X111307194Y-70261725D01*
X111142470Y-70411612D01*
X111139271Y-70415663D01*
X111139267Y-70415667D01*
X111072703Y-70499952D01*
X110989688Y-70605067D01*
X110987195Y-70609583D01*
X110987193Y-70609586D01*
X110873050Y-70816356D01*
X110870554Y-70820878D01*
X110788268Y-71053249D01*
X110745038Y-71295939D01*
X110744975Y-71301103D01*
X110742199Y-71528309D01*
X110742026Y-71542430D01*
X110779314Y-71786104D01*
X110855898Y-72020416D01*
X110969724Y-72239073D01*
X110972827Y-72243206D01*
X110972829Y-72243209D01*
X111081122Y-72387441D01*
X111117734Y-72436203D01*
X111295952Y-72606512D01*
X111300231Y-72609431D01*
X111301687Y-72610610D01*
X111342040Y-72669024D01*
X111344406Y-72739981D01*
X111307194Y-72801725D01*
X111142470Y-72951612D01*
X111139271Y-72955663D01*
X111139267Y-72955667D01*
X111052798Y-73065156D01*
X110989688Y-73145067D01*
X110987195Y-73149583D01*
X110987193Y-73149586D01*
X110931702Y-73250108D01*
X110870554Y-73360878D01*
X110788268Y-73593249D01*
X110787361Y-73598338D01*
X110787361Y-73598340D01*
X110781007Y-73634009D01*
X110745038Y-73835939D01*
X110744975Y-73841103D01*
X110742577Y-74037373D01*
X110742026Y-74082430D01*
X110779314Y-74326104D01*
X110855898Y-74560416D01*
X110969724Y-74779073D01*
X110972827Y-74783206D01*
X110972829Y-74783209D01*
X110997343Y-74815858D01*
X111117734Y-74976203D01*
X111295952Y-75146512D01*
X111300231Y-75149431D01*
X111301687Y-75150610D01*
X111342040Y-75209024D01*
X111344406Y-75279981D01*
X111307194Y-75341725D01*
X111142470Y-75491612D01*
X111139271Y-75495663D01*
X111139267Y-75495667D01*
X111074421Y-75577777D01*
X110989688Y-75685067D01*
X110987195Y-75689583D01*
X110987193Y-75689586D01*
X110893877Y-75858628D01*
X110870554Y-75900878D01*
X110788268Y-76133249D01*
X110787361Y-76138338D01*
X110787361Y-76138340D01*
X110781007Y-76174009D01*
X110745038Y-76375939D01*
X110744975Y-76381103D01*
X110742577Y-76577373D01*
X110742026Y-76622430D01*
X110779314Y-76866104D01*
X110855898Y-77100416D01*
X110969724Y-77319073D01*
X110972827Y-77323206D01*
X110972829Y-77323209D01*
X110997343Y-77355858D01*
X111117734Y-77516203D01*
X111295952Y-77686512D01*
X111300231Y-77689431D01*
X111301687Y-77690610D01*
X111342040Y-77749024D01*
X111344406Y-77819981D01*
X111307194Y-77881725D01*
X111142470Y-78031612D01*
X111139271Y-78035663D01*
X111139267Y-78035667D01*
X111058186Y-78138334D01*
X110989688Y-78225067D01*
X110987195Y-78229583D01*
X110987193Y-78229586D01*
X110952672Y-78292121D01*
X110870554Y-78440878D01*
X110788268Y-78673249D01*
X110745038Y-78915939D01*
X110742026Y-79162430D01*
X110779314Y-79406104D01*
X110855898Y-79640416D01*
X110870908Y-79669249D01*
X110947530Y-79816438D01*
X110969724Y-79859073D01*
X110972827Y-79863206D01*
X110972829Y-79863209D01*
X110995939Y-79893988D01*
X111117734Y-80056203D01*
X111295952Y-80226512D01*
X111300231Y-80229431D01*
X111301687Y-80230610D01*
X111342040Y-80289024D01*
X111344406Y-80359981D01*
X111307194Y-80421725D01*
X111142470Y-80571612D01*
X111139271Y-80575663D01*
X111139267Y-80575667D01*
X111100298Y-80625011D01*
X110989688Y-80765067D01*
X110987195Y-80769583D01*
X110987193Y-80769586D01*
X110896318Y-80934206D01*
X110870554Y-80980878D01*
X110788268Y-81213249D01*
X110745038Y-81455939D01*
X110742026Y-81702430D01*
X110779314Y-81946104D01*
X110855898Y-82180416D01*
X110969724Y-82399073D01*
X110972827Y-82403206D01*
X110972829Y-82403209D01*
X111114629Y-82592068D01*
X111117734Y-82596203D01*
X111295952Y-82766512D01*
X111300231Y-82769431D01*
X111301687Y-82770610D01*
X111342040Y-82829024D01*
X111344406Y-82899981D01*
X111307194Y-82961725D01*
X111142470Y-83111612D01*
X111139271Y-83115663D01*
X111139267Y-83115667D01*
X111059446Y-83216738D01*
X110989688Y-83305067D01*
X110987195Y-83309583D01*
X110987193Y-83309586D01*
X110873315Y-83515876D01*
X110870554Y-83520878D01*
X110788268Y-83753249D01*
X110745038Y-83995939D01*
X110742026Y-84242430D01*
X110779314Y-84486104D01*
X110855898Y-84720416D01*
X110969724Y-84939073D01*
X110972827Y-84943206D01*
X110972829Y-84943209D01*
X111112933Y-85129809D01*
X111117734Y-85136203D01*
X111295952Y-85306512D01*
X111300231Y-85309431D01*
X111301687Y-85310610D01*
X111342040Y-85369024D01*
X111344406Y-85439981D01*
X111307194Y-85501725D01*
X111142470Y-85651612D01*
X111139271Y-85655663D01*
X111139267Y-85655667D01*
X111044839Y-85775234D01*
X110989688Y-85845067D01*
X110987195Y-85849583D01*
X110987193Y-85849586D01*
X110879434Y-86044792D01*
X110870554Y-86060878D01*
X110836778Y-86156259D01*
X110792614Y-86280977D01*
X110788268Y-86293249D01*
X110787361Y-86298338D01*
X110787361Y-86298340D01*
X110782794Y-86323981D01*
X110745038Y-86535939D01*
X110742026Y-86782430D01*
X110779314Y-87026104D01*
X110855898Y-87260416D01*
X110969724Y-87479073D01*
X110972827Y-87483206D01*
X110972829Y-87483209D01*
X111080620Y-87626772D01*
X111117734Y-87676203D01*
X111295952Y-87846512D01*
X111300231Y-87849431D01*
X111301687Y-87850610D01*
X111342040Y-87909024D01*
X111344406Y-87979981D01*
X111307194Y-88041725D01*
X111142470Y-88191612D01*
X111139271Y-88195663D01*
X111139267Y-88195667D01*
X111076419Y-88275247D01*
X110989688Y-88385067D01*
X110987195Y-88389583D01*
X110987193Y-88389586D01*
X110951083Y-88455000D01*
X110870554Y-88600878D01*
X110856877Y-88639502D01*
X110807834Y-88777997D01*
X110788268Y-88833249D01*
X110745038Y-89075939D01*
X110742026Y-89322430D01*
X102346011Y-89322430D01*
X102346011Y-82783672D01*
X102364577Y-82717839D01*
X102384293Y-82685666D01*
X102423350Y-82591374D01*
X102478055Y-82459305D01*
X102478057Y-82459299D01*
X102479947Y-82454736D01*
X102494413Y-82394484D01*
X102507813Y-82338668D01*
X102538299Y-82211686D01*
X102548005Y-82088354D01*
X102552807Y-82027346D01*
X102552807Y-82027337D01*
X102553000Y-82024889D01*
X102553000Y-81805111D01*
X102548203Y-81744150D01*
X102538687Y-81623245D01*
X102538299Y-81618314D01*
X102506882Y-81487456D01*
X102481101Y-81380069D01*
X102481099Y-81380064D01*
X102479947Y-81375264D01*
X102478057Y-81370701D01*
X102478055Y-81370695D01*
X102386188Y-81148908D01*
X102386186Y-81148904D01*
X102384293Y-81144334D01*
X102253691Y-80931211D01*
X102111609Y-80764855D01*
X102094565Y-80744899D01*
X102091357Y-80741143D01*
X101901289Y-80578809D01*
X101688166Y-80448207D01*
X101683596Y-80446314D01*
X101683592Y-80446312D01*
X101461805Y-80354445D01*
X101461799Y-80354443D01*
X101457236Y-80352553D01*
X101452436Y-80351401D01*
X101452431Y-80351399D01*
X101341168Y-80324687D01*
X101214186Y-80294201D01*
X100965000Y-80274590D01*
X100715814Y-80294201D01*
X100588832Y-80324687D01*
X100477569Y-80351399D01*
X100477564Y-80351401D01*
X100472764Y-80352553D01*
X100468201Y-80354443D01*
X100468195Y-80354445D01*
X100246408Y-80446312D01*
X100246404Y-80446314D01*
X100241834Y-80448207D01*
X100028711Y-80578809D01*
X99838643Y-80741143D01*
X99835435Y-80744899D01*
X99706897Y-80895397D01*
X99647446Y-80934206D01*
X99576452Y-80934712D01*
X99517892Y-80898365D01*
X99427950Y-80799519D01*
X99420417Y-80792494D01*
X99240056Y-80650055D01*
X99231469Y-80644350D01*
X99030278Y-80533286D01*
X99020866Y-80529056D01*
X98804232Y-80452341D01*
X98794261Y-80449707D01*
X98696837Y-80432353D01*
X98683540Y-80433813D01*
X98679000Y-80448370D01*
X98679000Y-83383096D01*
X98682918Y-83396440D01*
X98697194Y-83398427D01*
X98759515Y-83388890D01*
X98769543Y-83386501D01*
X98987988Y-83315102D01*
X98997497Y-83311105D01*
X99201344Y-83204989D01*
X99210069Y-83199495D01*
X99393852Y-83061507D01*
X99401559Y-83054664D01*
X99520600Y-82930095D01*
X99582124Y-82894665D01*
X99653037Y-82898122D01*
X99707505Y-82935315D01*
X99815284Y-83061507D01*
X99838643Y-83088857D01*
X99842399Y-83092065D01*
X100014842Y-83239346D01*
X100053651Y-83298797D01*
X100059011Y-83335157D01*
X100059011Y-86156259D01*
X100039009Y-86224380D01*
X99985353Y-86270873D01*
X99915079Y-86280977D01*
X99867176Y-86263691D01*
X99750958Y-86192472D01*
X99742163Y-86187990D01*
X99532012Y-86100943D01*
X99522627Y-86097894D01*
X99301446Y-86044792D01*
X99291699Y-86043249D01*
X99064930Y-86025402D01*
X99055070Y-86025402D01*
X98828301Y-86043249D01*
X98818554Y-86044792D01*
X98597373Y-86097894D01*
X98587988Y-86100943D01*
X98377837Y-86187990D01*
X98369042Y-86192472D01*
X98201555Y-86295109D01*
X98192093Y-86305567D01*
X98195876Y-86314343D01*
X99330115Y-87448582D01*
X99364141Y-87510894D01*
X99359076Y-87581709D01*
X99330115Y-87626772D01*
X98198920Y-88757967D01*
X98192160Y-88770347D01*
X98197887Y-88777997D01*
X98369042Y-88882882D01*
X98377837Y-88887364D01*
X98587988Y-88974411D01*
X98597373Y-88977460D01*
X98818554Y-89030562D01*
X98828301Y-89032105D01*
X99055070Y-89049952D01*
X99064930Y-89049952D01*
X99291699Y-89032105D01*
X99301446Y-89030562D01*
X99522627Y-88977460D01*
X99532012Y-88974411D01*
X99742163Y-88887364D01*
X99750958Y-88882882D01*
X99867176Y-88811663D01*
X99935709Y-88793124D01*
X100003386Y-88814580D01*
X100048719Y-88869219D01*
X100059011Y-88919095D01*
X100059011Y-89869323D01*
X100039009Y-89937444D01*
X100022106Y-89958418D01*
X99115252Y-90865272D01*
X99052940Y-90899298D01*
X99026157Y-90902177D01*
X98044794Y-90902178D01*
X97995820Y-90902178D01*
X97976577Y-90903692D01*
X97966214Y-90904507D01*
X97966213Y-90904507D01*
X97959796Y-90905012D01*
X97953616Y-90906807D01*
X97953613Y-90906808D01*
X97813220Y-90947596D01*
X97813218Y-90947597D01*
X97805607Y-90949808D01*
X97667402Y-91031542D01*
X97553865Y-91145079D01*
X97472131Y-91283284D01*
X97469920Y-91290895D01*
X97469919Y-91290897D01*
X97429129Y-91431296D01*
X97429128Y-91431301D01*
X97427335Y-91437473D01*
X97426831Y-91443883D01*
X97424796Y-91469741D01*
X97424500Y-91473496D01*
X88900000Y-91473496D01*
X88900000Y-87542607D01*
X97547725Y-87542607D01*
X97565572Y-87769376D01*
X97567115Y-87779123D01*
X97620217Y-88000304D01*
X97623266Y-88009689D01*
X97710313Y-88219840D01*
X97714795Y-88228635D01*
X97817432Y-88396122D01*
X97827890Y-88405584D01*
X97836666Y-88401801D01*
X98687978Y-87550489D01*
X98695592Y-87536545D01*
X98695461Y-87534712D01*
X98691210Y-87528097D01*
X97839710Y-86676597D01*
X97827330Y-86669837D01*
X97819680Y-86675564D01*
X97714795Y-86846719D01*
X97710313Y-86855514D01*
X97623266Y-87065665D01*
X97620217Y-87075050D01*
X97567115Y-87296231D01*
X97565572Y-87305978D01*
X97547725Y-87532747D01*
X97547725Y-87542607D01*
X88900000Y-87542607D01*
X88900000Y-83862000D01*
X88920002Y-83793879D01*
X88925200Y-83786400D01*
X91126886Y-80850819D01*
X94297000Y-80850819D01*
X94297001Y-82979180D01*
X94299835Y-83015204D01*
X94301630Y-83021384D01*
X94301631Y-83021387D01*
X94336052Y-83139863D01*
X94344631Y-83169393D01*
X94348666Y-83176215D01*
X94348666Y-83176216D01*
X94418326Y-83294005D01*
X94426365Y-83307598D01*
X94539902Y-83421135D01*
X94678107Y-83502869D01*
X94685718Y-83505080D01*
X94685720Y-83505081D01*
X94826119Y-83545871D01*
X94826124Y-83545872D01*
X94832296Y-83547665D01*
X94853919Y-83549367D01*
X94865862Y-83550307D01*
X94865871Y-83550307D01*
X94868319Y-83550500D01*
X95884177Y-83550500D01*
X96901680Y-83550499D01*
X96920923Y-83548985D01*
X96931286Y-83548170D01*
X96931287Y-83548170D01*
X96937704Y-83547665D01*
X96943884Y-83545870D01*
X96943887Y-83545869D01*
X97084280Y-83505081D01*
X97084282Y-83505080D01*
X97091893Y-83502869D01*
X97230098Y-83421135D01*
X97343635Y-83307598D01*
X97353050Y-83291679D01*
X97397369Y-83216738D01*
X97406482Y-83201329D01*
X97458375Y-83152876D01*
X97528226Y-83140171D01*
X97593027Y-83166586D01*
X97609937Y-83179940D01*
X97618531Y-83185650D01*
X97819722Y-83296714D01*
X97829134Y-83300944D01*
X98045768Y-83377659D01*
X98055739Y-83380293D01*
X98153163Y-83397647D01*
X98166460Y-83396187D01*
X98171000Y-83381630D01*
X98171000Y-80446904D01*
X98167082Y-80433560D01*
X98152806Y-80431573D01*
X98090485Y-80441110D01*
X98080457Y-80443499D01*
X97862012Y-80514898D01*
X97852503Y-80518895D01*
X97648656Y-80625011D01*
X97639931Y-80630505D01*
X97591515Y-80666857D01*
X97525030Y-80691763D01*
X97455634Y-80676771D01*
X97407409Y-80630236D01*
X97347673Y-80529228D01*
X97347668Y-80529222D01*
X97343635Y-80522402D01*
X97230098Y-80408865D01*
X97223277Y-80404831D01*
X97098716Y-80331166D01*
X97098715Y-80331166D01*
X97091893Y-80327131D01*
X97084282Y-80324920D01*
X97084280Y-80324919D01*
X96943881Y-80284129D01*
X96943876Y-80284128D01*
X96937704Y-80282335D01*
X96916081Y-80280633D01*
X96904138Y-80279693D01*
X96904129Y-80279693D01*
X96901681Y-80279500D01*
X95885823Y-80279500D01*
X94868320Y-80279501D01*
X94849077Y-80281015D01*
X94838714Y-80281830D01*
X94838713Y-80281830D01*
X94832296Y-80282335D01*
X94826116Y-80284130D01*
X94826113Y-80284131D01*
X94685720Y-80324919D01*
X94685718Y-80324920D01*
X94678107Y-80327131D01*
X94671285Y-80331166D01*
X94671284Y-80331166D01*
X94546723Y-80404831D01*
X94539902Y-80408865D01*
X94426365Y-80522402D01*
X94344631Y-80660607D01*
X94342420Y-80668218D01*
X94342419Y-80668220D01*
X94301629Y-80808619D01*
X94301628Y-80808624D01*
X94299835Y-80814796D01*
X94297000Y-80850819D01*
X91126886Y-80850819D01*
X92672200Y-78790400D01*
X92729074Y-78747905D01*
X92773000Y-78740000D01*
X106680000Y-78740000D01*
X106680000Y-64694422D01*
X110904988Y-64694422D01*
X110930871Y-64990265D01*
X110931781Y-64994337D01*
X110931782Y-64994342D01*
X110990046Y-65255000D01*
X110995654Y-65280087D01*
X111098199Y-65558795D01*
X111100143Y-65562483D01*
X111100147Y-65562491D01*
X111223675Y-65796783D01*
X111236703Y-65821492D01*
X111408735Y-66063564D01*
X111411585Y-66066620D01*
X111557496Y-66223090D01*
X111611270Y-66280756D01*
X111840752Y-66469255D01*
X112093148Y-66625747D01*
X112364023Y-66747483D01*
X112536888Y-66799016D01*
X112644621Y-66831133D01*
X112644623Y-66831133D01*
X112648620Y-66832325D01*
X112652740Y-66832978D01*
X112652742Y-66832978D01*
X112770357Y-66851606D01*
X112941937Y-66878782D01*
X112984108Y-66880697D01*
X113033406Y-66882936D01*
X113033425Y-66882936D01*
X113034825Y-66883000D01*
X113220322Y-66883000D01*
X113441321Y-66868321D01*
X113732436Y-66809622D01*
X114013230Y-66712937D01*
X114016963Y-66711068D01*
X114016967Y-66711066D01*
X114147109Y-66645895D01*
X114278770Y-66579964D01*
X114524391Y-66413040D01*
X114669373Y-66283412D01*
X114742664Y-66217883D01*
X114742670Y-66217877D01*
X114745778Y-66215098D01*
X114873039Y-66066620D01*
X114936321Y-65992788D01*
X114936324Y-65992784D01*
X114939041Y-65989614D01*
X114941315Y-65986112D01*
X114941319Y-65986107D01*
X115098506Y-65744061D01*
X115098509Y-65744056D01*
X115100785Y-65740551D01*
X115128369Y-65682460D01*
X115226372Y-65476065D01*
X115226374Y-65476061D01*
X115228167Y-65472284D01*
X115318950Y-65189527D01*
X115319991Y-65183743D01*
X115320222Y-65183281D01*
X115320703Y-65181352D01*
X115321133Y-65181459D01*
X115351739Y-65120240D01*
X115412780Y-65083983D01*
X115483733Y-65086483D01*
X115542070Y-65126945D01*
X115569271Y-65192524D01*
X115570000Y-65206054D01*
X115570000Y-90170000D01*
X131445000Y-90170000D01*
X131445000Y-64694422D01*
X132154988Y-64694422D01*
X132180871Y-64990265D01*
X132181781Y-64994337D01*
X132181782Y-64994342D01*
X132240046Y-65255000D01*
X132245654Y-65280087D01*
X132348199Y-65558795D01*
X132350143Y-65562483D01*
X132350147Y-65562491D01*
X132473675Y-65796783D01*
X132486703Y-65821492D01*
X132658735Y-66063564D01*
X132661585Y-66066620D01*
X132807496Y-66223090D01*
X132861270Y-66280756D01*
X133090752Y-66469255D01*
X133343148Y-66625747D01*
X133614023Y-66747483D01*
X133786888Y-66799016D01*
X133894621Y-66831133D01*
X133894623Y-66831133D01*
X133898620Y-66832325D01*
X133902740Y-66832978D01*
X133902742Y-66832978D01*
X134020357Y-66851606D01*
X134191937Y-66878782D01*
X134234108Y-66880697D01*
X134283406Y-66882936D01*
X134283425Y-66882936D01*
X134284825Y-66883000D01*
X134470322Y-66883000D01*
X134691321Y-66868321D01*
X134982436Y-66809622D01*
X135263230Y-66712937D01*
X135266963Y-66711068D01*
X135266967Y-66711066D01*
X135397109Y-66645895D01*
X135528770Y-66579964D01*
X135774391Y-66413040D01*
X135919373Y-66283412D01*
X135992664Y-66217883D01*
X135992670Y-66217877D01*
X135995778Y-66215098D01*
X136123039Y-66066620D01*
X136186321Y-65992788D01*
X136186324Y-65992784D01*
X136189041Y-65989614D01*
X136191315Y-65986112D01*
X136191319Y-65986107D01*
X136348506Y-65744061D01*
X136348509Y-65744056D01*
X136350785Y-65740551D01*
X136378369Y-65682460D01*
X136476372Y-65476065D01*
X136476374Y-65476061D01*
X136478167Y-65472284D01*
X136568950Y-65189527D01*
X136621540Y-64897246D01*
X136630562Y-64698574D01*
X136634823Y-64604748D01*
X136634823Y-64604743D01*
X136635012Y-64600578D01*
X136609129Y-64304735D01*
X136590510Y-64221436D01*
X136545258Y-64018992D01*
X136545257Y-64018989D01*
X136544346Y-64014913D01*
X136441801Y-63736205D01*
X136439857Y-63732517D01*
X136439853Y-63732509D01*
X136305250Y-63477212D01*
X136305249Y-63477211D01*
X136303297Y-63473508D01*
X136131265Y-63231436D01*
X135928730Y-63014244D01*
X135699248Y-62825745D01*
X135446852Y-62669253D01*
X135175977Y-62547517D01*
X134964762Y-62484551D01*
X134895379Y-62463867D01*
X134895377Y-62463867D01*
X134891380Y-62462675D01*
X134887260Y-62462022D01*
X134887258Y-62462022D01*
X134669332Y-62427506D01*
X134598063Y-62416218D01*
X134555892Y-62414303D01*
X134506594Y-62412064D01*
X134506575Y-62412064D01*
X134505175Y-62412000D01*
X134319678Y-62412000D01*
X134098679Y-62426679D01*
X133807564Y-62485378D01*
X133526770Y-62582063D01*
X133523037Y-62583932D01*
X133523033Y-62583934D01*
X133394277Y-62648411D01*
X133261230Y-62715036D01*
X133015609Y-62881960D01*
X133012495Y-62884744D01*
X133012494Y-62884745D01*
X132797336Y-63077117D01*
X132797330Y-63077123D01*
X132794222Y-63079902D01*
X132791505Y-63083072D01*
X132791504Y-63083073D01*
X132659682Y-63236873D01*
X132600959Y-63305386D01*
X132598685Y-63308888D01*
X132598681Y-63308893D01*
X132489373Y-63477212D01*
X132439215Y-63554449D01*
X132437421Y-63558227D01*
X132437420Y-63558229D01*
X132408667Y-63618784D01*
X132311833Y-63822716D01*
X132221050Y-64105473D01*
X132168460Y-64397754D01*
X132168271Y-64401926D01*
X132159250Y-64600578D01*
X132154988Y-64694422D01*
X131445000Y-64694422D01*
X131445000Y-62865000D01*
X115570000Y-62865000D01*
X115570000Y-64106822D01*
X115549998Y-64174943D01*
X115496342Y-64221436D01*
X115426068Y-64231540D01*
X115361488Y-64202046D01*
X115323104Y-64142320D01*
X115321035Y-64134308D01*
X115295262Y-64019006D01*
X115295257Y-64018990D01*
X115294346Y-64014913D01*
X115191801Y-63736205D01*
X115189857Y-63732517D01*
X115189853Y-63732509D01*
X115055250Y-63477212D01*
X115055249Y-63477211D01*
X115053297Y-63473508D01*
X114881265Y-63231436D01*
X114678730Y-63014244D01*
X114449248Y-62825745D01*
X114196852Y-62669253D01*
X113925977Y-62547517D01*
X113714762Y-62484551D01*
X113645379Y-62463867D01*
X113645377Y-62463867D01*
X113641380Y-62462675D01*
X113637260Y-62462022D01*
X113637258Y-62462022D01*
X113419332Y-62427506D01*
X113348063Y-62416218D01*
X113305892Y-62414303D01*
X113256594Y-62412064D01*
X113256575Y-62412064D01*
X113255175Y-62412000D01*
X113069678Y-62412000D01*
X112848679Y-62426679D01*
X112557564Y-62485378D01*
X112276770Y-62582063D01*
X112273037Y-62583932D01*
X112273033Y-62583934D01*
X112144277Y-62648411D01*
X112011230Y-62715036D01*
X111765609Y-62881960D01*
X111762495Y-62884744D01*
X111762494Y-62884745D01*
X111547336Y-63077117D01*
X111547330Y-63077123D01*
X111544222Y-63079902D01*
X111541505Y-63083072D01*
X111541504Y-63083073D01*
X111409682Y-63236873D01*
X111350959Y-63305386D01*
X111348685Y-63308888D01*
X111348681Y-63308893D01*
X111239373Y-63477212D01*
X111189215Y-63554449D01*
X111187421Y-63558227D01*
X111187420Y-63558229D01*
X111158667Y-63618784D01*
X111061833Y-63822716D01*
X110971050Y-64105473D01*
X110918460Y-64397754D01*
X110918271Y-64401926D01*
X110909250Y-64600578D01*
X110904988Y-64694422D01*
X106680000Y-64694422D01*
X106680000Y-58420000D01*
X95306587Y-58420000D01*
X95238466Y-58399998D01*
X95212409Y-58377705D01*
X90802028Y-53415486D01*
X90771724Y-53351281D01*
X90770208Y-53331153D01*
X90780175Y-51332623D01*
X90782490Y-50868359D01*
X96781386Y-50868359D01*
X96790099Y-50879879D01*
X96878586Y-50944760D01*
X96886505Y-50949708D01*
X97102877Y-51063547D01*
X97111451Y-51067275D01*
X97342282Y-51147885D01*
X97351291Y-51150299D01*
X97591518Y-51195908D01*
X97600775Y-51196962D01*
X97845107Y-51206563D01*
X97854420Y-51206237D01*
X98097478Y-51179618D01*
X98106655Y-51177917D01*
X98343107Y-51115665D01*
X98351926Y-51112628D01*
X98576584Y-51016107D01*
X98584856Y-51011800D01*
X98792777Y-50883135D01*
X98794620Y-50881796D01*
X98802038Y-50870541D01*
X98795974Y-50860184D01*
X97802812Y-49867022D01*
X97788868Y-49859408D01*
X97787035Y-49859539D01*
X97780420Y-49863790D01*
X96788044Y-50856166D01*
X96781386Y-50868359D01*
X90782490Y-50868359D01*
X90782646Y-50837099D01*
X90802987Y-50769079D01*
X90856874Y-50722855D01*
X90927197Y-50713101D01*
X90947894Y-50717997D01*
X90982636Y-50729386D01*
X91252232Y-50776195D01*
X91286016Y-50777877D01*
X91337133Y-50780422D01*
X91337141Y-50780422D01*
X91338704Y-50780500D01*
X91509503Y-50780500D01*
X91511771Y-50780335D01*
X91511783Y-50780335D01*
X91643612Y-50770769D01*
X91712912Y-50765741D01*
X91717367Y-50764757D01*
X91717370Y-50764757D01*
X91975646Y-50707735D01*
X91975650Y-50707734D01*
X91980106Y-50706750D01*
X92141586Y-50645571D01*
X92231716Y-50611424D01*
X92231719Y-50611423D01*
X92235986Y-50609806D01*
X92422365Y-50506282D01*
X92471199Y-50479157D01*
X92471200Y-50479156D01*
X92475192Y-50476939D01*
X92624238Y-50363191D01*
X92689080Y-50313705D01*
X92689081Y-50313704D01*
X92692712Y-50310933D01*
X92729932Y-50272859D01*
X92880794Y-50118535D01*
X92880798Y-50118530D01*
X92883989Y-50115266D01*
X93038348Y-49903198D01*
X93042330Y-49897727D01*
X93042332Y-49897724D01*
X93045017Y-49894035D01*
X93172423Y-49651877D01*
X93187019Y-49610546D01*
X93214811Y-49531844D01*
X93242006Y-49454835D01*
X96078022Y-49454835D01*
X96089754Y-49699064D01*
X96090891Y-49708324D01*
X96138593Y-49948143D01*
X96141082Y-49957118D01*
X96223708Y-50187250D01*
X96227505Y-50195778D01*
X96343234Y-50411160D01*
X96348245Y-50419027D01*
X96405173Y-50495263D01*
X96416431Y-50503712D01*
X96428850Y-50496940D01*
X97417978Y-49507812D01*
X97424356Y-49496132D01*
X98154408Y-49496132D01*
X98154539Y-49497965D01*
X98158790Y-49504580D01*
X99153732Y-50499522D01*
X99166112Y-50506282D01*
X99174453Y-50500038D01*
X99292700Y-50316202D01*
X99297147Y-50308011D01*
X99397572Y-50085076D01*
X99400767Y-50076298D01*
X99467135Y-49840973D01*
X99468993Y-49831844D01*
X99500044Y-49587770D01*
X99500525Y-49581483D01*
X99502706Y-49498160D01*
X99502555Y-49491851D01*
X99498494Y-49437198D01*
X100950719Y-49437198D01*
X100952866Y-49491851D01*
X100959350Y-49656859D01*
X100960924Y-49696932D01*
X101007624Y-49952636D01*
X101009033Y-49956859D01*
X101084356Y-50182630D01*
X101089887Y-50199210D01*
X101128575Y-50276636D01*
X101199724Y-50419027D01*
X101206072Y-50431732D01*
X101353861Y-50645565D01*
X101356883Y-50648834D01*
X101478522Y-50780422D01*
X101530304Y-50836440D01*
X101533758Y-50839252D01*
X101728425Y-50997736D01*
X101728429Y-50997739D01*
X101731882Y-51000550D01*
X101735704Y-51002851D01*
X101923088Y-51115665D01*
X101954572Y-51134620D01*
X101991599Y-51150299D01*
X102189828Y-51234239D01*
X102189833Y-51234241D01*
X102193931Y-51235976D01*
X102198228Y-51237115D01*
X102198233Y-51237117D01*
X102319557Y-51269285D01*
X102445183Y-51302594D01*
X102703315Y-51333146D01*
X102963177Y-51327022D01*
X102970104Y-51325869D01*
X103215194Y-51285075D01*
X103215198Y-51285074D01*
X103219584Y-51284344D01*
X103223825Y-51283003D01*
X103223828Y-51283002D01*
X103463173Y-51207307D01*
X103463175Y-51207306D01*
X103467419Y-51205964D01*
X103471430Y-51204038D01*
X103471435Y-51204036D01*
X103697719Y-51095376D01*
X103697720Y-51095375D01*
X103701738Y-51093446D01*
X103705444Y-51090970D01*
X103914163Y-50951509D01*
X103914167Y-50951506D01*
X103917865Y-50949035D01*
X103977603Y-50895529D01*
X104108165Y-50778588D01*
X104108170Y-50778583D01*
X104111488Y-50775611D01*
X104123229Y-50761644D01*
X104215807Y-50651509D01*
X104278744Y-50576636D01*
X104416296Y-50356079D01*
X104420945Y-50345565D01*
X104519600Y-50122409D01*
X104521398Y-50118342D01*
X104591955Y-49868167D01*
X104610026Y-49733627D01*
X104626131Y-49613728D01*
X104626132Y-49613720D01*
X104626558Y-49610546D01*
X104628165Y-49559408D01*
X104630088Y-49498222D01*
X104630088Y-49498217D01*
X104630189Y-49495000D01*
X104626097Y-49437198D01*
X104612146Y-49240164D01*
X104611831Y-49235715D01*
X104557122Y-48981604D01*
X104547696Y-48956052D01*
X104468695Y-48741913D01*
X104467154Y-48737736D01*
X104418311Y-48647214D01*
X104345836Y-48512893D01*
X104345836Y-48512892D01*
X104343723Y-48508977D01*
X104189291Y-48299893D01*
X104150047Y-48260027D01*
X104121294Y-48230819D01*
X105954500Y-48230819D01*
X105954501Y-50759180D01*
X105957335Y-50795204D01*
X105959130Y-50801381D01*
X105959131Y-50801387D01*
X105989904Y-50907307D01*
X106002131Y-50949393D01*
X106006166Y-50956215D01*
X106006166Y-50956216D01*
X106048103Y-51027127D01*
X106083865Y-51087598D01*
X106197402Y-51201135D01*
X106335607Y-51282869D01*
X106343218Y-51285080D01*
X106343220Y-51285081D01*
X106483619Y-51325871D01*
X106483624Y-51325872D01*
X106489796Y-51327665D01*
X106511419Y-51329367D01*
X106523362Y-51330307D01*
X106523371Y-51330307D01*
X106525819Y-51330500D01*
X107788976Y-51330500D01*
X109054180Y-51330499D01*
X109073423Y-51328985D01*
X109083786Y-51328170D01*
X109083787Y-51328170D01*
X109090204Y-51327665D01*
X109096384Y-51325870D01*
X109096387Y-51325869D01*
X109236780Y-51285081D01*
X109236782Y-51285080D01*
X109244393Y-51282869D01*
X109382598Y-51201135D01*
X109496135Y-51087598D01*
X109531897Y-51027127D01*
X109573834Y-50956216D01*
X109573834Y-50956215D01*
X109577869Y-50949393D01*
X109590096Y-50907307D01*
X109620871Y-50801381D01*
X109620872Y-50801376D01*
X109622665Y-50795204D01*
X109625061Y-50764757D01*
X109625307Y-50761638D01*
X109625307Y-50761629D01*
X109625500Y-50759181D01*
X109625500Y-50568359D01*
X117181386Y-50568359D01*
X117190099Y-50579879D01*
X117278586Y-50644760D01*
X117286505Y-50649708D01*
X117502877Y-50763547D01*
X117511451Y-50767275D01*
X117742282Y-50847885D01*
X117751291Y-50850299D01*
X117991518Y-50895908D01*
X118000775Y-50896962D01*
X118245107Y-50906563D01*
X118254420Y-50906237D01*
X118497478Y-50879618D01*
X118506655Y-50877917D01*
X118743107Y-50815665D01*
X118751926Y-50812628D01*
X118976584Y-50716107D01*
X118984856Y-50711800D01*
X119192777Y-50583135D01*
X119194620Y-50581796D01*
X119202038Y-50570541D01*
X119195974Y-50560184D01*
X118202812Y-49567022D01*
X118188868Y-49559408D01*
X118187035Y-49559539D01*
X118180420Y-49563790D01*
X117188044Y-50556166D01*
X117181386Y-50568359D01*
X109625500Y-50568359D01*
X109625499Y-49154835D01*
X116478022Y-49154835D01*
X116489754Y-49399064D01*
X116490891Y-49408324D01*
X116538593Y-49648143D01*
X116541082Y-49657118D01*
X116623708Y-49887250D01*
X116627505Y-49895778D01*
X116743234Y-50111160D01*
X116748245Y-50119027D01*
X116805173Y-50195263D01*
X116816431Y-50203712D01*
X116828850Y-50196940D01*
X117817978Y-49207812D01*
X117824356Y-49196132D01*
X118554408Y-49196132D01*
X118554539Y-49197965D01*
X118558790Y-49204580D01*
X119553732Y-50199522D01*
X119566112Y-50206282D01*
X119574453Y-50200038D01*
X119692700Y-50016202D01*
X119697147Y-50008011D01*
X119797572Y-49785076D01*
X119800767Y-49776298D01*
X119867135Y-49540973D01*
X119868993Y-49531844D01*
X119900044Y-49287770D01*
X119900525Y-49281483D01*
X119902706Y-49198160D01*
X119902555Y-49191851D01*
X119898494Y-49137198D01*
X121350719Y-49137198D01*
X121360924Y-49396932D01*
X121407624Y-49652636D01*
X121489887Y-49899210D01*
X121516583Y-49952636D01*
X121601414Y-50122409D01*
X121606072Y-50131732D01*
X121753861Y-50345565D01*
X121763580Y-50356079D01*
X121919086Y-50524304D01*
X121930304Y-50536440D01*
X121933758Y-50539252D01*
X122128425Y-50697736D01*
X122128429Y-50697739D01*
X122131882Y-50700550D01*
X122135704Y-50702851D01*
X122323088Y-50815665D01*
X122354572Y-50834620D01*
X122414943Y-50860184D01*
X122589828Y-50934239D01*
X122589833Y-50934241D01*
X122593931Y-50935976D01*
X122598228Y-50937115D01*
X122598233Y-50937117D01*
X122719557Y-50969285D01*
X122845183Y-51002594D01*
X123103315Y-51033146D01*
X123363177Y-51027022D01*
X123428754Y-51016107D01*
X123615194Y-50985075D01*
X123615198Y-50985074D01*
X123619584Y-50984344D01*
X123623825Y-50983003D01*
X123623828Y-50983002D01*
X123863173Y-50907307D01*
X123863175Y-50907306D01*
X123867419Y-50905964D01*
X123871430Y-50904038D01*
X123871435Y-50904036D01*
X124097719Y-50795376D01*
X124097720Y-50795375D01*
X124101738Y-50793446D01*
X124105444Y-50790970D01*
X124314163Y-50651509D01*
X124314167Y-50651506D01*
X124317865Y-50649035D01*
X124371422Y-50601065D01*
X124508165Y-50478588D01*
X124508170Y-50478583D01*
X124511488Y-50475611D01*
X124523229Y-50461644D01*
X124649914Y-50310933D01*
X124678744Y-50276636D01*
X124816296Y-50056079D01*
X124833926Y-50016202D01*
X124919600Y-49822409D01*
X124921398Y-49818342D01*
X124991955Y-49568167D01*
X125004921Y-49471637D01*
X125026131Y-49313728D01*
X125026132Y-49313720D01*
X125026558Y-49310546D01*
X125028770Y-49240164D01*
X125030088Y-49198222D01*
X125030088Y-49198217D01*
X125030189Y-49195000D01*
X125026097Y-49137198D01*
X125012146Y-48940164D01*
X125011831Y-48935715D01*
X124957122Y-48681604D01*
X124950850Y-48664601D01*
X124868695Y-48441913D01*
X124867154Y-48437736D01*
X124798069Y-48309699D01*
X124745836Y-48212893D01*
X124745836Y-48212892D01*
X124743723Y-48208977D01*
X124589291Y-47999893D01*
X124584479Y-47995004D01*
X124521294Y-47930819D01*
X126354500Y-47930819D01*
X126354501Y-50459180D01*
X126357335Y-50495204D01*
X126359130Y-50501381D01*
X126359131Y-50501387D01*
X126360553Y-50506282D01*
X126402131Y-50649393D01*
X126406166Y-50656215D01*
X126406166Y-50656216D01*
X126479570Y-50780335D01*
X126483865Y-50787598D01*
X126597402Y-50901135D01*
X126604223Y-50905169D01*
X126673370Y-50946062D01*
X126735607Y-50982869D01*
X126743218Y-50985080D01*
X126743220Y-50985081D01*
X126883619Y-51025871D01*
X126883624Y-51025872D01*
X126889796Y-51027665D01*
X126911419Y-51029367D01*
X126923362Y-51030307D01*
X126923371Y-51030307D01*
X126925819Y-51030500D01*
X128188976Y-51030500D01*
X129454180Y-51030499D01*
X129473423Y-51028985D01*
X129483786Y-51028170D01*
X129483787Y-51028170D01*
X129490204Y-51027665D01*
X129496384Y-51025870D01*
X129496387Y-51025869D01*
X129636780Y-50985081D01*
X129636782Y-50985080D01*
X129644393Y-50982869D01*
X129706631Y-50946062D01*
X129775777Y-50905169D01*
X129782598Y-50901135D01*
X129896135Y-50787598D01*
X129900430Y-50780335D01*
X129973834Y-50656216D01*
X129973834Y-50656215D01*
X129977869Y-50649393D01*
X129999007Y-50576636D01*
X130001412Y-50568359D01*
X138136386Y-50568359D01*
X138145099Y-50579879D01*
X138233586Y-50644760D01*
X138241505Y-50649708D01*
X138457877Y-50763547D01*
X138466451Y-50767275D01*
X138697282Y-50847885D01*
X138706291Y-50850299D01*
X138946518Y-50895908D01*
X138955775Y-50896962D01*
X139200107Y-50906563D01*
X139209420Y-50906237D01*
X139452478Y-50879618D01*
X139461655Y-50877917D01*
X139698107Y-50815665D01*
X139706926Y-50812628D01*
X139931584Y-50716107D01*
X139939856Y-50711800D01*
X140147777Y-50583135D01*
X140149620Y-50581796D01*
X140157038Y-50570541D01*
X140150974Y-50560184D01*
X139157812Y-49567022D01*
X139143868Y-49559408D01*
X139142035Y-49559539D01*
X139135420Y-49563790D01*
X138143044Y-50556166D01*
X138136386Y-50568359D01*
X130001412Y-50568359D01*
X130020871Y-50501381D01*
X130020872Y-50501376D01*
X130022665Y-50495204D01*
X130024476Y-50472197D01*
X130025307Y-50461638D01*
X130025307Y-50461629D01*
X130025500Y-50459181D01*
X130025499Y-49154835D01*
X137433022Y-49154835D01*
X137444754Y-49399064D01*
X137445891Y-49408324D01*
X137493593Y-49648143D01*
X137496082Y-49657118D01*
X137578708Y-49887250D01*
X137582505Y-49895778D01*
X137698234Y-50111160D01*
X137703245Y-50119027D01*
X137760173Y-50195263D01*
X137771431Y-50203712D01*
X137783850Y-50196940D01*
X138772978Y-49207812D01*
X138779356Y-49196132D01*
X139509408Y-49196132D01*
X139509539Y-49197965D01*
X139513790Y-49204580D01*
X140508732Y-50199522D01*
X140521112Y-50206282D01*
X140529453Y-50200038D01*
X140647700Y-50016202D01*
X140652147Y-50008011D01*
X140752572Y-49785076D01*
X140755767Y-49776298D01*
X140822135Y-49540973D01*
X140823993Y-49531844D01*
X140855044Y-49287770D01*
X140855525Y-49281483D01*
X140857706Y-49198160D01*
X140857555Y-49191851D01*
X140839321Y-48946486D01*
X140837944Y-48937280D01*
X140783979Y-48698786D01*
X140781255Y-48689875D01*
X140692633Y-48461983D01*
X140688619Y-48453567D01*
X140567284Y-48241276D01*
X140562074Y-48233553D01*
X140530787Y-48193865D01*
X140518863Y-48185395D01*
X140507328Y-48191882D01*
X139517022Y-49182188D01*
X139509408Y-49196132D01*
X138779356Y-49196132D01*
X138780592Y-49193868D01*
X138780461Y-49192035D01*
X138776210Y-49185420D01*
X137781828Y-48191038D01*
X137768520Y-48183771D01*
X137758481Y-48190893D01*
X137753581Y-48196784D01*
X137748168Y-48204373D01*
X137621322Y-48413409D01*
X137617084Y-48421726D01*
X137522529Y-48647214D01*
X137519572Y-48656052D01*
X137459384Y-48893042D01*
X137457763Y-48902232D01*
X137433267Y-49145510D01*
X137433022Y-49154835D01*
X130025499Y-49154835D01*
X130025499Y-47930820D01*
X130022665Y-47894796D01*
X130004800Y-47833302D01*
X130000911Y-47819917D01*
X138134330Y-47819917D01*
X138138903Y-47829693D01*
X139132188Y-48822978D01*
X139146132Y-48830592D01*
X139147965Y-48830461D01*
X139154580Y-48826210D01*
X140147488Y-47833302D01*
X140153872Y-47821612D01*
X140144460Y-47809502D01*
X140018144Y-47721873D01*
X140010116Y-47717145D01*
X139790810Y-47608995D01*
X139782177Y-47605507D01*
X139549288Y-47530958D01*
X139540238Y-47528785D01*
X139298891Y-47489480D01*
X139289602Y-47488668D01*
X139045114Y-47485467D01*
X139035803Y-47486037D01*
X138793522Y-47519010D01*
X138784403Y-47520948D01*
X138549668Y-47589367D01*
X138540915Y-47592639D01*
X138318869Y-47695004D01*
X138310714Y-47699524D01*
X138143468Y-47809175D01*
X138134330Y-47819917D01*
X130000911Y-47819917D01*
X129980081Y-47748220D01*
X129980080Y-47748218D01*
X129977869Y-47740607D01*
X129911610Y-47628568D01*
X129900169Y-47609223D01*
X129896135Y-47602402D01*
X129782598Y-47488865D01*
X129771556Y-47482335D01*
X129651216Y-47411166D01*
X129651215Y-47411166D01*
X129644393Y-47407131D01*
X129636782Y-47404920D01*
X129636780Y-47404919D01*
X129496381Y-47364129D01*
X129496376Y-47364128D01*
X129490204Y-47362335D01*
X129468581Y-47360633D01*
X129456638Y-47359693D01*
X129456629Y-47359693D01*
X129454181Y-47359500D01*
X128191024Y-47359500D01*
X126925820Y-47359501D01*
X126906577Y-47361015D01*
X126896214Y-47361830D01*
X126896213Y-47361830D01*
X126889796Y-47362335D01*
X126883616Y-47364130D01*
X126883613Y-47364131D01*
X126743220Y-47404919D01*
X126743218Y-47404920D01*
X126735607Y-47407131D01*
X126728785Y-47411166D01*
X126728784Y-47411166D01*
X126608444Y-47482335D01*
X126597402Y-47488865D01*
X126483865Y-47602402D01*
X126479831Y-47609223D01*
X126468391Y-47628568D01*
X126402131Y-47740607D01*
X126399920Y-47748218D01*
X126399919Y-47748220D01*
X126359129Y-47888619D01*
X126359128Y-47888624D01*
X126357335Y-47894796D01*
X126356492Y-47905507D01*
X126354694Y-47928356D01*
X126354500Y-47930819D01*
X124521294Y-47930819D01*
X124483348Y-47892273D01*
X124406939Y-47814654D01*
X124403399Y-47811953D01*
X124403393Y-47811947D01*
X124203847Y-47659658D01*
X124203843Y-47659655D01*
X124200306Y-47656956D01*
X124114665Y-47608995D01*
X123977404Y-47532125D01*
X123977398Y-47532122D01*
X123973514Y-47529947D01*
X123969356Y-47528339D01*
X123969351Y-47528336D01*
X123735245Y-47437767D01*
X123735239Y-47437765D01*
X123731090Y-47436160D01*
X123726758Y-47435156D01*
X123726755Y-47435155D01*
X123596306Y-47404919D01*
X123477869Y-47377467D01*
X123218904Y-47355038D01*
X123214469Y-47355282D01*
X123214465Y-47355282D01*
X123109358Y-47361067D01*
X122959363Y-47369321D01*
X122955000Y-47370189D01*
X122954999Y-47370189D01*
X122708792Y-47419163D01*
X122708790Y-47419164D01*
X122704424Y-47420032D01*
X122459173Y-47506158D01*
X122228504Y-47625981D01*
X122224889Y-47628564D01*
X122224883Y-47628568D01*
X122020640Y-47774522D01*
X122020636Y-47774525D01*
X122017019Y-47777110D01*
X121828939Y-47956530D01*
X121826183Y-47960026D01*
X121826182Y-47960027D01*
X121685782Y-48138123D01*
X121668015Y-48160660D01*
X121665779Y-48164509D01*
X121665778Y-48164511D01*
X121637676Y-48212893D01*
X121537460Y-48385429D01*
X121535792Y-48389546D01*
X121535789Y-48389553D01*
X121493538Y-48493865D01*
X121439876Y-48626350D01*
X121377213Y-48878618D01*
X121350719Y-49137198D01*
X119898494Y-49137198D01*
X119884321Y-48946486D01*
X119882944Y-48937280D01*
X119828979Y-48698786D01*
X119826255Y-48689875D01*
X119737633Y-48461983D01*
X119733619Y-48453567D01*
X119612284Y-48241276D01*
X119607074Y-48233553D01*
X119575787Y-48193865D01*
X119563863Y-48185395D01*
X119552328Y-48191882D01*
X118562022Y-49182188D01*
X118554408Y-49196132D01*
X117824356Y-49196132D01*
X117825592Y-49193868D01*
X117825461Y-49192035D01*
X117821210Y-49185420D01*
X116826828Y-48191038D01*
X116813520Y-48183771D01*
X116803481Y-48190893D01*
X116798581Y-48196784D01*
X116793168Y-48204373D01*
X116666322Y-48413409D01*
X116662084Y-48421726D01*
X116567529Y-48647214D01*
X116564572Y-48656052D01*
X116504384Y-48893042D01*
X116502763Y-48902232D01*
X116478267Y-49145510D01*
X116478022Y-49154835D01*
X109625499Y-49154835D01*
X109625499Y-48230820D01*
X109622665Y-48194796D01*
X109613867Y-48164511D01*
X109580081Y-48048220D01*
X109580080Y-48048218D01*
X109577869Y-48040607D01*
X109511610Y-47928568D01*
X109500169Y-47909223D01*
X109496135Y-47902402D01*
X109413650Y-47819917D01*
X117179330Y-47819917D01*
X117183903Y-47829693D01*
X118177188Y-48822978D01*
X118191132Y-48830592D01*
X118192965Y-48830461D01*
X118199580Y-48826210D01*
X119192488Y-47833302D01*
X119198872Y-47821612D01*
X119189460Y-47809502D01*
X119063144Y-47721873D01*
X119055116Y-47717145D01*
X118835810Y-47608995D01*
X118827177Y-47605507D01*
X118594288Y-47530958D01*
X118585238Y-47528785D01*
X118343891Y-47489480D01*
X118334602Y-47488668D01*
X118090114Y-47485467D01*
X118080803Y-47486037D01*
X117838522Y-47519010D01*
X117829403Y-47520948D01*
X117594668Y-47589367D01*
X117585915Y-47592639D01*
X117363869Y-47695004D01*
X117355714Y-47699524D01*
X117188468Y-47809175D01*
X117179330Y-47819917D01*
X109413650Y-47819917D01*
X109382598Y-47788865D01*
X109296196Y-47737767D01*
X109251216Y-47711166D01*
X109251215Y-47711166D01*
X109244393Y-47707131D01*
X109236782Y-47704920D01*
X109236780Y-47704919D01*
X109096381Y-47664129D01*
X109096376Y-47664128D01*
X109090204Y-47662335D01*
X109068581Y-47660633D01*
X109056638Y-47659693D01*
X109056629Y-47659693D01*
X109054181Y-47659500D01*
X107791024Y-47659500D01*
X106525820Y-47659501D01*
X106506577Y-47661015D01*
X106496214Y-47661830D01*
X106496213Y-47661830D01*
X106489796Y-47662335D01*
X106483616Y-47664130D01*
X106483613Y-47664131D01*
X106343220Y-47704919D01*
X106343218Y-47704920D01*
X106335607Y-47707131D01*
X106328785Y-47711166D01*
X106328784Y-47711166D01*
X106283804Y-47737767D01*
X106197402Y-47788865D01*
X106083865Y-47902402D01*
X106079831Y-47909223D01*
X106068391Y-47928568D01*
X106002131Y-48040607D01*
X105999920Y-48048218D01*
X105999919Y-48048220D01*
X105959129Y-48188619D01*
X105959128Y-48188624D01*
X105957335Y-48194796D01*
X105956501Y-48205395D01*
X105954694Y-48228356D01*
X105954500Y-48230819D01*
X104121294Y-48230819D01*
X104082963Y-48191882D01*
X104006939Y-48114654D01*
X104003399Y-48111953D01*
X104003393Y-48111947D01*
X103803847Y-47959658D01*
X103803843Y-47959655D01*
X103800306Y-47956956D01*
X103708437Y-47905507D01*
X103577404Y-47832125D01*
X103577398Y-47832122D01*
X103573514Y-47829947D01*
X103569356Y-47828339D01*
X103569351Y-47828336D01*
X103335245Y-47737767D01*
X103335239Y-47737765D01*
X103331090Y-47736160D01*
X103326758Y-47735156D01*
X103326755Y-47735155D01*
X103153529Y-47695004D01*
X103077869Y-47677467D01*
X102818904Y-47655038D01*
X102814469Y-47655282D01*
X102814465Y-47655282D01*
X102709358Y-47661067D01*
X102559363Y-47669321D01*
X102555000Y-47670189D01*
X102554999Y-47670189D01*
X102308792Y-47719163D01*
X102308790Y-47719164D01*
X102304424Y-47720032D01*
X102059173Y-47806158D01*
X101828504Y-47925981D01*
X101824889Y-47928564D01*
X101824883Y-47928568D01*
X101620640Y-48074522D01*
X101620636Y-48074525D01*
X101617019Y-48077110D01*
X101428939Y-48256530D01*
X101426183Y-48260026D01*
X101426182Y-48260027D01*
X101322265Y-48391845D01*
X101268015Y-48460660D01*
X101265779Y-48464509D01*
X101265778Y-48464511D01*
X101237676Y-48512893D01*
X101137460Y-48685429D01*
X101135792Y-48689546D01*
X101135789Y-48689553D01*
X101057414Y-48883052D01*
X101039876Y-48926350D01*
X100977213Y-49178618D01*
X100950719Y-49437198D01*
X99498494Y-49437198D01*
X99484321Y-49246486D01*
X99482944Y-49237280D01*
X99428979Y-48998786D01*
X99426255Y-48989875D01*
X99337633Y-48761983D01*
X99333619Y-48753567D01*
X99212284Y-48541276D01*
X99207074Y-48533553D01*
X99175787Y-48493865D01*
X99163863Y-48485395D01*
X99152328Y-48491882D01*
X98162022Y-49482188D01*
X98154408Y-49496132D01*
X97424356Y-49496132D01*
X97425592Y-49493868D01*
X97425461Y-49492035D01*
X97421210Y-49485420D01*
X96426828Y-48491038D01*
X96413520Y-48483771D01*
X96403481Y-48490893D01*
X96398581Y-48496784D01*
X96393168Y-48504373D01*
X96266322Y-48713409D01*
X96262084Y-48721726D01*
X96167529Y-48947214D01*
X96164572Y-48956052D01*
X96104384Y-49193042D01*
X96102763Y-49202232D01*
X96078267Y-49445510D01*
X96078022Y-49454835D01*
X93242006Y-49454835D01*
X93263537Y-49393863D01*
X93293831Y-49240164D01*
X93315570Y-49129871D01*
X93315571Y-49129865D01*
X93316451Y-49125399D01*
X93323393Y-48985956D01*
X93329829Y-48856678D01*
X93329829Y-48856672D01*
X93330056Y-48852109D01*
X93304068Y-48579717D01*
X93287717Y-48512893D01*
X93240115Y-48318363D01*
X93239030Y-48313929D01*
X93217198Y-48260027D01*
X93160448Y-48119917D01*
X96779330Y-48119917D01*
X96783903Y-48129693D01*
X97777188Y-49122978D01*
X97791132Y-49130592D01*
X97792965Y-49130461D01*
X97799580Y-49126210D01*
X98792488Y-48133302D01*
X98798872Y-48121612D01*
X98789460Y-48109502D01*
X98663144Y-48021873D01*
X98655116Y-48017145D01*
X98435810Y-47908995D01*
X98427177Y-47905507D01*
X98194288Y-47830958D01*
X98185238Y-47828785D01*
X97943891Y-47789480D01*
X97934602Y-47788668D01*
X97690114Y-47785467D01*
X97680803Y-47786037D01*
X97438522Y-47819010D01*
X97429403Y-47820948D01*
X97194668Y-47889367D01*
X97185915Y-47892639D01*
X96963869Y-47995004D01*
X96955714Y-47999524D01*
X96788468Y-48109175D01*
X96779330Y-48119917D01*
X93160448Y-48119917D01*
X93138021Y-48064547D01*
X93138018Y-48064542D01*
X93136306Y-48060314D01*
X93134002Y-48056379D01*
X93133999Y-48056373D01*
X93000352Y-47828123D01*
X93000351Y-47828121D01*
X92998046Y-47824185D01*
X92868208Y-47661830D01*
X92830000Y-47614053D01*
X92829998Y-47614051D01*
X92827148Y-47610487D01*
X92627191Y-47423698D01*
X92471705Y-47315833D01*
X92406118Y-47270333D01*
X92406113Y-47270330D01*
X92402365Y-47267730D01*
X92398280Y-47265698D01*
X92398277Y-47265696D01*
X92279872Y-47206791D01*
X92157378Y-47145851D01*
X92153044Y-47144430D01*
X92153041Y-47144429D01*
X91971350Y-47084868D01*
X91897364Y-47060614D01*
X91627768Y-47013805D01*
X91593984Y-47012123D01*
X91542867Y-47009578D01*
X91542859Y-47009578D01*
X91541296Y-47009500D01*
X91370497Y-47009500D01*
X91368229Y-47009665D01*
X91368217Y-47009665D01*
X91236388Y-47019231D01*
X91167088Y-47024259D01*
X91162633Y-47025243D01*
X91162630Y-47025243D01*
X90955207Y-47071038D01*
X90884376Y-47066192D01*
X90827409Y-47023822D01*
X90802392Y-46957379D01*
X90802046Y-46947388D01*
X90804695Y-46416235D01*
X90825036Y-46348215D01*
X90853336Y-46317406D01*
X96485876Y-41936541D01*
X96551928Y-41910507D01*
X96563229Y-41909999D01*
X159787267Y-41908215D01*
X159855389Y-41928215D01*
G37*
%TD.AperFunction*%
%TD*%
M02*
